<?xml version="1.0" encoding="utf-8"?>
<!-- Generator: Adobe Illustrator 16.0.0, SVG Export Plug-In . SVG Version: 6.00 Build 0)  -->
<!DOCTYPE svg PUBLIC "-//W3C//DTD SVG 1.1//EN" "http://www.w3.org/Graphics/SVG/1.1/DTD/svg11.dtd">
<svg version="1.1" id="Layer_1" xmlns="http://www.w3.org/2000/svg" xmlns:xlink="http://www.w3.org/1999/xlink" x="0px" y="0px"
	 width="64px" height="64px" viewBox="0 0 64 64" enable-background="new 0 0 64 64" xml:space="preserve">
<g id="XMLID_28873_">
	<path id="XMLID_28874_" fill="#FFFFFF" d="M23.146,46.091c0.963,0.703,3.944,2.576,8.438,2.576c0.306,0,0.618-0.009,0.938-0.027
		c8.929-0.277,16.109-7.622,16.109-16.617c0-6.48-3.729-12.104-9.151-14.847c-0.03-0.019-0.06-0.039-0.092-0.054
		c-0.021-0.01-0.043-0.018-0.065-0.027c-1.58-0.779-3.301-1.311-5.112-1.553c-6.898-1.087-11.144,2.41-11.395,2.625
		c-1.884,1.252-3.496,2.879-4.736,4.771c-0.042,0.039-0.081,0.082-0.115,0.131c-0.043,0.061-0.301,0.442-0.623,1.107
		c-1.257,2.338-1.972,5.01-1.972,7.846C15.369,37.939,18.479,43.142,23.146,46.091z M32,17.021c0.441,0,0.878,0.023,1.312,0.062
		c1.417,0.158,2.969,0.525,4.642,1.199l-3.289,6.922c-1.125-0.35-3.314-0.697-5.755,0.677l-4.43-6.83
		C26.692,17.763,29.261,17.021,32,17.021z M32,26.805c2.877,0,5.218,2.341,5.218,5.218S34.877,37.239,32,37.239
		c-0.8,0-1.555-0.186-2.233-0.509c-0.211-0.116-0.425-0.247-0.641-0.397c-0.057-0.039-0.119-0.068-0.183-0.092
		c-1.307-0.948-2.161-2.484-2.161-4.219C26.782,29.146,29.123,26.805,32,26.805z M45.271,38.118l-6.709-3.423
		c0.461-1.095,0.969-3.179-0.287-5.597l6.346-4.417C45.613,26.356,47.839,31.229,45.271,38.118z M32,47.022
		c-2.748,0-5.323-0.746-7.54-2.041l4.447-6.857c0.024,0.012,0.05,0.023,0.075,0.037c2.427,1.343,4.624,1.061,5.74,0.76l3.23,6.798
		c-2.104,0.85-4.012,1.221-5.699,1.298C32.169,47.018,32.085,47.022,32,47.022z M18.903,24.72l6.292,4.379
		c-1.265,2.436-0.741,4.531-0.278,5.619l-6.135,3.373c-2.517-6.715-0.777-11.548,0.098-13.331
		C18.888,24.746,18.896,24.733,18.903,24.72z M26.304,35.816c0.35,0.523,0.771,0.993,1.247,1.401l-4.454,6.868
		c-1.582-1.171-2.928-2.645-3.947-4.335L26.304,35.816z M39.437,45.042l-3.521-7.41c0.634-0.443,1.188-0.992,1.64-1.62l7.304,3.726
		C43.535,41.935,41.663,43.765,39.437,45.042z M37.349,27.757c-0.415-0.52-0.902-0.977-1.448-1.355l3.52-7.408
		c1.812,1.035,3.388,2.435,4.626,4.102L37.349,27.757z M23.116,19.944l4.453,6.866c-0.412,0.351-0.779,0.751-1.1,1.188l-6.691-4.658
		C20.704,22.04,21.831,20.892,23.116,19.944z"/>
</g>
</svg>
