<?xml version="1.0" encoding="utf-8"?>
<!-- Generator: Adobe Illustrator 16.0.0, SVG Export Plug-In . SVG Version: 6.00 Build 0)  -->
<!DOCTYPE svg PUBLIC "-//W3C//DTD SVG 1.1//EN" "http://www.w3.org/Graphics/SVG/1.1/DTD/svg11.dtd">
<svg version="1.1" id="Layer_1" xmlns="http://www.w3.org/2000/svg" xmlns:xlink="http://www.w3.org/1999/xlink" x="0px" y="0px"
	 width="64px" height="64px" viewBox="0 0 64 64" enable-background="new 0 0 64 64" xml:space="preserve">
<g id="XMLID_27947_">
	<path id="XMLID_27954_" fill="#FFFFFF" d="M44.357,30.333c0.052-0.063,0.093-0.138,0.119-0.218l3.775-11.329
		c0.064-0.147,0.113-0.298,0.147-0.457c0.004-0.013,0.007-0.026,0.01-0.039c0.157-0.792-0.088-1.605-0.656-2.174
		c-0.587-0.587-1.417-0.824-2.23-0.641c-0.025,0.004-0.051,0.01-0.077,0.017c-0.107,0.029-0.206,0.063-0.302,0.102l-11.013,3.629
		c-0.563,0.129-1.01,0.364-1.364,0.718l-8.002,8.003l-6.526-1.038c-0.048-0.007-0.095-0.008-0.14-0.001
		c-0.696-0.105-1.396,0.122-1.901,0.627c-0.857,0.858-0.871,2.246-0.036,3.123c0.015,0.02,0.03,0.039,0.049,0.057l2.894,2.894
		l-0.793,0.793c-1.105,1.105-1.104,2.905,0.003,4.013l0.94,0.94l-0.097,0.188c-0.138,0.268-0.086,0.594,0.127,0.806l4.132,4.133
		c0.213,0.212,0.538,0.264,0.806,0.127l0.189-0.097l0.978,0.979c0.536,0.535,1.249,0.831,2.007,0.831l0,0
		c0.757,0,1.469-0.295,2.005-0.831l0.628-0.628l2.927,2.928c0.025,0.025,0.052,0.047,0.081,0.064
		c0.023,0.028,0.047,0.056,0.073,0.083c0.421,0.42,0.98,0.651,1.577,0.651h0.002c0.598,0,1.158-0.232,1.579-0.654
		c0.587-0.587,0.795-1.444,0.556-2.23c0-0.028-0.001-0.056-0.006-0.084l-1.032-6.515l8.071-8.071
		C44.056,30.831,44.221,30.602,44.357,30.333z M16.936,30.13c-0.016-0.024-0.033-0.047-0.054-0.068
		c-0.016-0.017-0.036-0.035-0.058-0.052c-0.484-0.512-0.475-1.322,0.026-1.825c0.319-0.318,0.771-0.448,1.208-0.348
		c0.061,0.015,0.123,0.016,0.183,0.005l5.716,0.908l-4.2,4.2L16.936,30.13z M35.876,45.584c-0.02,0.09-0.013,0.186,0.023,0.273
		c0.198,0.491,0.086,1.048-0.286,1.42c-0.247,0.247-0.575,0.384-0.925,0.384h-0.002c-0.349,0-0.677-0.136-0.922-0.381
		c-0.019-0.019-0.033-0.04-0.048-0.062l-0.051-0.065c-0.047-0.06-0.105-0.105-0.173-0.136l-2.757-2.758l4.256-4.256L35.876,45.584z
		 M43.17,29.602c-0.081,0.185-0.178,0.331-0.294,0.448L28.42,44.507c-0.274,0.273-0.638,0.424-1.024,0.424l0,0l0,0
		c-0.146,0-0.288-0.021-0.423-0.063s-0.264-0.102-0.382-0.181c-0.079-0.053-0.153-0.113-0.222-0.182l-1.334-1.335
		c-0.133-0.133-0.311-0.203-0.49-0.203c-0.107,0-0.215,0.025-0.314,0.076l-0.19,0.097l-3.419-3.419l0.097-0.188
		c0.137-0.269,0.086-0.594-0.127-0.807l-1.297-1.297c-0.566-0.566-0.568-1.487-0.004-2.052l14.457-14.457
		c0.171-0.17,0.398-0.282,0.717-0.353c0.023-0.005,0.046-0.011,0.068-0.019l11.069-3.647c0.018-0.006,0.035-0.012,0.051-0.019
		c0.042-0.018,0.083-0.032,0.126-0.045c0.012-0.002,0.024-0.005,0.036-0.008c0.35-0.084,0.708,0.016,0.958,0.266
		c0.235,0.235,0.339,0.57,0.281,0.9c-0.002,0.008-0.004,0.016-0.006,0.023c-0.017,0.08-0.04,0.153-0.073,0.226
		c-0.01,0.022-0.02,0.046-0.027,0.069l-3.731,11.199C43.198,29.542,43.183,29.571,43.17,29.602z"/>
	<path id="XMLID_27951_" fill="#FFFFFF" d="M30.152,32.188c-0.476-0.476-1.109-0.738-1.783-0.738l0,0
		c-0.674,0-1.307,0.262-1.782,0.737l-3.088,3.088c-0.983,0.982-0.982,2.582,0,3.566l1.458,1.457
		c0.476,0.477,1.108,0.738,1.782,0.738h0.002c0.674-0.001,1.306-0.263,1.781-0.738l3.088-3.088c0.476-0.476,0.738-1.108,0.738-1.781
		c0-0.674-0.262-1.308-0.738-1.784L30.152,32.188z M30.63,36.229l-3.088,3.088l0,0c-0.214,0.214-0.499,0.332-0.802,0.332h-0.001
		c-0.303,0-0.588-0.118-0.802-0.332l-1.458-1.457c-0.442-0.443-0.442-1.163,0-1.604l3.088-3.089
		c0.214-0.214,0.498-0.331,0.802-0.331l0,0c0.304,0,0.589,0.118,0.803,0.332l1.458,1.458c0.214,0.214,0.332,0.499,0.332,0.802
		S30.844,36.016,30.63,36.229z"/>
	<path id="XMLID_27948_" fill="#FFFFFF" d="M37.762,24.396c-0.569-0.306-1.21-0.468-1.874-0.468l0,0l0,0
		c-1.063,0-2.063,0.415-2.814,1.167c-0.753,0.752-1.168,1.752-1.168,2.815s0.414,2.063,1.167,2.816
		c0.752,0.752,1.75,1.165,2.813,1.165h0.002c1.063,0,2.063-0.415,2.815-1.167c0.752-0.752,1.166-1.752,1.167-2.815
		c0-1.063-0.414-2.063-1.167-2.814C38.421,24.813,38.104,24.578,37.762,24.396z M37.723,29.744c-0.491,0.49-1.143,0.761-1.836,0.762
		h-0.001c-0.692,0-1.344-0.271-1.833-0.76c-0.491-0.49-0.761-1.143-0.761-1.836c0-0.692,0.271-1.345,0.762-1.836
		c0.49-0.49,1.141-0.76,1.834-0.76l0,0c0.693,0,1.345,0.271,1.836,0.761c0.489,0.49,0.76,1.142,0.76,1.834
		C38.483,28.603,38.213,29.254,37.723,29.744z"/>
</g>
</svg>
