<?xml version="1.0" encoding="utf-8"?>
<!-- Generator: Adobe Illustrator 16.0.0, SVG Export Plug-In . SVG Version: 6.00 Build 0)  -->
<!DOCTYPE svg PUBLIC "-//W3C//DTD SVG 1.1//EN" "http://www.w3.org/Graphics/SVG/1.1/DTD/svg11.dtd">
<svg version="1.1" id="Layer_1" xmlns="http://www.w3.org/2000/svg" xmlns:xlink="http://www.w3.org/1999/xlink" x="0px" y="0px"
	 width="64px" height="64px" viewBox="0 0 64 64" enable-background="new 0 0 64 64" xml:space="preserve">
<g id="XMLID_27637_">
	<path id="XMLID_27649_" fill="#FFFFFF" d="M32.998,16.737c-0.968,0-1.755,0.788-1.755,1.755s0.788,1.755,1.755,1.755
		c0.969,0,1.756-0.788,1.756-1.755S33.967,16.737,32.998,16.737z M32.998,19.13c-0.352,0-0.637-0.286-0.637-0.637
		c0-0.352,0.286-0.637,0.637-0.637c0.351,0,0.637,0.285,0.637,0.637C33.635,18.844,33.349,19.13,32.998,19.13z"/>
	<path id="XMLID_27646_" fill="#FFFFFF" d="M40.283,14.845c0-1.661-1.352-3.012-3.012-3.012s-3.011,1.351-3.011,3.012
		c0,1.661,1.351,3.011,3.011,3.011S40.283,16.505,40.283,14.845z M37.271,16.738c-1.044,0-1.894-0.85-1.894-1.893
		c0-1.044,0.85-1.893,1.894-1.893s1.893,0.849,1.893,1.893C39.164,15.888,38.315,16.738,37.271,16.738z"/>
	<path id="XMLID_27643_" fill="#FFFFFF" d="M35.093,19.981c0,1.13,0.918,2.049,2.049,2.049c1.129,0,2.048-0.919,2.048-2.049
		c0-1.129-0.919-2.048-2.048-2.048C36.011,17.934,35.093,18.852,35.093,19.981z M38.071,19.981c0,0.514-0.417,0.931-0.93,0.931
		c-0.514,0-0.931-0.417-0.931-0.931c0-0.512,0.417-0.93,0.931-0.93C37.654,19.052,38.071,19.469,38.071,19.981z"/>
	<path id="XMLID_27638_" fill="#FFFFFF" d="M18.771,51.516c0.446,0.772,1.245,1.233,2.136,1.233h23.435
		c0.775,0,1.468-0.399,1.855-1.071c0.387-0.67,0.387-1.471,0-2.142l-7.083-12.269c-0.04-0.068-0.096-0.124-0.159-0.169
		c-0.013-0.134-0.07-0.255-0.161-0.345l-3.26-5.647v-4.74c0.732-0.276,1.256-0.981,1.256-1.81c0-1.067-0.867-1.935-1.935-1.935
		h-5.024c-1.066,0-1.935,0.868-1.935,1.935c0,0.828,0.523,1.534,1.256,1.81v4.74l-3.26,5.648c-0.088,0.087-0.145,0.203-0.16,0.332
		c-0.059,0.045-0.112,0.098-0.15,0.163l-6.813,11.799C18.325,49.82,18.325,50.743,18.771,51.516z M29.016,24.557
		c0-0.45,0.366-0.816,0.816-0.816h5.024c0.45,0,0.816,0.366,0.816,0.816s-0.366,0.816-0.816,0.816h-5.024
		C29.381,25.373,29.016,25.007,29.016,24.557z M30.196,31.536c0.049-0.085,0.075-0.182,0.075-0.279v-4.765h4.144v4.765
		c0,0.098,0.027,0.194,0.075,0.279l3.146,5.451l-10.578-0.016L30.196,31.536z M19.739,49.607l6.65-11.519l11.917,0.018l6.922,11.988
		c0.186,0.321,0.186,0.704,0,1.023c-0.185,0.321-0.517,0.513-0.887,0.513H20.907c-0.487,0-0.924-0.252-1.167-0.674
		C19.496,50.534,19.496,50.03,19.739,49.607z"/>
</g>
</svg>
