<?xml version="1.0" encoding="utf-8"?>
<!-- Generator: Adobe Illustrator 16.0.0, SVG Export Plug-In . SVG Version: 6.00 Build 0)  -->
<!DOCTYPE svg PUBLIC "-//W3C//DTD SVG 1.1//EN" "http://www.w3.org/Graphics/SVG/1.1/DTD/svg11.dtd">
<svg version="1.1" id="Layer_1" xmlns="http://www.w3.org/2000/svg" xmlns:xlink="http://www.w3.org/1999/xlink" x="0px" y="0px"
	 width="64px" height="64px" viewBox="0 0 64 64" enable-background="new 0 0 64 64" xml:space="preserve">
<g id="XMLID_27457_">
	<path id="XMLID_27464_" fill="#FFFFFF" d="M21.791,30.137c-0.915,0.917-1.42,2.133-1.419,3.427c0,2.67,2.174,4.843,4.846,4.843l0,0
		c1.293,0,2.51-0.505,3.425-1.421c0.489-0.489,0.856-1.066,1.098-1.693l4.522-0.001c0.699,1.819,2.459,3.115,4.521,3.115l0,0
		c1.293,0,2.51-0.505,3.424-1.421c0.918-0.917,1.422-2.134,1.422-3.426c-0.002-2.671-2.176-4.844-4.846-4.844
		c-0.781,0-1.533,0.188-2.209,0.535c-0.283-0.432-0.619-0.843-1.021-1.211c-0.236-0.216-0.59-0.231-0.844-0.037
		c-0.027,0.021-2.695,2.007-5.24,0.19l-1.344-2.078c0.891,1.085,2.241,1.78,3.751,1.78h0.001c1.294,0,2.511-0.505,3.427-1.422
		s1.422-2.135,1.422-3.429c-0.002-2.674-2.178-4.849-4.85-4.849c-1.294,0-2.512,0.506-3.429,1.423
		c-0.918,0.917-1.422,2.135-1.422,3.429c0.001,0.784,0.192,1.522,0.523,2.178l-1.617-2.5c-0.494-0.765-1.518-0.984-2.282-0.49
		c-0.764,0.494-0.983,1.519-0.489,2.282l2.752,4.256c-0.229-0.033-0.459-0.056-0.695-0.056
		C23.924,28.716,22.708,29.221,21.791,30.137z M29.375,20.545c0.67-0.669,1.558-1.038,2.501-1.038c1.95,0,3.536,1.586,3.538,3.536
		c0,0.943-0.369,1.831-1.039,2.501c-0.668,0.669-1.554,1.037-2.499,1.037c-1.95,0-3.536-1.586-3.538-3.535
		C28.338,22.103,28.708,21.214,29.375,20.545z M36.279,31.059c0.67-0.67,1.559-1.04,2.504-1.04c1.951,0,3.539,1.588,3.541,3.541
		c0,0.943-0.369,1.832-1.039,2.503c-0.668,0.67-1.557,1.039-2.502,1.039l0,0c-1.953,0-3.541-1.588-3.543-3.54
		C35.24,32.618,35.609,31.729,36.279,31.059z M24.055,23.937c-0.084-0.13-0.112-0.287-0.08-0.439
		c0.033-0.153,0.123-0.284,0.254-0.368c0.264-0.17,0.64-0.088,0.809,0.173l3.162,4.89l0,0l0.813,1.257l0.052,0.051
		c0.224,0.138,0.455,0.258,0.685,0.357c0.189,0.081,0.39,0.153,0.594,0.213c2.02,0.591,3.867-0.245,4.671-0.708
		c0.18,0.205,0.34,0.423,0.482,0.648c-0.045,0.043-0.094,0.083-0.139,0.127c-0.916,0.917-1.422,2.133-1.422,3.427
		c0.002,0.14,0.01,0.278,0.021,0.415l-3.916,0.001c0.012-0.14,0.021-0.278,0.021-0.42c-0.002-1.836-1.029-3.437-2.538-4.258
		l-0.069-0.107L24.055,23.937z M28.758,33.561c0,0.943-0.369,1.832-1.039,2.503c-0.669,0.67-1.558,1.039-2.502,1.039l0,0
		c-1.953,0-3.541-1.588-3.542-3.54c-0.001-0.944,0.368-1.833,1.038-2.503c0.67-0.67,1.559-1.04,2.504-1.04
		C27.168,30.02,28.757,31.608,28.758,33.561z"/>
	<path id="XMLID_27461_" fill="#FFFFFF" d="M19.269,45.611c0.122,0.124,0.29,0.194,0.464,0.194L30.7,45.804
		c0.352,0,0.64-0.279,0.651-0.631c0.006-0.173,0.11-4.26-2.461-6.614c-0.232-0.213-0.585-0.228-0.837-0.038
		c-0.115,0.088-2.877,2.136-5.49,0.008c-0.246-0.201-0.601-0.195-0.84,0.013c-0.105,0.092-2.58,2.291-2.643,6.603
		C19.079,45.318,19.147,45.486,19.269,45.611z M22.225,39.897c2.304,1.523,4.774,0.803,6.139-0.015
		c1.286,1.463,1.592,3.574,1.664,4.616l-9.611,0.002C20.615,42.083,21.663,40.556,22.225,39.897z"/>
	<path id="XMLID_27458_" fill="#FFFFFF" d="M41.619,38.521c-0.115,0.088-2.877,2.136-5.49,0.008
		c-0.246-0.201-0.602-0.195-0.84,0.013c-0.105,0.092-2.581,2.291-2.642,6.603c-0.002,0.175,0.065,0.343,0.188,0.468
		c0.123,0.124,0.291,0.194,0.464,0.194l10.967-0.002c0.352,0,0.639-0.279,0.65-0.631c0.006-0.173,0.111-4.26-2.461-6.614
		C42.223,38.346,41.871,38.331,41.619,38.521z M43.592,44.499l-9.609,0.002c0.197-2.418,1.246-3.945,1.809-4.604
		c2.303,1.523,4.773,0.803,6.139-0.015C43.217,41.346,43.521,43.457,43.592,44.499z"/>
</g>
</svg>
