<?xml version="1.0" encoding="utf-8"?>
<!-- Generator: Adobe Illustrator 16.0.0, SVG Export Plug-In . SVG Version: 6.00 Build 0)  -->
<!DOCTYPE svg PUBLIC "-//W3C//DTD SVG 1.1//EN" "http://www.w3.org/Graphics/SVG/1.1/DTD/svg11.dtd">
<svg version="1.1" id="Layer_1" xmlns="http://www.w3.org/2000/svg" xmlns:xlink="http://www.w3.org/1999/xlink" x="0px" y="0px"
	 width="64px" height="64px" viewBox="0 0 64 64" enable-background="new 0 0 64 64" xml:space="preserve">
<g id="XMLID_26363_">
	<path id="XMLID_26374_" fill="#FFFFFF" d="M44.207,48.688c0.005-0.16,0.101-3.922-2.269-6.092
		c-0.232-0.213-0.586-0.229-0.837-0.037c-0.104,0.078-2.597,1.926-4.953,0.006c-0.245-0.199-0.6-0.193-0.839,0.014
		c-0.034,0.029-0.338,0.303-0.719,0.809c-0.363-0.559-0.799-1.092-1.32-1.57c-0.232-0.213-0.586-0.229-0.837-0.037
		c-0.157,0.119-3.887,2.895-7.434,0.004c-0.246-0.199-0.6-0.193-0.84,0.014c-0.135,0.117-3.308,2.939-3.388,8.492
		c-0.002,0.174,0.065,0.342,0.188,0.467s0.29,0.193,0.465,0.193l14.35-0.002c0.352,0,0.641-0.279,0.652-0.631
		c0.002-0.055,0.012-0.426-0.026-0.998h7.155C43.907,49.318,44.195,49.039,44.207,48.688z M22.103,49.645
		c0.229-3.479,1.823-5.66,2.552-6.488c3.389,2.363,6.847,0.723,8.09-0.025c1.924,2.066,2.295,5.188,2.364,6.512L22.103,49.645z
		 M36.256,48.014c-0.153-0.984-0.438-2.174-0.966-3.34c0.189-0.309,0.375-0.561,0.525-0.74c2.096,1.359,4.331,0.725,5.592-0.014
		c1.117,1.295,1.402,3.137,1.473,4.094H36.256z"/>
	<path id="XMLID_26371_" fill="#FFFFFF" d="M37.45,25.629h-5.086v1.602c0,0.801,0.651,1.452,1.451,1.452h4.523l1.285,1.478
		c0.096,0.109,0.23,0.169,0.369,0.169c0.063,0,0.128-0.013,0.188-0.038c0.195-0.082,0.315-0.279,0.3-0.489l-0.088-1.119h2.324
		c0.799,0,1.45-0.651,1.45-1.452v-5.734c0-0.801-0.651-1.451-1.45-1.451h-3.167v3.484C39.551,24.688,38.608,25.629,37.45,25.629z
		 M39.667,23.559v-2.535h3.051c0.26,0,0.472,0.213,0.472,0.473v5.734c0,0.262-0.212,0.474-0.472,0.474h-2.854
		c-0.137,0-0.267,0.058-0.359,0.157s-0.14,0.234-0.129,0.37l0.014,0.169l-0.459-0.527c-0.092-0.107-0.228-0.169-0.369-0.169h-4.746
		c-0.26,0-0.473-0.212-0.473-0.474v-1.527h4.18C38.705,25.704,39.667,24.743,39.667,23.559z"/>
	<path id="XMLID_26368_" fill="#FFFFFF" d="M19.792,23.53c0,1.158,0.942,2.1,2.1,2.1h5.645l-0.159,2.025
		c-0.02,0.242,0.12,0.469,0.344,0.563c0.071,0.03,0.145,0.045,0.218,0.045c0.16,0,0.316-0.068,0.425-0.194l2.119-2.438h1.881h5.086
		c1.158,0,2.101-0.941,2.101-2.1v-3.484v-4.895c0-1.158-0.942-2.101-2.101-2.101H21.891c-1.158,0-2.1,0.942-2.1,2.101V23.53z
		 M20.918,15.151c0-0.537,0.437-0.974,0.973-0.974H37.45c0.537,0,0.974,0.437,0.974,0.974v8.379c0,0.537-0.437,0.973-0.974,0.973
		h-7.224c-0.163,0-0.318,0.071-0.425,0.194l-1.167,1.343l0.073-0.929c0.012-0.157-0.042-0.312-0.147-0.427
		c-0.107-0.115-0.257-0.182-0.414-0.182h-6.254c-0.537,0-0.973-0.436-0.973-0.973V15.151z"/>
	<path id="XMLID_26364_" fill="#FFFFFF" d="M38.541,42.553L38.541,42.553c1.198,0,2.324-0.467,3.173-1.316
		c0.848-0.848,1.314-1.975,1.314-3.172c-0.001-2.473-2.014-4.486-4.487-4.486c-1.198,0-2.324,0.469-3.173,1.316
		c-0.256,0.258-0.473,0.541-0.658,0.844c0.021-0.201,0.03-0.406,0.03-0.611c-0.002-3.384-2.757-6.137-6.141-6.137
		c-1.638,0-3.18,0.64-4.34,1.801s-1.8,2.704-1.799,4.34c0.001,3.385,2.755,6.137,6.14,6.137h0.001c1.638,0,3.179-0.639,4.339-1.801
		c0.458-0.457,0.832-0.977,1.12-1.535c-0.001,0.045-0.006,0.09-0.006,0.137C34.055,40.541,36.067,42.553,38.541,42.553z
		 M36.291,35.816c0.603-0.602,1.401-0.934,2.25-0.934c1.754,0,3.183,1.428,3.183,3.182c0.001,0.85-0.33,1.648-0.934,2.25
		c-0.601,0.604-1.399,0.934-2.248,0.934h-0.001c-1.755,0-3.183-1.426-3.184-3.18C35.357,37.219,35.688,36.42,36.291,35.816z
		 M32.017,38.545c-0.913,0.916-2.126,1.42-3.416,1.42H28.6c-2.665,0-4.834-2.17-4.835-4.834c0-1.289,0.503-2.503,1.417-3.417
		c0.915-0.916,2.128-1.42,3.418-1.42c2.665,0,4.835,2.169,4.837,4.833C33.437,36.416,32.932,37.631,32.017,38.545z"/>
</g>
</svg>
