<?xml version="1.0" encoding="utf-8"?>
<!-- Generator: Adobe Illustrator 16.0.0, SVG Export Plug-In . SVG Version: 6.00 Build 0)  -->
<!DOCTYPE svg PUBLIC "-//W3C//DTD SVG 1.1//EN" "http://www.w3.org/Graphics/SVG/1.1/DTD/svg11.dtd">
<svg version="1.1" id="Layer_1" xmlns="http://www.w3.org/2000/svg" xmlns:xlink="http://www.w3.org/1999/xlink" x="0px" y="0px"
	 width="20.279px" height="16.48px" viewBox="0 0 20.279 16.48" enable-background="new 0 0 20.279 16.48" xml:space="preserve">
<path id="XMLID_1724_" fill="#FFFFFF" d="M0,14.611c1.841,1.18,4.028,1.869,6.378,1.869c7.725,0,12.088-6.524,11.825-12.377
	c0.813-0.586,1.519-1.318,2.076-2.152c-0.747,0.33-1.548,0.555-2.39,0.654c0.859-0.514,1.519-1.33,1.829-2.302
	c-0.804,0.477-1.694,0.823-2.642,1.011C16.317,0.505,15.237,0,14.04,0c-2.686,0-4.659,2.506-4.053,5.108
	C6.529,4.936,3.464,3.279,1.412,0.762C0.322,2.632,0.847,5.078,2.7,6.316C2.018,6.295,1.375,6.107,0.814,5.795
	c-0.044,1.929,1.337,3.73,3.337,4.133c-0.586,0.16-1.227,0.195-1.878,0.071c0.528,1.653,2.065,2.855,3.886,2.89
	C4.411,14.26,2.208,14.871,0,14.611z"/>
</svg>
