<?xml version="1.0" encoding="utf-8"?>
<!-- Generator: Adobe Illustrator 16.0.0, SVG Export Plug-In . SVG Version: 6.00 Build 0)  -->
<!DOCTYPE svg PUBLIC "-//W3C//DTD SVG 1.1//EN" "http://www.w3.org/Graphics/SVG/1.1/DTD/svg11.dtd">
<svg version="1.1" id="Layer_1" xmlns="http://www.w3.org/2000/svg" xmlns:xlink="http://www.w3.org/1999/xlink" x="0px" y="0px"
	 width="193.929px" height="144.499px" viewBox="0 0 193.929 144.499" enable-background="new 0 0 193.929 144.499"
	 xml:space="preserve">
<g>
	<g>
		<path fill="#272B32" d="M97.622,54.901c-5.553,0-10.068-4.516-10.068-10.069c0-5.553,4.516-10.069,10.068-10.069
			c5.554,0,10.072,4.516,10.072,10.069C107.694,50.385,103.176,54.901,97.622,54.901z M97.622,37.072c-4.278,0-7.76,3.481-7.76,7.76
			s3.481,7.76,7.76,7.76c4.28,0,7.763-3.481,7.763-7.76S101.902,37.072,97.622,37.072z"/>
		<circle fill="#272B32" cx="97.624" cy="44.832" r="3.576"/>
		<g>
			<path fill="#272B32" d="M107.083,44.652l-1.442-1.804l34.316-27.492c0.188-0.149,0.229-0.343,0.235-0.447
				c0.006-0.101-0.005-0.299-0.168-0.476l-11.071-11.92c-0.174-0.185-0.384-0.201-0.485-0.201c-0.107,0.005-0.313,0.041-0.471,0.237
				l-27.463,34.206l-1.799-1.447l27.463-34.207c0.536-0.667,1.335-1.066,2.189-1.096c0.832-0.061,1.678,0.309,2.257,0.936
				l11.072,11.922c0.555,0.595,0.838,1.402,0.777,2.214c-0.058,0.812-0.458,1.569-1.093,2.079L107.083,44.652z"/>
			<polygon fill="#272B32" points="134.192,21.696 121.857,7.911 123.58,6.374 135.915,20.158 			"/>
			
				<rect x="113.608" y="19.938" transform="matrix(0.6715 0.741 -0.741 0.6715 55.5978 -83.2253)" fill="#272B32" width="16.11" height="2.308"/>
			
				<rect x="108.074" y="26.864" transform="matrix(0.6697 0.7426 -0.7426 0.6697 58.743 -76.0483)" fill="#272B32" width="13.59" height="2.307"/>
			
				<rect x="102.198" y="33.755" transform="matrix(0.6641 0.7476 -0.7476 0.6641 62.4119 -69.0998)" fill="#272B32" width="11.821" height="2.309"/>
		</g>
		<g>
			<path fill="#272B32" d="M127.757,89.741c-0.07,0-0.143-0.005-0.212-0.009c-0.813-0.06-1.569-0.458-2.078-1.094L97.972,54.321
				l1.804-1.442l27.492,34.317c0.148,0.187,0.343,0.228,0.447,0.233c0.101,0.005,0.299-0.006,0.475-0.166l11.921-11.072
				c0.182-0.171,0.202-0.376,0.2-0.485c-0.005-0.107-0.041-0.313-0.237-0.47l-34.206-27.464l1.447-1.799l34.206,27.462
				c0.668,0.537,1.066,1.334,1.096,2.19c0.03,0.852-0.311,1.675-0.936,2.257l-11.922,11.072
				C129.216,89.458,128.498,89.741,127.757,89.741z"/>
			
				<rect x="127.435" y="66.875" transform="matrix(0.666 0.746 -0.746 0.666 99.7356 -70.496)" fill="#272B32" width="2.308" height="18.498"/>
			
				<rect x="120.377" y="60.847" transform="matrix(0.6721 0.7405 -0.7405 0.6721 90.8681 -67.3957)" fill="#272B32" width="2.307" height="16.11"/>
			
				<rect x="113.453" y="55.313" transform="matrix(0.6699 0.7425 -0.7425 0.6699 83.9465 -64.5881)" fill="#272B32" width="2.308" height="13.591"/>
			
				<rect x="106.559" y="49.439" transform="matrix(0.6639 0.7478 -0.7478 0.6639 77.5948 -61.9482)" fill="#272B32" width="2.309" height="11.819"/>
		</g>
		<g>
			<path fill="#272B32" d="M87.554,44.652L53.239,17.16c-0.636-0.51-1.037-1.27-1.096-2.081c-0.059-0.812,0.225-1.621,0.78-2.217
				l11.07-11.917c0.579-0.626,1.37-0.989,2.257-0.938c0.854,0.03,1.653,0.429,2.189,1.096l27.465,34.207l-1.8,1.447L66.64,2.55
				c-0.158-0.196-0.363-0.232-0.471-0.237c-0.092-0.006-0.311,0.016-0.485,0.203l-11.07,11.917
				c-0.165,0.178-0.175,0.375-0.168,0.476c0.009,0.104,0.05,0.298,0.236,0.447l34.315,27.492L87.554,44.652z"/>
			<polygon fill="#272B32" points="60.445,21.696 58.723,20.158 71.058,6.374 72.78,7.911 			"/>
			
				<rect x="71.819" y="13.037" transform="matrix(0.7404 0.6722 -0.6722 0.7404 33.126 -43.5774)" fill="#272B32" width="2.308" height="16.11"/>
			
				<rect x="78.614" y="21.223" transform="matrix(0.7424 0.67 -0.67 0.7424 39.3235 -46.2263)" fill="#272B32" width="2.308" height="13.589"/>
			
				<rect x="85.374" y="29" transform="matrix(0.7479 0.6638 -0.6638 0.7479 44.9847 -48.637)" fill="#272B32" width="2.31" height="11.82"/>
		</g>
		<g>
			<path fill="#272B32" d="M66.879,89.741c-0.739,0-1.458-0.282-2.002-0.786L52.959,77.882c-0.626-0.582-0.97-1.405-0.938-2.26
				c0.03-0.854,0.431-1.652,1.096-2.187l34.938-28.087l1.447,1.799L54.565,75.236c-0.196,0.156-0.232,0.362-0.237,0.468
				c-0.004,0.109,0.019,0.316,0.204,0.487l11.916,11.072c0.177,0.162,0.386,0.162,0.478,0.166c0.101-0.009,0.295-0.047,0.444-0.233
				l27.492-34.317l1.804,1.442L69.172,88.638c-0.508,0.634-1.265,1.032-2.076,1.094C67.024,89.736,66.951,89.741,66.879,89.741z"/>
			
				<rect x="56.799" y="74.97" transform="matrix(0.7452 0.6668 -0.6668 0.7452 67.5908 -24.6468)" fill="#272B32" width="18.498" height="2.309"/>
			
				<rect x="65.05" y="67.747" transform="matrix(0.7411 0.6714 -0.6714 0.7411 65.1932 -31.2445)" fill="#272B32" width="16.11" height="2.308"/>
			
				<rect x="73.235" y="60.955" transform="matrix(0.7425 0.6699 -0.6699 0.7425 62.212 -37.6152)" fill="#272B32" width="13.591" height="2.308"/>
			
				<rect x="81.013" y="54.194" transform="matrix(0.7478 0.6639 -0.6639 0.7478 58.6713 -43.7524)" fill="#272B32" width="11.821" height="2.309"/>
		</g>
		<path fill="#272B32" d="M110.421,72.041l-12.909-15.76L84.165,72.698c0,0-5.688,25.385-7.548,30.527c25.86,0,42.776,0,42.776,0
			L110.421,72.041z M91.498,86.615c0-6.17,2.106-13.995,6.471-13.995c4.364,0,6.922,7.475,6.922,13.995
			C96.965,89.625,91.498,86.615,91.498,86.615z"/>
	</g>
	<g>
		<g>
			<path fill="#66BD4A" d="M4.544,116.292c0.013-0.104,0.02-0.192,0.02-0.264c0-0.072,0-0.199,0-0.383
				c0-0.456-0.056-0.773-0.167-0.949c-0.111-0.177-0.356-0.265-0.734-0.265c-0.379,0-0.621,0.088-0.725,0.265
				c-0.104,0.176-0.156,0.493-0.156,0.949c0,0.432,0.055,0.735,0.167,0.911c0.11,0.176,0.29,0.336,0.539,0.479
				c0.287,0.17,0.558,0.313,0.813,0.432c0.255,0.117,0.49,0.225,0.705,0.322c0.215,0.099,0.421,0.193,0.617,0.284
				c0.196,0.092,0.392,0.203,0.587,0.333c0.208,0.157,0.395,0.323,0.558,0.5c0.163,0.176,0.294,0.404,0.392,0.686
				c0.098,0.28,0.173,0.626,0.225,1.037c0.052,0.412,0.079,0.924,0.079,1.538c0,0.888-0.062,1.625-0.186,2.213
				c-0.125,0.588-0.333,1.058-0.627,1.41c-0.293,0.353-0.692,0.604-1.194,0.754c-0.503,0.15-1.126,0.226-1.871,0.226
				c-1.228,0-2.128-0.232-2.703-0.695c-0.575-0.464-0.862-1.276-0.862-2.438c0-0.379,0.01-0.761,0.029-1.146
				c0.02-0.386,0.062-0.695,0.127-0.931h2.565c-0.026,0.078-0.039,0.163-0.039,0.255c0,0.091,0,0.189,0,0.294
				c0,0.574,0.059,0.969,0.176,1.185c0.118,0.216,0.372,0.323,0.764,0.323c0.392,0,0.649-0.095,0.774-0.284
				c0.124-0.189,0.186-0.598,0.186-1.224c0-0.379-0.059-0.666-0.176-0.862c-0.118-0.195-0.307-0.385-0.568-0.567
				c-0.235-0.157-0.487-0.301-0.754-0.432c-0.268-0.13-0.535-0.254-0.803-0.372c-0.268-0.117-0.526-0.244-0.773-0.382
				c-0.249-0.137-0.47-0.297-0.666-0.479c-0.405-0.353-0.65-0.836-0.734-1.449C0.042,116.952,0,116.155,0,115.175
				c0-0.691,0.055-1.276,0.167-1.753c0.111-0.477,0.304-0.861,0.578-1.155c0.274-0.294,0.646-0.506,1.116-0.637
				c0.47-0.13,1.071-0.195,1.802-0.195c0.666,0,1.224,0.052,1.674,0.156s0.819,0.284,1.106,0.539
				c0.287,0.254,0.493,0.591,0.617,1.008c0.124,0.418,0.186,0.94,0.186,1.567c0,0.404-0.01,0.725-0.029,0.959
				c-0.02,0.235-0.063,0.444-0.127,0.627H4.544z"/>
			<path fill="#66BD4A" d="M18.821,111.689h3.055v10.263c-0.013,0.614-0.039,1.123-0.079,1.527
				c-0.039,0.405-0.088,0.745-0.146,1.019c-0.059,0.274-0.127,0.5-0.206,0.676c-0.078,0.177-0.169,0.35-0.274,0.52
				c-0.131,0.209-0.284,0.382-0.46,0.519c-0.176,0.138-0.395,0.248-0.656,0.333c-0.262,0.085-0.568,0.144-0.921,0.177
				c-0.352,0.032-0.764,0.049-1.233,0.049c-0.954,0-1.678-0.075-2.174-0.226c-0.496-0.149-0.868-0.434-1.116-0.852
				c-0.104-0.17-0.203-0.343-0.294-0.52c-0.091-0.176-0.169-0.401-0.235-0.676c-0.065-0.273-0.114-0.613-0.147-1.019
				c-0.033-0.404-0.049-0.913-0.049-1.527v-10.263h3.153v10.263c0,0.353,0.01,0.627,0.029,0.822c0.02,0.196,0.062,0.347,0.127,0.451
				c0.065,0.104,0.156,0.17,0.274,0.195c0.118,0.026,0.274,0.039,0.47,0.039s0.349-0.013,0.46-0.039
				c0.111-0.025,0.199-0.091,0.265-0.195c0.065-0.104,0.107-0.255,0.127-0.451c0.02-0.195,0.029-0.47,0.029-0.822V111.689z"/>
			<path fill="#66BD4A" d="M32.785,116.292c0.013-0.104,0.02-0.192,0.02-0.264c0-0.072,0-0.199,0-0.383
				c0-0.456-0.056-0.773-0.167-0.949c-0.111-0.177-0.356-0.265-0.734-0.265c-0.379,0-0.621,0.088-0.725,0.265
				c-0.104,0.176-0.156,0.493-0.156,0.949c0,0.432,0.055,0.735,0.167,0.911c0.11,0.176,0.29,0.336,0.539,0.479
				c0.287,0.17,0.558,0.313,0.813,0.432c0.255,0.117,0.49,0.225,0.705,0.322c0.215,0.099,0.421,0.193,0.617,0.284
				c0.196,0.092,0.392,0.203,0.587,0.333c0.208,0.157,0.395,0.323,0.558,0.5c0.163,0.176,0.294,0.404,0.392,0.686
				c0.098,0.28,0.173,0.626,0.225,1.037c0.052,0.412,0.079,0.924,0.079,1.538c0,0.888-0.062,1.625-0.186,2.213
				c-0.125,0.588-0.333,1.058-0.627,1.41c-0.293,0.353-0.692,0.604-1.194,0.754c-0.503,0.15-1.126,0.226-1.871,0.226
				c-1.228,0-2.128-0.232-2.703-0.695c-0.575-0.464-0.862-1.276-0.862-2.438c0-0.379,0.01-0.761,0.029-1.146
				c0.02-0.386,0.062-0.695,0.127-0.931h2.565c-0.026,0.078-0.039,0.163-0.039,0.255c0,0.091,0,0.189,0,0.294
				c0,0.574,0.059,0.969,0.176,1.185c0.118,0.216,0.372,0.323,0.764,0.323c0.392,0,0.649-0.095,0.774-0.284
				c0.124-0.189,0.186-0.598,0.186-1.224c0-0.379-0.059-0.666-0.176-0.862c-0.118-0.195-0.307-0.385-0.568-0.567
				c-0.235-0.157-0.487-0.301-0.754-0.432c-0.268-0.13-0.535-0.254-0.803-0.372c-0.268-0.117-0.526-0.244-0.773-0.382
				c-0.249-0.137-0.47-0.297-0.666-0.479c-0.405-0.353-0.65-0.836-0.734-1.449c-0.085-0.613-0.127-1.41-0.127-2.39
				c0-0.691,0.055-1.276,0.167-1.753c0.111-0.477,0.304-0.861,0.578-1.155c0.274-0.294,0.646-0.506,1.116-0.637
				c0.47-0.13,1.071-0.195,1.802-0.195c0.666,0,1.224,0.052,1.674,0.156s0.819,0.284,1.106,0.539
				c0.287,0.254,0.493,0.591,0.617,1.008c0.124,0.418,0.186,0.94,0.186,1.567c0,0.404-0.01,0.725-0.029,0.959
				c-0.02,0.235-0.063,0.444-0.127,0.627H32.785z"/>
			<path fill="#66BD4A" d="M43.988,126.515v-11.692h-2.331v-3.134h7.736v3.134h-2.331v11.692H43.988z"/>
			<path fill="#66BD4A" d="M59.578,126.515l-0.255-3.428h-1.488l-0.235,3.428h-3.095l1.586-14.826h5.17l1.489,14.826H59.578z
				 M58.677,114.784h-0.215l-0.49,5.308h1.214L58.677,114.784z"/>
			<path fill="#66BD4A" d="M69.174,126.515v-14.826h3.153v14.826H69.174z"/>
			<path fill="#66BD4A" d="M85.586,126.515l-3.506-7.951h-0.118v7.951h-2.8v-14.826h3.016l2.076,5.151h0.118v-5.151h2.82v14.826
				H85.586z"/>
			<path fill="#66BD4A" d="M98.61,126.515l-0.255-3.428h-1.488l-0.235,3.428h-3.095l1.586-14.826h5.17l1.489,14.826H98.61z
				 M97.709,114.784h-0.215l-0.49,5.308h1.214L97.709,114.784z"/>
			<path fill="#66BD4A" d="M108.167,126.515v-14.826h4.406c0.666,0,1.218,0.075,1.655,0.226s0.79,0.385,1.058,0.705
				s0.457,0.731,0.567,1.233c0.111,0.503,0.167,1.113,0.167,1.832c0,0.535-0.017,0.973-0.049,1.312
				c-0.033,0.34-0.092,0.62-0.177,0.843c-0.085,0.222-0.192,0.404-0.323,0.548c-0.13,0.144-0.293,0.281-0.489,0.411v0.138
				c0.196,0.117,0.369,0.229,0.519,0.333c0.15,0.104,0.281,0.271,0.393,0.499c0.11,0.229,0.192,0.555,0.244,0.979
				c0.053,0.424,0.079,1.016,0.079,1.772c0,0.718-0.053,1.328-0.157,1.831s-0.284,0.914-0.538,1.233
				c-0.255,0.32-0.598,0.556-1.028,0.705c-0.432,0.15-0.979,0.226-1.646,0.226H108.167z M112.143,117.78
				c0.3,0,0.506-0.117,0.617-0.353c0.11-0.234,0.166-0.685,0.166-1.351c0-0.588-0.068-0.977-0.205-1.166
				c-0.138-0.188-0.356-0.283-0.656-0.283h-0.822v3.152H112.143z M112.221,123.519c0.301,0,0.52-0.092,0.656-0.274
				s0.206-0.562,0.206-1.136c0-0.679-0.059-1.162-0.177-1.449c-0.117-0.287-0.32-0.432-0.607-0.432h-1.057v3.291H112.221z"/>
			<path fill="#66BD4A" d="M122.66,126.515v-14.826h3.075v11.536h3.172v3.29H122.66z"/>
			<path fill="#66BD4A" d="M135.312,126.515v-14.826h6.561v3.134h-3.485v2.604h3.427v2.997h-3.427v2.801h3.466v3.29H135.312z"/>
			<path fill="#EC5442" d="M157.952,126.515v-14.826h4.132c0.94,0,1.658,0.089,2.155,0.265c0.496,0.177,0.874,0.479,1.136,0.911
				c0.13,0.222,0.238,0.46,0.323,0.715c0.084,0.254,0.156,0.604,0.215,1.048c0.059,0.443,0.102,1.018,0.128,1.723
				c0.025,0.705,0.039,1.619,0.039,2.742s-0.014,2.04-0.039,2.752c-0.026,0.712-0.069,1.289-0.128,1.733
				c-0.059,0.443-0.131,0.796-0.215,1.058c-0.085,0.261-0.193,0.496-0.323,0.705c-0.131,0.222-0.288,0.408-0.471,0.558
				c-0.183,0.15-0.404,0.271-0.665,0.362c-0.262,0.092-0.568,0.157-0.921,0.196s-0.764,0.059-1.234,0.059H157.952z M162.005,123.245
				c0.248,0,0.425-0.026,0.529-0.078c0.104-0.053,0.183-0.144,0.234-0.274c0.026-0.092,0.053-0.199,0.079-0.323
				c0.025-0.124,0.045-0.323,0.059-0.598c0.013-0.274,0.022-0.643,0.029-1.106c0.006-0.463,0.01-1.073,0.01-1.831
				c0-0.757-0.004-1.374-0.01-1.851c-0.007-0.477-0.017-0.853-0.029-1.126c-0.014-0.274-0.033-0.477-0.059-0.607
				c-0.026-0.131-0.053-0.241-0.079-0.333c-0.052-0.104-0.13-0.183-0.234-0.235c-0.104-0.052-0.281-0.078-0.529-0.078h-0.979v8.441
				H162.005z"/>
			<path fill="#EC5442" d="M172.66,126.515v-14.826h6.561v3.134h-3.485v2.604h3.427v2.997h-3.427v2.801h3.466v3.29H172.66z"/>
			<path fill="#EC5442" d="M187.271,126.515l-1.763-14.826h3.329l0.822,10.439h0.216l0.783-10.439h3.271l-1.86,14.826H187.271z"/>
		</g>
	</g>
	<g>
		<g>
			<path fill="#272B32" d="M79.508,144.499v-9.72h3.004v1.155h-1.875v3.056h1.849v1.104h-1.849v3.197H82.5v1.207H79.508z"/>
			<path fill="#272B32" d="M88.458,144.499l-1.014-9.72h1.22c0.094,1.164,0.178,2.163,0.25,2.998
				c0.072,0.835,0.132,1.543,0.18,2.125c0.047,0.582,0.087,1.055,0.122,1.419c0.034,0.364,0.06,0.659,0.077,0.886
				s0.028,0.404,0.032,0.533c0.004,0.128,0.011,0.244,0.02,0.347h0.09c0-0.103,0.004-0.219,0.013-0.347
				c0.008-0.129,0.023-0.307,0.045-0.533s0.047-0.521,0.077-0.886c0.03-0.364,0.068-0.837,0.115-1.419
				c0.047-0.582,0.107-1.29,0.18-2.125c0.072-0.835,0.156-1.834,0.25-2.998h1.194l-1.053,9.72H88.458z"/>
			<path fill="#272B32" d="M96.329,144.499v-9.72h3.004v1.155h-1.875v3.056h1.849v1.104h-1.849v3.197h1.862v1.207H96.329z"/>
			<path fill="#272B32" d="M107.563,144.499c-0.282-0.941-0.526-1.75-0.731-2.427c-0.205-0.676-0.379-1.25-0.521-1.721
				c-0.141-0.471-0.254-0.855-0.34-1.155s-0.156-0.544-0.212-0.732c-0.056-0.188-0.099-0.336-0.128-0.442
				c-0.03-0.107-0.053-0.203-0.07-0.289h-0.064c0.008,0.274,0.013,0.561,0.013,0.86s0,0.629,0,0.988v4.918h-1.04v-9.72h1.31
				c0.188,0.719,0.351,1.333,0.487,1.843c0.138,0.509,0.251,0.937,0.341,1.283s0.162,0.625,0.218,0.835s0.099,0.377,0.129,0.501
				s0.051,0.218,0.064,0.282c0.013,0.064,0.023,0.122,0.032,0.174h0.063c-0.009-0.163-0.013-0.33-0.013-0.501s0-0.402,0-0.693
				v-3.724h1.053v9.72H107.563z"/>
			<path fill="#272B32" d="M114.292,144.499v-8.564h-1.207v-1.155h3.544v1.155h-1.194v8.564H114.292z"/>
		</g>
	</g>
	<polygon fill="#272B32" points="78.283,101.046 44.299,103.225 78.37,103.225 	"/>
	<polygon fill="#272B32" points="118.192,101.046 152.176,103.225 118.106,103.225 	"/>
	
		<line fill="none" stroke="#272B32" stroke-width="1.0016" stroke-miterlimit="10" x1="129.913" y1="139.207" x2="155.719" y2="139.207"/>
	
		<line fill="none" stroke="#272B32" stroke-width="1.0016" stroke-miterlimit="10" x1="42.563" y1="139.207" x2="68.37" y2="139.207"/>
</g>
</svg>
