<?xml version="1.0" encoding="utf-8"?>
<!-- Generator: Adobe Illustrator 16.0.0, SVG Export Plug-In . SVG Version: 6.00 Build 0)  -->
<!DOCTYPE svg PUBLIC "-//W3C//DTD SVG 1.1//EN" "http://www.w3.org/Graphics/SVG/1.1/DTD/svg11.dtd">
<svg version="1.1" id="Layer_1" xmlns="http://www.w3.org/2000/svg" xmlns:xlink="http://www.w3.org/1999/xlink" x="0px" y="0px"
	 width="44.619px" height="57.71px" viewBox="78.005 0.642 44.619 57.71" enable-background="new 78.005 0.642 44.619 57.71"
	 xml:space="preserve">
<g id="TESLA" transform="translate(-28.524,-64.797)">
	<g id="g8">
		<polyline id="polyline10" fill="#707070" points="144.649,119.632 144.649,123.142 145.773,123.142 145.773,120.806 
			149.868,120.806 149.868,123.142 150.993,123.142 150.993,119.64 144.649,119.632 		"/>
		<path id="path12" fill="#707070" d="M145.648,118.5h4.326c0.602-0.121,1.048-0.65,1.174-1.164h-6.674
			C144.599,117.849,145.052,118.379,145.648,118.5"/>
	</g>
	<g id="g14">
		<path id="path16" fill="#707070" d="M141.241,123.144c0.567-0.24,0.872-0.657,0.989-1.145h-5.046l0.003-4.662l-1.131,0.004v5.802
			L141.241,123.144"/>
	</g>
	<g id="g18">
		<path id="path20" fill="#707070" d="M127.644,118.483h3.995c0.603-0.175,1.106-0.634,1.231-1.144h-6.348v3.43h5.195v1.203
			l-4.075,0.004c-0.64,0.178-1.181,0.607-1.45,1.173l0.33-0.007h6.313v-3.514h-5.191V118.483"/>
	</g>
	<g id="g22">
		<path id="path24" fill="#707070" d="M117.781,118.493h4.324c0.602-0.118,1.05-0.649,1.175-1.163h-6.674
			C116.731,117.843,117.184,118.375,117.781,118.493"/>
		<path id="path26" fill="#707070" d="M117.781,120.787h4.324c0.602-0.117,1.05-0.648,1.175-1.162h-6.674
			C116.731,120.138,117.184,120.67,117.781,120.787"/>
		<path id="path28" fill="#707070" d="M117.781,123.143h4.324c0.602-0.119,1.05-0.649,1.175-1.163h-6.674
			C116.731,122.494,117.184,123.024,117.781,123.143"/>
	</g>
	<g id="g30">
		<path id="path32" fill="#707070" d="M106.529,117.345c0.131,0.507,0.569,1.025,1.172,1.154h1.82l0.093,0.037v4.594h1.138v-4.594
			l0.104-0.037h1.822c0.607-0.156,1.037-0.646,1.166-1.154v-0.012h-7.313L106.529,117.345"/>
	</g>
</g>
<g id="T" transform="translate(-33.796,-64.797)">
	<path id="path35" fill="#707070" d="M134.113,105.867l5.68-31.946c5.414,0,7.122,0.594,7.368,3.017c0,0,3.633-1.354,5.465-4.105
		c-7.149-3.313-14.332-3.462-14.332-3.462l-4.19,5.105h0.01l-4.19-5.105c0,0-7.183,0.149-14.329,3.462
		c1.83,2.75,5.463,4.104,5.463,4.104c0.248-2.423,1.954-3.017,7.331-3.021L134.113,105.867"/>
	<path id="path37" fill="#707070" d="M134.109,67.898c5.778-0.044,12.394,0.895,19.164,3.845c0.904-1.629,1.139-2.349,1.139-2.349
		c-7.402-2.928-14.334-3.93-20.303-3.955c-5.969,0.025-12.899,1.027-20.301,3.955c0,0,0.33,0.887,1.137,2.349
		C121.716,68.792,128.331,67.854,134.109,67.898L134.109,67.898"/>
</g>
</svg>
