<?xml version="1.0" encoding="utf-8"?>
<!-- Generator: Adobe Illustrator 16.0.0, SVG Export Plug-In . SVG Version: 6.00 Build 0)  -->
<!DOCTYPE svg PUBLIC "-//W3C//DTD SVG 1.1//EN" "http://www.w3.org/Graphics/SVG/1.1/DTD/svg11.dtd">
<svg version="1.1" id="Layer_1" xmlns="http://www.w3.org/2000/svg" xmlns:xlink="http://www.w3.org/1999/xlink" x="0px" y="0px"
	 width="149.864px" height="44.62px" viewBox="25.489 7.688 149.864 44.62" enable-background="new 25.489 7.688 149.864 44.62"
	 xml:space="preserve">
<path fill="#CDCDCD" d="M25.489,7.688v44.62h30.729V7.688H25.489z M51.773,47.813H29.917V12.182h21.855L51.773,47.813L51.773,47.813
	z"/>
<path fill="#636363" d="M74.529,23.244h-0.042c-2.452-3.993-4.926-7.52-7.423-11.07H65.16v15.53h2.102V16.566h0.021
	c2.476,4.016,4.949,7.566,7.446,11.138h1.905v-15.53H74.53L74.529,23.244L74.529,23.244z M89.703,27.704l-4.883-15.53h-2.188
	l-5.299,15.53h2.276l1.336-4.238h4.619l1.205,4.238H89.703z M81.623,21.557c0.613-2.041,1.227-3.924,1.773-6.323h0.045
	c0.613,2.398,1.16,4.282,1.729,6.323H81.623z M92.176,27.704h2.627V14.26h4.03v-2.086H88.148v2.086h4.028L92.176,27.704
	L92.176,27.704z M102.291,12.174h-2.605v15.53h2.605V12.174z M110.393,27.969c4.008,0,6.504-3.614,6.504-8.253
	c0-4.348-2.76-7.81-6.504-7.81s-6.504,3.462-6.504,7.81C103.889,24.354,106.385,27.969,110.393,27.969z M110.393,14.126
	c2.606,0,3.7,2.728,3.7,5.591c0,2.972-0.962,6.034-3.7,6.034c-2.736,0-3.699-3.061-3.699-6.034
	C106.693,16.854,107.788,14.126,110.393,14.126z M120.596,16.566h0.022c2.474,4.016,4.948,7.566,7.444,11.138h1.904v-15.53h-2.103
	v11.07h-0.044c-2.451-3.993-4.926-7.52-7.422-11.07h-1.904v15.53h2.102V16.566z M134.277,23.466h4.621l1.205,4.238h2.933
	l-4.882-15.53h-2.188l-5.3,15.53h2.279L134.277,23.466z M136.732,15.234h0.043c0.613,2.398,1.16,4.282,1.73,6.323h-3.55
	C135.57,19.516,136.184,17.632,136.732,15.234z M151.596,25.617h-5.188V12.174h-2.607v15.53h7.797v-2.087H151.596z M72.387,45.466
	c-0.548,0.289-1.138,0.379-1.839,0.379c-2.254,0-4.444-2.176-4.444-5.857c0-3.527,1.905-5.77,4.708-5.77
	c1.007,0,2.102,0.377,2.802,0.82l0.853-1.84C73.592,32.532,72.168,32,70.745,32c-4.597,0-7.443,3.705-7.443,7.94
	c0,4.57,2.847,8.121,7.355,8.121c1.489,0,2.957-0.396,4.359-0.953v-6.414h-2.629V45.466L72.387,45.466z M80.027,40.696h4.291v-2.084
	h-4.291v-4.26h4.38v-2.084H77.4v15.529h7.795V45.71h-5.168V40.696z M92.509,32c-3.745,0-6.502,3.46-6.502,7.81
	c0,4.638,2.496,8.254,6.502,8.254c4.007,0,6.502-3.616,6.502-8.254C99.011,35.461,96.252,32,92.509,32z M92.509,45.844
	c-2.737,0-3.7-3.063-3.7-6.034c0-2.863,1.094-5.593,3.7-5.593c2.605,0,3.699,2.728,3.699,5.593
	C96.208,42.782,95.246,45.844,92.509,45.844z M108.996,45.466c-0.546,0.289-1.141,0.379-1.839,0.379
	c-2.257,0-4.445-2.176-4.445-5.857c0-3.527,1.905-5.77,4.708-5.77c1.007,0,2.102,0.377,2.801,0.82l0.854-1.84
	c-0.875-0.667-2.3-1.198-3.724-1.198c-4.595,0-7.441,3.705-7.441,7.94c0,4.57,2.847,8.121,7.357,8.121
	c1.486,0,2.953-0.396,4.355-0.953v-6.414h-2.627V45.466L108.996,45.466z M122.876,36.749c0-3.02-1.817-4.482-4.75-4.482h-4.095
	v15.53h2.627V41.94h1.181l2.476,5.856h2.998l-3.084-6.435C121.911,40.452,122.876,38.612,122.876,36.749z M117.752,39.942
	c-0.264,0.022-0.877,0.045-1.095,0.067v-5.657h1.163c1.552,0,2.427,0.908,2.427,2.506C120.247,38.944,119.001,39.877,117.752,39.942
	z M128.656,32.267l-5.299,15.53h2.274l1.337-4.239h4.62l1.207,4.239h2.933l-4.883-15.53H128.656z M127.65,41.653
	c0.613-2.045,1.225-3.93,1.772-6.325h0.044c0.613,2.396,1.159,4.28,1.731,6.325H127.65z M154.952,38.235H149.5v-5.969h-2.605v15.53
	h2.605v-7.478h5.452v7.478h2.626V32.31h-2.626V38.235z M160.096,47.796h2.604V32.267h-2.604V47.796z M171.896,45.844
	c-2.539,0-4.688-2.175-4.688-5.856c0-3.528,1.95-5.771,4.62-5.771c1.008,0,2.06,0.466,2.692,0.865l0.832-1.884
	c-0.896-0.622-2.166-1.2-3.523-1.2c-4.576,0-7.4,3.706-7.4,7.942c0,4.569,2.846,8.121,7.357,8.121c1.27,0,2.671-0.511,3.458-1.064
	l-0.722-1.932C173.848,45.511,172.904,45.844,171.896,45.844z M140.652,32.267h-4.092v15.53h2.629V41.94h1.181
	c3.134,0,5.037-2.576,5.037-5.191C145.404,33.729,143.59,32.267,140.652,32.267z M140.283,39.942
	c-0.264,0.021-0.896,0.041-1.094,0.063v-5.653h1.18c1.535,0,2.41,0.908,2.41,2.506C142.777,38.944,141.529,39.877,140.283,39.942z"
	/>
</svg>
