<?xml version="1.0" encoding="utf-8"?>
<!-- Generator: Adobe Illustrator 16.0.0, SVG Export Plug-In . SVG Version: 6.00 Build 0)  -->
<!DOCTYPE svg PUBLIC "-//W3C//DTD SVG 1.1//EN" "http://www.w3.org/Graphics/SVG/1.1/DTD/svg11.dtd">
<svg version="1.1"
	 id="Layer_1" sodipodi:docname="Flag_of_the_United_Nations.svg" xmlns:sodipodi="http://sodipodi.sourceforge.net/DTD/sodipodi-0.dtd"
	 xmlns="http://www.w3.org/2000/svg" xmlns:xlink="http://www.w3.org/1999/xlink" x="0px" y="0px" width="52.563px"
	 height="44.619px" viewBox="73.786 7.556 52.563 44.619" enable-background="new 73.786 7.556 52.563 44.619" xml:space="preserve"
	>
<g id="g3320" transform="translate(1.889225,-2.1891937)">
	<g>
		<g>
			<g>
				<g>
					<path fill="#808080" d="M76.136,37.004l0.136,0.112c-0.147-1.014-0.226-2.119,0.067-3.089c0.439-1.555,0.992-3.066,1.274-4.678
						c0.225-1.251,0.483-2.661,0.338-3.867c-0.169,0.654-0.338,1.296-0.698,1.86c-1.364,2.108-2.763,4.588-1.805,7.271
						c-0.022,0.033-0.056,0.067-0.09,0.045c-0.383-0.891-0.474-1.894-0.722-2.84c-0.665-2.515-2.593-4.622-2.028-7.531
						c-0.305,0.631-0.417,1.341-0.575,2.029c-0.339,1.781,0,3.664,0.484,5.31C73.114,33.666,75.11,35.132,76.136,37.004z"/>
					<path fill="#808080" d="M75.617,23.949c0.451-0.924,1.184-1.804,2.063-2.457c1.938-1.466,4.058-3.36,4.092-5.84
						c-0.654,1.781-2.604,2.525-3.9,3.743c-0.688,0.643-1.219,1.42-1.522,2.232l-0.045-0.034c0.158-0.721,0.462-1.364,0.676-2.063
						c0.564-1.894,0.463-4.16,2.312-5.434c-0.947,0.248-1.747,0.856-2.457,1.646l0,0c-1.5,1.657-1.364,4.104-1.173,6.268
						C75.73,22.686,75.695,23.261,75.617,23.949z"/>
					<path fill="#808080" d="M77.872,18.549c1.036-0.969,2.231-1.691,3.111-2.84c1.048-1.387,1.962-2.942,3.336-4.137
						c-1.86,0.721-3.866,1.466-5.072,3.382C78.537,16.069,78.425,17.387,77.872,18.549z"/>
					<path fill="#808080" d="M78.649,23.452c0.451-0.913,0.733-1.95,0.857-2.954c-0.169,0.428-0.429,0.823-0.79,1.161
						c-1.511,1.432-3.28,2.83-3.618,4.859c-0.046,0.293-0.079,0.586-0.157,0.868c-0.068,0.034-0.068-0.045-0.091-0.068l0.191-2.502
						c0.181-2.446-1.104-5.163,0.305-7.316c-0.046-0.011-0.079,0.034-0.112,0.045c-1.285,1.634-2.143,3.438-2.143,5.636
						c0,2.717,1.566,4.623,1.759,7.17C75.257,27.691,77.489,25.798,78.649,23.452z"/>
					<path fill="#808080" d="M75.662,40.148c1.455,1.15,3.19,2.041,4.521,3.056c-0.259-0.666-0.688-1.274-0.856-1.962
						c-0.777-3.145-0.35-6.798-1.691-9.706c0.248,1.657-0.405,3.123-0.553,4.701c-0.124,1.296,0.102,2.559,0.609,3.642
						c0.146,0.327,0.417,0.608,0.496,0.947c-0.485-0.441-0.834-0.993-1.161-1.534c-1.567-2.536-4.848-4.182-5.073-7.271l0,0
						c-0.112,1.375,0.011,2.83,0.462,4.047C73.035,37.736,74.253,39.032,75.662,40.148z"/>
					<path fill="#808080" d="M95.435,48.479c-2.536,0-4.813,1.228-7.035,2.152c-2.018,0.835-4.688,0.677-6.481-0.563
						c0.879,1.105,2.063,1.792,3.291,2.255c2.267,0.901,4.915,0.213,6.854-1.027c1.387-0.891,2.582-2.152,4.238-2.152
						c2.673,0,5.48,2.739,7.88,5.22c0.372-0.305,0.768-0.62,1.072-0.97C102.74,51.005,99.189,48.479,95.435,48.479z"/>
					<path fill="#808080" d="M90.903,48.75c0.395-0.102,0.868-0.068,1.229-0.204c-1.511-0.304-2.965-0.767-4.138-1.837
						c-1.68-1.533-3.167-3.167-4.96-4.362c1.409,1.893,1.804,4.644,4.374,5.603c0.451,0.168,0.98,0.203,1.376,0.451
						c-0.496,0.079-0.925-0.079-1.387-0.181c-3.314-0.71-7.35,0.203-9.83-2.615c0.935,1.849,2.874,3.303,4.745,3.912
						C85.187,50.485,88.198,49.415,90.903,48.75z"/>
					<path fill="#808080" d="M85.357,47.363c-2.153-1.735-2.479-4.34-3.438-6.617c-0.597-1.421-1.566-2.694-2.604-3.935
						c1.139,2.277,0.644,5.208,2.12,7.35c0.463,0.676,1.104,1.319,1.703,1.849l-0.023,0.033c-0.541-0.248-1.026-0.632-1.521-1.037
						c-2.582-2.154-6.471-2.424-8.016-5.93l0,0c0.417,2.571,2.458,4.847,4.667,6.291C80.341,46.743,83.034,46.597,85.357,47.363z"/>
				</g>
				<g>
					<path fill="#808080" d="M115.355,15.708c0.879,1.161,2.074,1.871,3.11,2.84c-0.553-1.161-0.665-2.48-1.362-3.596
						c-1.208-1.917-3.214-2.661-5.074-3.382C113.383,12.766,114.295,14.31,115.355,15.708z"/>
					<path fill="#808080" d="M119.357,19.53c0.202,0.688,0.507,1.341,0.675,2.063l-0.045,0.034
						c-0.303-0.812-0.834-1.589-1.521-2.232c-1.296-1.229-3.246-1.961-3.888-3.754c0.032,2.492,2.152,4.385,4.092,5.84
						c0.868,0.654,1.611,1.533,2.063,2.458c-0.08-0.688-0.113-1.262-0.046-1.927c0.202-2.176,0.327-4.611-1.161-6.269l0,0
						c-0.71-0.789-1.511-1.409-2.457-1.646C118.894,15.37,118.794,17.636,119.357,19.53z"/>
					<path fill="#808080" d="M121.296,24.805l0.192,2.502c-0.023,0.022-0.023,0.09-0.09,0.068c-0.08-0.282-0.113-0.575-0.158-0.868
						c-0.339-2.018-2.12-3.427-3.619-4.859c-0.36-0.338-0.62-0.733-0.789-1.161c0.124,1.003,0.406,2.041,0.857,2.954
						c1.16,2.345,3.392,4.238,3.799,6.91c0.191-2.559,1.758-4.452,1.758-7.17c0-2.198-0.856-4.002-2.142-5.636
						c-0.034-0.022-0.068-0.056-0.113-0.045C122.4,19.654,121.104,22.37,121.296,24.805z"/>
					<path fill="#808080" d="M121.701,31.806c-0.247,0.947-0.338,1.961-0.721,2.84c-0.034,0.023-0.068-0.022-0.091-0.045
						c0.959-2.683-0.439-5.152-1.804-7.271c-0.36-0.552-0.529-1.206-0.697-1.86c-0.147,1.218,0.111,2.616,0.337,3.867
						c0.294,1.612,0.834,3.122,1.274,4.678c0.293,0.97,0.214,2.063,0.068,3.088l0.135-0.112c1.015-1.872,3.021-3.336,3.631-5.389
						c0.483-1.634,0.822-3.529,0.483-5.31l0,0c-0.158-0.688-0.282-1.398-0.574-2.029C124.295,27.184,122.367,29.292,121.701,31.806z
						"/>
					<path fill="#808080" d="M107.926,50.632c-2.231-0.924-4.497-2.152-7.034-2.152c-3.743,0-7.305,2.536-9.797,4.915
						c0.305,0.35,0.699,0.676,1.071,0.97c2.39-2.469,5.208-5.22,7.88-5.22c1.656,0,2.852,1.262,4.238,2.152
						c1.928,1.229,4.577,1.929,6.854,1.027c1.218-0.463,2.4-1.15,3.292-2.255C112.628,51.297,109.944,51.467,107.926,50.632z"/>
					<path fill="#808080" d="M124.396,31.998L124.396,31.998L124.396,31.998z"/>
					<path fill="#808080" d="M119.323,39.269c-0.338,0.541-0.677,1.104-1.16,1.533c0.078-0.326,0.348-0.62,0.495-0.947
						c0.507-1.093,0.732-2.344,0.608-3.641c-0.157-1.578-0.812-3.043-0.552-4.701c-1.354,2.908-0.914,6.561-1.69,9.707
						c-0.17,0.699-0.599,1.307-0.858,1.961c1.331-1.015,3.067-1.905,4.521-3.055c1.409-1.105,2.627-2.413,3.269-4.104
						c0.462-1.218,0.575-2.671,0.462-4.047C124.182,35.086,120.89,36.732,119.323,39.269z"/>
					<path fill="#808080" d="M114.725,45.007c-0.496,0.405-0.981,0.789-1.522,1.038l-0.022-0.034
						c0.598-0.541,1.24-1.184,1.702-1.849c1.477-2.142,0.981-5.084,2.119-7.35c-1.037,1.241-2.007,2.514-2.604,3.934
						c-0.957,2.277-1.285,4.882-3.438,6.617c2.321-0.766,5.018-0.62,7.102-1.983c2.198-1.443,4.239-3.721,4.668-6.292
						C121.195,42.583,117.316,42.854,114.725,45.007z"/>
					<path fill="#808080" d="M122.739,39.077L122.739,39.077L122.739,39.077z"/>
					<path fill="#808080" d="M108.94,48.231c-0.462,0.101-0.89,0.248-1.386,0.18c0.395-0.248,0.912-0.282,1.375-0.451
						c2.57-0.969,2.965-3.721,4.374-5.603c-1.793,1.195-3.28,2.829-4.96,4.363c-1.173,1.071-2.627,1.522-4.138,1.837
						c0.361,0.135,0.834,0.102,1.229,0.203c2.717,0.677,5.716,1.736,8.601,0.778c1.859-0.62,3.8-2.074,4.747-3.911
						C116.291,48.434,112.243,47.532,108.94,48.231z"/>
				</g>
			</g>
			<path fill="#808080" d="M98.164,9.745c-10.259,0-18.602,8.342-18.602,18.6c0,10.259,8.343,18.601,18.602,18.601
				s18.601-8.342,18.601-18.601C116.764,18.087,108.423,9.745,98.164,9.745z M98.164,31.896c-1.962,0-3.552-1.589-3.552-3.551
				c0-1.961,1.59-3.551,3.552-3.551c1.961,0,3.551,1.59,3.551,3.551C101.715,30.307,100.125,31.896,98.164,31.896z M100.835,25.358
				c-0.654-0.586-1.499-0.958-2.436-1.015V21.3c1.771,0.057,3.383,0.767,4.588,1.905L100.835,25.358z M97.937,24.343
				c-0.935,0.057-1.78,0.428-2.435,1.015l-2.153-2.153c1.206-1.139,2.818-1.849,4.588-1.906V24.343L97.937,24.343z M95.187,25.685
				c-0.587,0.654-0.959,1.499-1.015,2.435h-3.044c0.057-1.77,0.767-3.382,1.905-4.588L95.187,25.685z M94.173,28.571
				c0.056,0.936,0.428,1.781,1.015,2.435l-2.153,2.153c-1.14-1.206-1.85-2.818-1.905-4.588H94.173L94.173,28.571z M95.503,31.333
				c0.654,0.586,1.499,0.958,2.435,1.015v3.043c-1.77-0.056-3.382-0.766-4.588-1.906L95.503,31.333z M98.39,32.336
				c0.936-0.056,1.78-0.428,2.435-1.014l2.153,2.153c-1.207,1.139-2.818,1.849-4.588,1.905V32.336z M101.15,31.006
				c0.586-0.654,0.959-1.499,1.015-2.435h3.044c-0.057,1.77-0.767,3.382-1.905,4.588L101.15,31.006z M102.165,28.12
				c-0.056-0.936-0.429-1.781-1.015-2.435l2.154-2.153c1.139,1.206,1.849,2.818,1.905,4.588L102.165,28.12L102.165,28.12z
				 M103.305,22.889c-1.298-1.218-3.011-1.984-4.915-2.04v-3.382c2.828,0.057,5.398,1.207,7.305,3.033L103.305,22.889z
				 M97.937,20.849c-1.893,0.056-3.618,0.822-4.914,2.04l-2.391-2.39c1.905-1.826,4.476-2.976,7.305-3.033V20.849L97.937,20.849z
				 M92.707,23.205c-1.218,1.296-1.984,3.009-2.04,4.915h-3.383c0.057-2.83,1.207-5.4,3.033-7.306L92.707,23.205z M90.678,28.571
				c0.057,1.894,0.823,3.619,2.041,4.915l-2.401,2.391c-1.826-1.905-2.976-4.476-3.032-7.305H90.678z M93.034,33.802
				c1.297,1.218,3.011,1.984,4.915,2.041v3.382c-2.829-0.057-5.399-1.207-7.305-3.033L93.034,33.802z M98.39,35.83
				c1.893-0.057,3.617-0.823,4.915-2.041l2.39,2.391c-1.906,1.826-4.476,2.976-7.305,3.033V35.83z M103.62,33.474
				c1.218-1.296,1.983-3.01,2.04-4.915h3.383c-0.058,2.83-1.207,5.4-3.033,7.305L103.62,33.474z M105.66,28.12
				c-0.057-1.894-0.822-3.619-2.04-4.915l2.39-2.391c1.826,1.906,2.976,4.476,3.033,7.306L105.66,28.12L105.66,28.12z
				 M106.01,20.184c-1.984-1.906-4.668-3.101-7.62-3.157v-2.999c3.775,0.057,7.202,1.59,9.729,4.036L106.01,20.184z M97.937,17.016
				c-2.953,0.057-5.636,1.251-7.62,3.156l-2.107-2.108c2.524-2.446,5.952-3.979,9.728-4.036V17.016z M90.002,20.499
				c-1.905,1.984-3.101,4.667-3.157,7.621h-2.987c0.057-3.777,1.59-7.204,4.036-9.729L90.002,20.499z M86.845,28.571
				c0.057,2.954,1.252,5.637,3.158,7.621l-2.109,2.107c-2.445-2.525-3.979-5.952-4.035-9.729H86.845L86.845,28.571z M90.317,36.507
				c1.984,1.905,4.667,3.1,7.62,3.157v2.987c-3.775-0.057-7.203-1.589-9.728-4.036L90.317,36.507z M98.39,39.675
				c2.952-0.056,5.636-1.251,7.62-3.157l2.108,2.108c-2.526,2.447-5.953,3.979-9.729,4.037V39.675z M106.337,36.192
				c1.905-1.984,3.1-4.667,3.156-7.621h2.987c-0.056,3.777-1.59,7.203-4.036,9.729L106.337,36.192z M109.493,28.12
				c-0.057-2.954-1.251-5.637-3.156-7.621l2.107-2.108c2.446,2.525,3.98,5.952,4.036,9.729H109.493z M108.444,17.748
				c-2.615-2.537-6.144-4.115-10.055-4.171v-3.382c4.835,0.057,9.221,2.018,12.445,5.163L108.444,17.748z M97.937,13.577
				c-3.9,0.057-7.439,1.634-10.055,4.171l-2.379-2.39c3.225-3.146,7.609-5.107,12.445-5.163v3.382H97.937z M87.567,18.064
				c-2.537,2.616-4.115,6.144-4.172,10.056h-3.382c0.057-4.836,2.019-9.221,5.163-12.446L87.567,18.064z M83.407,28.571
				c0.056,3.901,1.634,7.44,4.171,10.056l-2.401,2.378c-3.145-3.212-5.096-7.598-5.152-12.434H83.407z M87.893,38.942
				c2.615,2.536,6.144,4.115,10.056,4.171v3.382c-4.836-0.056-9.222-2.018-12.445-5.164L87.893,38.942z M98.39,43.113
				c3.9-0.056,7.439-1.634,10.055-4.171l2.391,2.39c-3.225,3.146-7.61,5.107-12.445,5.164V43.113L98.39,43.113z M108.761,38.615
				c2.536-2.615,4.114-6.144,4.17-10.056h3.382c-0.056,4.836-2.018,9.221-5.162,12.445L108.761,38.615z M112.931,28.12
				c-0.056-3.901-1.634-7.44-4.17-10.056l2.39-2.39c3.145,3.225,5.106,7.609,5.162,12.446H112.931z"/>
			<g>
				<polygon id="polygon59_9_" fill="#808080" points="99.234,24.039 99.122,24.051 99.122,24.186 99.234,24.175 				"/>
				<rect id="rect61_9_" x="98.953" y="23.859" fill="#808080" width="0.146" height="0.112"/>
				<polygon id="polygon63_9_" fill="#808080" points="98.682,23.824 98.817,23.847 98.829,23.735 98.693,23.712 				"/>
				<polygon id="rect65_9_" fill="#808080" points="98.569,23.78 98.445,23.768 98.457,23.656 98.593,23.667 				"/>
				<rect id="rect67_9_" x="97.487" y="23.633" fill="#808080" width="0.146" height="0.113"/>
				<polygon id="polygon69_9_" fill="#808080" points="97.16,23.859 97.295,23.882 97.307,23.768 97.184,23.746 				"/>
				<polygon id="rect71_9_" fill="#808080" points="97.184,24.039 97.025,23.993 97.059,23.882 97.204,23.926 				"/>
				<polygon id="rect73_9_" fill="#808080" points="96.912,24.175 96.89,24.061 97.003,24.039 97.025,24.152 				"/>
				<polygon id="polygon75_9_" fill="#808080" points="82.2,35.842 82.2,36.09 82.313,36.09 82.291,35.808 82.144,35.752 
					82.144,35.651 82.055,35.651 82.055,35.842 				"/>
				<polygon id="polygon77_9_" fill="#808080" points="82.99,36.53 83.271,36.665 83.362,36.924 83.497,37.025 83.621,37.307 
					83.554,37.443 83.34,37.251 83.192,37.037 83.113,36.867 				"/>
				<polygon id="polygon79_9_" fill="#808080" points="87.725,42.38 87.826,42.628 87.69,42.707 87.612,42.594 87.432,42.538 
					87.409,42.369 87.263,42.143 87.487,42.177 				"/>
				<path id="path81_9_" fill="#808080" d="M97.588,25.268h-0.202l-0.034-0.417l0.113-0.079v-0.214H96.81l-0.021-0.214l0.09-0.057
					l-0.146-0.057l-0.113,0.147l-0.033,0.169l-0.192,0.034v0.089h-0.135v0.249l-0.53,0.439l-1.048-0.034
					c-0.079,0.169-0.26-0.022-0.26-0.022c-0.033-0.113-0.303,0-0.303,0c0,0.214-0.362-0.09-0.362-0.09l-0.653-0.474
					c-0.372-0.338-0.936,0.09-0.958,0.192c0.022,0.271-0.429,0.056-0.429,0.056s-0.372-0.113-0.428,0.034
					c-0.058,0.146-0.305,0.113-0.305,0.113l-0.033,0.079l-0.192,0.034l-0.033,0.113l-0.226,0.034l0.564-0.022
					c0.146-0.022-0.057,0.327-0.147,0.304l-0.26,0.022l-0.09,0.09h-0.248l-0.112,0.158l-0.361-0.022c0,0-0.203,0.169-0.191,0.226
					c0.022,0.056-0.033,0.225-0.09,0.225s-0.169,0.169-0.135,0.226c0.033,0.056-0.113,0.248-0.113,0.248l-0.034,0.191l-0.111,0.034
					v0.519l-0.226,0.157v0.226l-0.339,0.36l0.034,0.305l-0.282,0.304l0.033,0.304l-0.169,0.057l-0.033,0.136l-0.079,0.395
					l0.191,0.022c0.09-0.034,0.079,0.248,0,0.282c-0.079,0.034-0.281,0.113-0.169,0.191c0.113,0.079-0.304,0.057-0.304-0.056
					s-0.226-0.214-0.282-0.169c-0.057,0.034-0.146-0.169-0.146-0.169c-0.203-0.214-0.845,0.023-0.845,0.023l-0.091,0.304
					c-0.203,0.034-0.338,0.383-0.338,0.383c-0.169,0.056-0.305,0.271-0.249,0.327c0.058,0.057-0.09,0.079-0.09,0.079v0.417
					l-0.09,0.135l0.023,0.451c0.111,0,0.09,0.214,0.09,0.214c-0.191,0.023-0.146,0.271-0.146,0.271l-0.395,0.136l-0.08,0.112
					l-0.484-0.022l-0.135,0.135l-0.136-0.135h-0.936l-0.033-0.09l-0.191-0.034l-0.023-0.215l-0.282,0.023l-0.056,0.113l-0.304,0.022
					c0.022,0.192-0.305,0.474-0.339,0.396c-0.034-0.079-0.248-0.283-0.146-0.327c0.09-0.034,0.338-0.079,0.338-0.079v-0.135
					l-0.699-0.022l-0.078,0.113l-0.282,0.022v0.304l-0.136,0.034c-0.09,0.056,0.023,0.271,0.023,0.271
					c0.135,0.135-0.023,0.338-0.023,0.338c-0.112,0.113,0.09,0.327,0.09,0.327c0.147,0.034-0.09,0.147-0.09,0.147
					c0.034,0.191,0.147,0.248,0.147,0.248C81.3,34.409,81.491,34.5,81.491,34.5l0.023,0.327l0.135,0.079v0.213l0.079,0.136h0.304
					l-0.023-0.474c-0.259-0.304,0.226-0.383,0.248-0.27c0.023,0.113,0.226,0.168,0.226,0.168c0.034,0.282,0.36,0.452,0.451,0.169
					c0.09-0.283,0.168-0.113,0.225,0.022c0.056,0.135,0.418,0.462,0.418,0.462h0.281l0.034,0.271
					c0.315-0.023,0.417,0.022,0.541,0.451c0.135,0.44,0.484,0.553,0.484,0.553l0.26-0.022c0-0.226,0.259,0.034,0.259,0.158
					c0,0.113,0.508,0.552,0.508,0.552l0.507,0.113l0.474,0.383l0.36-0.034h0.147c0.09-0.327,0.541,0.022,0.586,0.135
					c0.034,0.112,0.338,0.304,0.372,0.214c0.033-0.09,0.248-0.034,0.282,0.248c0.033,0.282,0.168,0.225,0.168,0.225l1.071-0.022
					l0.372-0.327l0.959-0.022c0.484-0.022,0.19-0.688,0.09-0.688c-0.169-0.135,0.056-0.688,0.056-0.688l-1.363-1.274
					c-0.316,0-0.034-0.462-0.034-0.462c0.248-0.158-0.057-0.394-0.057-0.394c0.034-0.226-0.135-0.497-0.135-0.497
					c-0.339-0.226-0.248-0.665-0.248-0.665v-0.305c-0.282-0.271,0.113-0.304,0.113-0.304c0.135-0.225-0.09-0.395-0.09-0.395
					l-0.023-0.248l-0.304-0.034l-0.034-0.89l-0.676-0.969c-0.137-0.035-0.034-0.271-0.034-0.271c0.169-0.09-0.034-0.327-0.034-0.327
					l-0.022-0.417l0.395-0.034l0.091-0.147h0.191L89.1,28.705c0.091-0.248,0.315-0.113,0.315-0.113l0.26,0.023l0.147-0.282
					l0.033-0.225l-0.203-0.022c-0.225-0.136-0.112-0.631-0.112-0.631c0.36-0.53,0.767-0.226,0.767-0.226l0.259-0.022
					c0.395,0.271,0.034,0.755,0.034,0.755c-0.079,0.112-0.034,0.473-0.034,0.473l0.091,0.608l-0.248,0.214
					c-0.203,0.113-0.203,0.383,0.022,0.439c0.146,0.022,0.09,0.383-0.136,0.136c-0.337,0,0.192,0.304,0.034,0.225
					c0.339,0.169,0.26-0.146,0.26-0.146l0.45-0.361c0.169-0.136,0.475,0.282,0.475,0.338c0,0.057,0.743,0.022,0.743,0.022
					c0.203,0.135,0.282,0.474,0.282,0.474c0.203-0.271,0.643-0.023,0.316,0.136c0.304,0.191,0.304,0.36,0.304,0.36
					c0.247-0.079,0.247,0.113,0.247,0.169c0,0.056,0.079-0.282,0.079-0.282c-0.282-0.214,0.373-0.282,0.192,0.09l-0.113,0.169
					l0.191,0.146l0.023,0.439c0.417-0.034,0.304-0.552,0.304-0.552l0.191-0.034c0-0.169,0.136-0.079,0.136-0.079
					c-0.136-0.643,0.305-0.755,0.305-0.755c0.247-0.057,0.259-0.575,0.259-0.575c-0.169-0.079-0.079-0.338,0.112-0.113
					c0.191,0.226-0.112-0.462-0.112-0.462l-0.146-0.135l-0.204-0.021l-0.022-0.214h-0.338l-0.056,0.271l-0.125,0.056l-0.033-0.079
					l-0.057,0.214h-0.338l-0.023-0.225l0.203-0.057l0.079-0.113l0.057-0.304h0.247l0.316-0.09c0.022-0.326,0.191-0.248,0.191-0.248
					l0.112,0.09l0.17,0.135l0.021,0.113l-0.112,0.057l-0.022,0.158l0.057,0.214h0.146c0.056-0.304,0.451-0.304,0.563-0.112
					l0.112-0.271c-0.259-0.136,0-0.338,0.068-0.248c0.079,0.09,0.248-0.248,0.248-0.248s0.135,0.169,0-0.057
					c-0.136-0.226,0.09-0.338,0.09-0.338c-0.034-0.226,0.248-0.192,0.248-0.192l0.022-0.304l-0.26-0.022
					c-0.056,0.271-0.282,0.034-0.169-0.022c0.113-0.057,0.226-0.169,0.226-0.169v-0.191l0.112-0.034l0.023-0.191h0.282l0.247-0.113
					l0.056-0.09l0.26-0.023l0.372-0.338l-0.033-0.147c-0.226,0,0-0.169,0-0.169L97.588,25.268L97.588,25.268z"/>
				<path id="path83_9_" fill="#808080" d="M90.035,29.032l-0.338-0.034l0.022,0.135h0.09c0.147,0.271,0.023,0.913,0.023,0.913
					s-0.226,0.022-0.26-0.089c-0.033-0.113-0.136,0.248-0.057,0.304s0.339,0,0.361,0.214c0.022,0.214,0.169-0.136,0.169-0.136
					L90.035,29.032L90.035,29.032z"/>
				<polygon id="polygon85_9_" fill="#808080" points="89.697,30.577 89.697,31.028 89.99,31.434 90.102,31.164 90.148,30.994 
					90.013,30.938 90.035,30.656 90.148,30.634 90.159,30.498 89.878,30.69 				"/>
				<polygon id="polygon87_9_" fill="#808080" points="90.182,31.851 90.182,31.659 90.047,31.682 90.035,31.829 				"/>
				<polygon id="polygon89_9_" fill="#808080" points="90.013,32.764 90.013,32.629 89.855,32.652 89.855,32.787 				"/>
				<path id="path91_9_" fill="#808080" d="M90.238,32.178c0.045,0,0.079-0.034,0.079-0.079c0-0.045-0.034-0.079-0.079-0.079
					s-0.079,0.034-0.079,0.079S90.193,32.178,90.238,32.178z"/>
				
					<ellipse id="circle93_9_" sodipodi:ry="0.89999998" sodipodi:rx="0.89999998" sodipodi:cy="311" sodipodi:cx="423.67999" fill="#808080" cx="90.362" cy="32.494" rx="0.079" ry="0.079">
				</ellipse>
				
					<ellipse id="circle95_9_" sodipodi:ry="0.89999998" sodipodi:rx="0.89999998" sodipodi:cy="286.76001" sodipodi:cx="423.73001" fill="#808080" cx="90.373" cy="30.318" rx="0.079" ry="0.079">
				</ellipse>
				<polygon id="polygon97_9_" fill="#808080" points="96.383,27.737 96.495,27.737 96.518,27.86 96.438,27.928 96.404,28.03 
					96.259,28.063 95.92,28.39 95.897,28.537 95.809,28.673 95.694,28.954 95.3,28.976 95.221,29.315 95.277,29.608 95.616,29.743 
					95.649,29.552 95.763,29.495 95.785,29.303 95.863,29.168 95.977,29.032 96.01,28.886 96.202,28.774 96.428,28.728 
					96.518,28.615 96.552,28.39 96.574,28.221 96.653,28.097 96.878,28.007 96.878,27.646 96.766,27.646 96.743,27.511 
					96.54,27.489 96.495,27.591 96.404,27.591 				"/>
				<path id="path99_9_" fill="#808080" d="M97.262,28.807v-0.271l-0.034-0.248l-0.282-0.135l-0.203,0.191l-0.033,0.271v0.169
					l-0.191,0.034l-0.034,0.519l-0.146,0.056l0.022,0.192l-0.203,0.056l-0.203,0.056l-0.033,0.249l-0.147,0.09l-0.079,0.226
					l-0.089,0.552c0,0,0.168,0.327,0.259,0.169c0.09-0.146,0.248-0.169,0.248-0.169l0.057-0.135l0.507,0.022
					c0.034-0.214,0.282-0.135,0.282-0.034c0,0.09,0.191,0.022,0.191,0.022l0.135-0.214h0.203l0.022-0.226l0.09-0.057v-0.338
					c0.305-0.09,0.26-0.383,0.26-0.383l0.079-0.09l-0.033-0.135c-0.146-0.056-0.08-0.191,0.022-0.157
					c0.09,0.034-0.135-0.169-0.135-0.169c-0.113,0.09-0.204-0.113-0.204-0.113H97.262L97.262,28.807z"/>
				<path id="path101_9_" fill="#808080" d="M97.566,31.107c-0.023,0.226-0.304,0.304-0.304,0.304l-0.204-0.056l-0.112-0.09
					l-0.023-0.271l0.17-0.022l0.034,0.113L97.566,31.107L97.566,31.107z"/>
				<path id="path103_9_" fill="#808080" d="M98.58,29.89c0.046,0.169,0.034-0.271,0.113-0.248s0.022-0.271,0.022-0.271
					l-0.338,0.248C98.535,29.642,98.559,29.811,98.58,29.89z"/>
				<path id="path105_9_" fill="#808080" d="M99.573,28.898c0.079,0.169,0.056,0.417,0.338,0.608
					c0.09,0.068-0.057,0.191-0.146,0.136c-0.09-0.056-0.361-0.474-0.361-0.474v-0.248C99.46,28.774,99.539,28.83,99.573,28.898
					L99.573,28.898z"/>
				<polygon id="polygon107_9_" fill="#808080" points="99.573,34.68 99.629,34.737 99.685,34.839 99.81,34.625 99.708,34.591 				
					"/>
				<line id="line109_9_" fill="none" x1="99.1" y1="34.377" x2="99.1" y2="34.614"/>
				<polygon id="polygon111_9_" fill="#808080" points="101.815,34.106 101.963,34.005 101.906,33.913 101.748,34.005 				"/>
				<path id="path113_9_" fill="#808080" d="M107.239,38.074l0.168,0.079l0.023,0.328c0.225,0.225,0.957,0.033,0.957-0.023
					c0-0.057-0.033-0.699-0.033-0.699l-0.09-0.089l-0.022-0.474c0.078-0.248-0.361-0.609-0.395-0.53
					c-0.034,0.079-0.282,0.022-0.282,0.09c0,0.079-0.147,0.451-0.079,0.585c0.079,0.136-0.056,0.136-0.079,0.271
					C107.385,37.724,107.192,37.95,107.239,38.074L107.239,38.074z"/>
				<path id="path115_9_" fill="#808080" d="M106.821,37.307c-0.033,0.146-0.169,0.225-0.247,0.169
					c-0.08-0.056,0.089,0.09,0.135,0.168c0.033,0.079,0.146,0.079,0.191,0c0.033-0.079,0.021-0.247,0.056-0.326
					C106.99,37.251,106.843,37.228,106.821,37.307L106.821,37.307z"/>
				<rect id="rect117_9_" x="105.954" y="33.824" fill="#808080" width="0.135" height="0.361"/>
				<path id="path119_9_" fill="#808080" d="M107.893,30.16c-0.079-0.113,0.372-0.304,0.451-0.078c0.079,0.225,0,0.191-0.079,0.169
					C108.196,30.228,108.005,30.307,107.893,30.16L107.893,30.16z"/>
				<polygon id="polygon123_9_" fill="#808080" points="108.299,27.613 108.275,27.725 108.478,27.759 108.501,27.646 				"/>
				<polygon id="polygon125_9_" fill="#808080" points="107.768,27.939 107.779,27.973 107.893,27.928 107.848,27.838 
					107.824,27.77 107.768,27.804 107.634,27.883 107.509,27.804 107.453,27.906 107.6,27.995 107.634,28.019 107.655,27.995 				
					"/>
				<path id="path127_9_" fill="#808080" d="M108.478,23.306h-0.282c0,0,0.091,0.034-0.168-0.214
					c-0.26-0.248-0.429,0.056-0.429,0.056l-0.305,0.034v0.305l-0.146,0.056l0.022,0.192l0.203-0.023c0,0,0,0.226,0.057,0.135
					c0.056-0.09,0.529,0.023,0.484,0.248c-0.011,0.09,0.474,0.338,0.418,0.643c0.247,0.034,0.191,0.282,0.191,0.282l0.314,0.034
					l0.091-0.192l0.09,0.022v-0.113l-0.203-0.056l-0.034-0.609l-0.134-0.09l0.032-0.157l-0.146-0.057l0.079-0.248L108.478,23.306
					L108.478,23.306z"/>
				<path id="path129_9_" fill="#808080" d="M109.301,25.245l-0.146-0.022l-0.339,0.056l-0.191,0.361c0,0,0.091,0.056,0.169,0.191
					s0.112,0.913-0.113,1.048s0.022,0.057,0.022,0.057l-0.033,0.417c0.057,0.191,0.146,0.09,0.203,0s0.112-0.113,0.191-0.214
					c0.08-0.09,0.191-0.271,0.203-0.394c0.022-0.136,0.113-0.338,0.057-0.395s0.057-0.327,0.057-0.327s0.078-0.157,0-0.304
					c-0.08-0.158,0.022-0.327,0.078-0.395L109.301,25.245L109.301,25.245z"/>
				<polygon id="rect133_9_" fill="#808080" points="109.527,26.023 109.538,25.877 109.65,25.888 109.64,26.046 				"/>
				<polygon id="rect135_9_" fill="#808080" points="109.516,26.553 109.414,26.496 109.471,26.384 109.572,26.44 				"/>
				<path id="path137_9_" fill="#808080" d="M109.358,25.042l-0.079-0.169c0,0,0-0.146,0.034-0.226
					c0.032-0.079-0.079-0.146-0.136-0.169s-0.033-0.168-0.057-0.248c-0.022-0.078-0.146-0.135-0.146-0.135s-0.034-0.282-0.034-0.338
					s-0.169-0.135-0.112-0.191s0.09-0.135,0.146-0.169c0.056-0.034-0.056-0.304,0.034-0.248c0.09,0.057,0.09,0.158,0.136,0.226
					c0.033,0.079-0.023,0.338,0.078,0.395c0.091,0.056-0.022,0.248,0.136,0.248c0.146,0,0.056,0.361,0.056,0.361
					s-0.033,0.271,0.057,0.282c0.09,0.023,0.034,0.474,0.034,0.474L109.358,25.042L109.358,25.042z"/>
				<path id="path139_9_" fill="#808080" d="M108.141,21.965c0.056,0.079,0.169,0.135,0.169,0.214c0,0.079-0.034,0.135,0.078,0.146
					c0.113,0.023,0.192-0.023,0.226,0.079c0.034,0.09,0.034,0.248,0.021,0.327c-0.021,0.079,0.023,0.191,0.113,0.191
					s0.113,0.022,0.113,0.079c0,0.056,0.112-0.214,0.112-0.214c-0.09-0.079-0.169-0.248-0.169-0.248s-0.089-0.271-0.089-0.304
					c0-0.034-0.136-0.079-0.192-0.09c-0.057-0.022-0.146-0.191-0.146-0.191L108.141,21.965L108.141,21.965z"/>
				<path id="path141_9_" fill="#808080" d="M108.32,21.784c-0.056-0.079-0.112-0.136-0.191-0.169
					c-0.078-0.034-0.135-0.079-0.203-0.079c-0.078,0-0.146-0.079-0.112-0.169c0.034-0.09-0.056-0.136-0.056-0.214
					c0-0.079,0.056-0.079,0.146-0.022c0.09,0.056,0.078,0.079,0.147,0.169c0.077,0.09,0.111,0.192,0.19,0.169
					c0.078-0.023,0.136,0.168,0.203,0.113c0.079-0.056,0.057,0.135,0.057,0.135L108.32,21.784L108.32,21.784z"/>
				<path id="path143_9_" fill="#808080" d="M106.134,23.938c0.102,0.101-0.563,0.079-0.563,0s0.056-0.339,0.225-0.282
					c0.17,0.056,0.192-0.338,0.192-0.338s-0.147,0.022-0.022-0.056c0.135-0.079,0-0.192-0.056-0.248
					c-0.057-0.057-0.114-0.158-0.114-0.158h0.261c0.112-0.079,0.146-0.44,0.146-0.44c0.226,0.079,0.339-0.078,0.339-0.078
					s0.034,0.113,0.112,0.214c0.078,0.09-0.192,0.136-0.09,0.191c0.09,0.057,0.135,0.225,0.09,0.282
					c-0.033,0.056-0.248,0.022-0.248-0.057c0-0.078-0.079,0.09,0,0.192c0.079,0.09-0.09,0.226-0.135,0.226
					c-0.034,0-0.282,0.034-0.079,0.158c0.203,0.113,0.429,0.056,0.429,0.056s0.169-0.022,0.225,0.079
					c0.057,0.09-0.022,0.113-0.113,0.113c-0.089,0-0.539-0.034-0.539-0.034S106.077,23.882,106.134,23.938L106.134,23.938z"/>
				<path id="path145_9_" fill="#808080" d="M104.927,24.107c0.091-0.022,0.316-0.034,0.362,0.022
					c0.033,0.057-0.136,0.136-0.136,0.136l-0.226,0.034C104.86,24.208,104.838,24.129,104.927,24.107L104.927,24.107z"/>
				<path id="path147_9_" fill="#808080" d="M107.351,22.517c0.147-0.079,0.474-0.079,0.451-0.191
					c-0.022-0.112,0.191-0.146,0.191-0.146l0.058,0.225l0.168,0.113l0.022,0.214c0,0,0.057-0.034-0.146,0.023
					c-0.203,0.056-0.079,0.146-0.079,0.146l-0.451,0.022l-0.057-0.191L107.351,22.517L107.351,22.517z"/>
				<path id="path149_9_" fill="#808080" d="M106.619,21.48c0.111,0-0.034,0.44,0.259,0.395c0.305-0.034,0.022,0.135,0.247,0.147
					c0.226,0.022,0.17-0.169,0.249-0.305s0.033-0.214-0.09-0.248c-0.136-0.034-0.136-0.034-0.17-0.191
					c-0.034-0.147-0.191-0.192-0.191-0.192l-0.057-0.225l-0.247,0.146l-0.248,0.327C106.37,21.604,106.506,21.48,106.619,21.48
					L106.619,21.48z"/>
				<polygon id="rect153_9_" fill="#808080" points="107.114,23.092 107.171,22.98 107.271,23.024 107.216,23.148 				"/>
				<rect id="rect155_9_" x="106.922" y="22.911" fill="#808080" width="0.113" height="0.135"/>
				<polygon id="rect157_9_" fill="#808080" points="107.014,20.375 107.035,20.544 106.922,20.555 106.9,20.386 				"/>
				<rect id="rect159_9_" x="106.697" y="22.145" fill="#808080" width="0.113" height="0.09"/>
				<polygon id="rect161_9_" fill="#808080" points="106.393,22.145 106.382,22.032 106.574,22.021 106.585,22.134 				"/>
				<polygon id="rect163_9_" fill="#808080" points="104.848,23.982 104.747,23.938 104.804,23.802 104.905,23.847 				"/>
				<polygon id="rect165_9_" fill="#808080" points="104.263,23.633 104.251,23.521 104.443,23.498 104.453,23.61 				"/>
				<polygon id="polygon169_9_" fill="#808080" points="101.016,23.599 100.598,23.61 100.609,23.723 101.016,23.712 				"/>
				<polygon id="rect171_9_" fill="#808080" points="100.327,23.757 100.283,23.588 100.395,23.565 100.43,23.735 				"/>
				<polygon id="rect173_9_" fill="#808080" points="100.249,23.882 100.215,23.768 100.272,23.757 100.306,23.859 				"/>
				<path id="path175_9_" fill="#808080" d="M101.185,23.554l-0.021,0.135l0.202,0.022c0,0,0.09,0.079,0.09,0.135
					s0.136,0.113,0.203,0.113c0.079,0,0.281-0.158,0.281-0.158s0.091-0.271,0.023-0.248c-0.079,0.022-0.225,0.135-0.247,0.022
					c-0.023-0.113-0.249-0.056-0.249-0.056L101.185,23.554L101.185,23.554z"/>
				<path id="path177_9_" fill="#808080" d="M102.12,23.351c0,0.057-0.033,0.135,0.079,0.158c0.113,0.022,0.315-0.079,0.339,0.034
					c0.021,0.113,0.021,0.192,0.169,0.248c0.146,0.057,0.248,0.079,0.361,0.079c0.111,0,0.36-0.035,0.36-0.035
					s0.271,0.046,0.315,0.09c0.203,0.214,0.338,0.271,0.395,0.169c0.058-0.09-0.021-0.304-0.033-0.383
					c-0.023-0.079-0.282-0.44-0.372-0.361c-0.09,0.079-0.112,0-0.282,0.057c-0.169,0.056-0.53,0.022-0.54-0.057
					c-0.023-0.079-0.283-0.113-0.283-0.192c0-0.078-0.191-0.168-0.169-0.056c0.023,0.113-0.136,0.169-0.168,0.135
					C102.233,23.194,102.12,23.351,102.12,23.351L102.12,23.351z"/>
				<path id="path179_9_" fill="#808080" d="M106.427,20.916l0.136-0.417c-0.192-0.034-0.147-0.248-0.147-0.248
					c-0.022-0.169-0.282-0.361-0.371-0.304c-0.09,0.056-0.057-0.395-0.057-0.395s0.169-0.113,0.248-0.056
					c0.078,0.056-0.644-0.947-0.79-0.857c-0.146,0.09-0.484-0.09-0.474-0.271c0.022-0.169-0.676-0.744-0.676-0.744
					s-0.226-0.146-0.26-0.034c-0.033,0.113-0.112,0.192,0,0.248s0.09-0.09,0.226,0.034c0.136,0.135,0.372,0.304,0.281,0.417
					c-0.09,0.113-0.203,0.158-0.203,0.158l0.137,0.158h0.202l0.034,0.327c0,0,0.225,0.113,0.281,0.248
					c0.057,0.136,0.057,0.214,0,0.282c-0.057,0.079-0.168,0.214-0.146,0.338c0.022,0.135,0.17,0.191,0.17,0.191l0.146,0.022
					l0.113,0.057v0.248c0.146-0.034,0.395,0.169,0.372,0.304s0.034,0.057,0.226,0.191c0.19,0.136,0.135,0.158,0.259,0.249
					C106.257,21.142,106.37,21.085,106.427,20.916L106.427,20.916z"/>
				<path id="path181_9_" fill="#808080" d="M103.338,18.323c-0.022-0.079-0.057-0.338,0.057-0.327c0.112,0.022,0.033,0,0.168,0.056
					c0.136,0.057,0.147-0.09,0.147-0.09h0.203l0.26,0.214l-0.034,0.169l-0.191,0.022c-0.091-0.146-0.282-0.09-0.248,0.034
					c0.034,0.135-0.091,0.383-0.169,0.395c-0.079,0.022-0.316,0.022-0.305-0.09C103.259,18.594,103.338,18.323,103.338,18.323
					L103.338,18.323z"/>
				<path id="path183_9_" fill="#808080" d="M103.191,17.817V17.67c0,0-0.022-0.147-0.112-0.147c-0.091,0-0.26-0.113-0.226-0.191
					c0.034-0.079-0.315-0.158-0.315-0.158s-0.315-0.305-0.203-0.271c0.113,0.034,0.056-0.135,0.056-0.135s-0.226,0.034-0.281,0.022
					c-0.056-0.022-0.034-0.191-0.034-0.191s-0.226-0.057-0.226,0s0.079,0.057,0.113,0.169c0.033,0.112,0.022,0.304,0.191,0.338
					c0.168,0.034,0.203,0.079,0.226,0.158c0.022,0.078,0.225,0.089,0.225,0.089l0.147,0.079L103.191,17.817L103.191,17.817z"/>
				<polygon id="polygon185_9_" fill="#808080" points="101.163,15.877 101.105,15.719 100.96,15.685 100.96,15.855 				"/>
				<path id="path187_9_" fill="#808080" d="M101.105,15.076c-0.191-0.146,0.26,0.113,0.26,0.113c0.146,0,0.248,0.113,0.248,0.169
					s0.202,0.034,0.202,0.034l0.023-0.135l-0.146-0.191l-0.135-0.09c0,0-0.203-0.022-0.203-0.078
					C101.354,14.851,101.185,15.134,101.105,15.076L101.105,15.076z"/>
				<path id="path189_9_" fill="#808080" d="M104.555,15.19c-0.056,0.169-0.078,0.395-0.169,0.395c-0.09,0-0.056,0.248-0.056,0.248
					s0.248,0,0.315,0.022c0.079,0.022,0.079,0.214,0.079,0.214c0.281-0.022,0.395,0.361,0.36,0.462
					c-0.033,0.09,0.113,0.09,0.113,0.09s0,0.304-0.034,0.383c-0.034,0.079,0.248,0.135,0.316,0.248
					c0.078,0.113-0.033,0.497-0.09,0.519c-0.057,0.023,0.146,0.079,0.136,0.169c-0.023,0.09,0.055,0,0.077,0.158
					c0.023,0.147,0.057,0.473,0.057,0.473l0.261,0.022c0.033-0.248,0.519-0.259,0.597-0.225c0.315,0.113,0.563,0.609,0.563,0.721
					c0,0.113-0.202,0.135-0.202,0.135l0.033,0.552c0.316,0.09,0.587,0.553,0.542,0.631c-0.034,0.079,0.225,0.057,0.225,0.057
					c0.034-0.338,0.36-0.226,0.373-0.113c0.021,0.113,0.078,0.361,0.078,0.361l0.09,0.169l0.135,0.135l0.203-0.022l0.057,0.112
					l0.248,0.034c0,0,0.202,0.226,0.226,0.282c0.021,0.057,0.305,0.034,0.371,0.057c0.079,0.023,0.191,0.079,0.204,0.169
					c0.021,0.09,0.135,0.248,0.135,0.248s0.226,0.057,0.248,0.136c0.022,0.079,0.112,0.248,0.112,0.248l0.191,0.158l0.023,0.169
					l0.202,0.022l0.057,0.226l0.338-0.022l0.191-0.135c0.248-0.135,0.418-0.305,0.429-0.383c0.023-0.079,0.056-0.361,0.248-0.304
					c0.191,0.056,0.057-0.417,0.057-0.417s-0.26-0.191-0.249-0.282c0.023-0.09-0.258-0.282-0.247-0.361
					c0.022-0.079-0.248-0.225-0.226-0.304s-0.135-0.282-0.135-0.282l-0.282-0.271l-0.033-0.169l-0.226-0.023l-0.45-0.552
					l0.021-0.158l-0.135-0.022v-0.215l-0.136-0.079l-0.203-0.022l-0.417-0.451l-0.033-0.214h-0.204l0.034-0.395
					c0.135-0.169,0.056-0.496,0.056-0.496s-0.258,0.135-0.395,0.078c-0.135-0.056,0.058-0.191,0.058-0.191v-0.146l-0.113-0.113
					c0,0-0.315,0.034-0.338-0.022c-0.022-0.057-0.079-0.304-0.079-0.304l-0.022-0.327l-0.136-0.057l-0.022-0.112l-0.203,0.022V15.9
					l-0.112-0.034l-0.112-0.056l-0.022-0.226l-0.418-0.022l-0.135-0.192l-0.147-0.225l-0.474-0.034l-0.112-0.113l-0.191-0.034
					l-0.135-0.056l-0.058,0.09l-0.36,0.022l-0.022,0.113C105.322,15.212,104.578,15.134,104.555,15.19L104.555,15.19z"/>
				<path id="path191_9_" fill="#808080" d="M106.527,14.694c-0.033-0.147,0.373-0.282,0.475-0.169
					c0.09,0.113,0.361,0.135,0.394,0.699c0.012,0.203-0.338-0.214-0.338-0.214l-0.282-0.089
					C106.619,14.885,106.54,14.795,106.527,14.694L106.527,14.694z"/>
				<polygon id="rect193_9_" fill="#808080" points="101.027,14.93 100.926,14.885 101.005,14.705 101.105,14.761 				"/>
				<path id="path195_9_" fill="#808080" d="M100.058,13.059l-0.248-0.248v-0.214l-0.079-0.079l-0.078-0.27l-0.248-0.079
					l-0.249,0.09l-0.259,0.169l-0.282,0.034l-0.146,0.169l0.597,0.056l0.113,0.191l0.429,0.034l0.281,0.282
					C100.147,13.307,100.204,13.195,100.058,13.059L100.058,13.059z"/>
				<path id="path197_9_" fill="#808080" d="M100.023,12.123c-0.045-0.169-0.281,0.214-0.033,0.282c0.248,0.079,0.484,0,0.484,0
					l0.056-0.113l0.937,0.022c0.079-0.079,0.112-0.191,0.112-0.191s0.225-0.079,0.315-0.034c0.091,0.034,0.023-0.271-0.079-0.226
					c-0.09,0.034-0.281,0.023-0.281,0.023h-0.339c-0.022-0.136-0.316-0.079-0.338,0c-0.012,0.067-0.124,0.089-0.124,0.089
					l-0.429,0.034C100.261,12.123,100.046,12.202,100.023,12.123L100.023,12.123z"/>
				<path id="path199_9_" fill="#808080" d="M98.164,15.336c0.293,0.09,0.395,0.022,0.416-0.057c0.023-0.079,0.034-0.09,0.147-0.113
					s-0.022-0.248-0.135-0.225c-0.113,0.022-0.227-0.034-0.249-0.135c-0.022-0.09-0.203-0.338-0.225-0.147
					c-0.023,0.191-0.136,0.191-0.113,0.327C98.04,15.111,98.096,15.313,98.164,15.336L98.164,15.336z"/>
				<path id="path201_9_" fill="#808080" d="M96.01,15.55c-0.011-0.068,0.373-0.079,0.429-0.023
					c0.056,0.057,0.022,0.158,0.191,0.158s0.09,0.113,0.079,0.169c-0.022,0.056-0.203,0.034-0.226-0.022
					c-0.022-0.057-0.304-0.079-0.304-0.079S96.033,15.64,96.01,15.55L96.01,15.55z"/>
				<polygon id="polygon205_9_" fill="#808080" points="102.188,11.706 102.233,11.751 102.268,11.718 102.458,11.56 102.38,11.469 
					102.233,11.594 102.143,11.492 102.064,11.582 				"/>
				<polygon id="polygon207_9_" fill="#808080" points="101.354,11.266 101.376,11.244 101.591,11.109 101.523,11.018 
					101.354,11.131 101.229,11.052 101.174,11.154 101.32,11.244 				"/>
				<polygon id="polygon209_9_" fill="#808080" points="100.677,15.145 100.802,15.336 100.892,15.269 100.768,15.066 
					100.745,15.043 100.723,15.043 100.53,15.02 100.519,15.134 				"/>
				<path id="path211_9_" fill="#808080" d="M94.545,20.341l0.022,0.214h0.282c0.112,0-0.09-0.135-0.09-0.135
					S94.533,20.443,94.545,20.341L94.545,20.341z"/>
				<polygon id="rect213_9_" fill="#808080" points="94.905,20.352 94.973,20.262 95.086,20.352 95.018,20.443 				"/>
				<polygon id="rect215_9_" fill="#808080" points="91.489,16.79 91.568,16.711 91.682,16.824 91.602,16.903 				"/>
				<polygon id="polygon219_9_" fill="#808080" points="96.777,41.377 96.855,41.456 96.946,41.366 97.003,41.309 96.935,41.264 
					96.743,41.175 96.698,41.275 96.81,41.331 				"/>
				<polygon id="polygon221_9_" fill="#808080" points="95.3,40.001 95.435,40.092 95.503,40.001 95.424,39.945 95.48,39.901 
					95.413,39.81 95.3,39.911 95.244,39.957 				"/>
				<path id="path223_9_" fill="#808080" d="M109.426,36.292c-0.023-0.101-0.136-0.135-0.147-0.135l-0.033,0.113l0,0
					c0.01,0,0.021,0.011,0.033,0.022l0.022,0.102c-0.011,0.011-0.022,0.023-0.022,0.034l0.079,0.079
					C109.414,36.417,109.436,36.36,109.426,36.292L109.426,36.292z"/>
				<polygon id="polygon225_9_" fill="#808080" points="109.595,35.931 109.414,35.921 109.426,35.752 109.605,35.774 				"/>
				<path id="path227_9_" fill="#808080" d="M113.935,34.455c0.079-0.045,0.181-0.146,0.169,0.068
					c-0.011,0.214-0.102,0.147-0.169,0.214C113.867,34.804,113.822,34.523,113.935,34.455L113.935,34.455z"/>
				<path id="path231_9_" fill="#808080" d="M114.893,33.644v-0.023c0-0.034-0.012-0.079-0.034-0.124l-0.102,0.056
					c0.011,0.023,0.011,0.057,0.022,0.079c0,0.034,0.011,0.068,0.034,0.09c0.021,0.012,0.045,0.023,0.079,0.012l-0.023-0.113
					C114.87,33.632,114.882,33.632,114.893,33.644L114.893,33.644z"/>
				<path id="path233_9_" fill="#808080" d="M114.644,33.734c0.034,0.113,0.068,0.226,0.068,0.237l0.102-0.045
					c0,0-0.045-0.112-0.068-0.225L114.644,33.734L114.644,33.734z"/>
				<path id="path235_9_" fill="#808080" d="M114.228,34.185l-0.113-0.011c-0.011,0.09,0.011,0.204,0.101,0.215l0.023-0.113l0,0
					C114.238,34.275,114.228,34.23,114.228,34.185L114.228,34.185z"/>
				<path id="path237_9_" fill="#808080" d="M113.743,31.919c-0.012-0.034-0.022-0.067-0.057-0.079
					c-0.078-0.034-0.226,0.022-0.293,0.067l0.067,0.09c0.068-0.045,0.169-0.068,0.181-0.056c0,0,0,0,0-0.011L113.743,31.919
					L113.743,31.919z"/>
				<path id="path241_9_" fill="#808080" d="M108.546,25.842c-0.079,0.079-0.247,0.113-0.247,0.113l-0.057,0.214l-0.091,0.079
					c0,0,0.022,0.057,0,0.191c-0.022,0.135-0.191,0.214-0.191,0.214l-0.079,0.09c0,0-0.45,0.023-0.507,0
					c-0.169-0.079-0.057-0.304,0.057-0.282c0.112,0.022-0.022-0.327-0.022-0.327l0.146-0.022c0,0,0.022-0.338,0.08-0.338
					c0.056,0-0.023-0.113-0.091-0.169c-0.079-0.057-0.168-0.248-0.247-0.225c-0.079,0.022-0.373,0-0.373,0l-0.056,0.113
					l-0.203,0.034c0,0,0.022,0.147-0.022,0.192c-0.113,0.135-0.541,0.417-0.361-0.057l0.057-0.113V25.38l-0.338-0.022
					c0,0-0.17-0.057-0.17-0.135c0-0.079-0.022-0.169-0.022-0.169l-0.395-0.44l-0.474-0.056l-0.033-0.09l-0.281-0.034
					c-0.339-0.169-0.644-0.022-0.587,0.271c0.057,0.282,0.146,0.395-0.033,0.395c-0.192,0-0.226-0.146-0.226-0.146
					s-0.147-0.057-0.147,0.022c0,0.079-0.056,0.226,0,0.304c0.057,0.079-0.078,0.191-0.135,0.135s-0.203-0.226-0.169-0.282
					s-0.259-0.417,0.033-0.474c0.305-0.056-0.021-0.225,0.09-0.27l0.147-0.079h0.146l0.09-0.079l-0.248-0.034l-0.146-0.022
					l-0.281-0.022c-0.282,0.191-0.339,0.417-0.339,0.417c-0.147,0.282-0.507-0.113-0.371-0.271c0.135-0.158-0.418-0.023-0.509,0.056
					c-0.09,0.079-0.371,0.034-0.371,0.034c-0.057,0.169-0.315-0.023-0.248-0.136c0.079-0.113,0.079-0.192,0.079-0.192l-0.091-0.022
					l-0.112,0.214c-0.259,0-0.338,0.147-0.282,0.248c0.057,0.09-0.079-0.023-0.112,0.113c-0.033,0.135,0.022,0.135,0.136,0.191
					c0.112,0.057-0.058,0.057,0.022,0.147c0.078,0.09,0.304,0,0.169,0.135c-0.136,0.136-0.395,0.079-0.395,0.079
					c-0.023,0.168-0.372,0.135-0.417,0.079c-0.034-0.057-0.316-0.395-0.316-0.395l-0.36-0.023c-0.034-0.27,0.168-0.135,0.247-0.338
					c0.079-0.214,0.112-0.552,0.112-0.552s-0.304-0.022-0.315,0.079c-0.022,0.09-0.202,0.158-0.202,0.158s-0.147,0.056-0.091,0.135
					s-0.113,0.113-0.113,0.113s0.034,0.124-0.021,0.169c-0.147,0.158-0.53,0.022-0.587-0.034l-0.225-0.09L98.22,24.32l-0.259,0.113
					l-0.079,0.079H97.6l-0.022,0.226l0.507,0.056l0.034,0.474l-0.203-0.068h-0.136l-0.056-0.112l-0.113-0.022v0.417l0.113,0.09
					l0.09,0.09l0.191,0.022l0.034,0.226l0.474,0.022l0.056,0.09l0.282,0.022l0.541,0.552l-0.034,0.169l-0.09,0.056
					c0.034,0.136-0.248,0.056-0.248,0.056v0.113l0.135,0.022l0.136,0.079l0.192-0.327c0.202-0.136,0.304,0.056,0.315,0.168
					c0.021,0.112-0.091,0.09-0.091,0.09v0.271l0.112,0.034c0.192,0.225-0.078,0.36-0.078,0.36l-0.057,0.192
					c-0.057,0.169-0.26,0.135-0.26,0.135l-0.078,0.113l-0.226,0.056l0.44,0.057c0.045-0.158,0.158-0.192,0.214-0.113
					c0.057,0.079,0.057,0.214,0.057,0.214l0.111,0.022l-0.021,0.214l0.112,0.034v0.608l0.135,0.146
					c0.226-0.09,0.226,0.056,0.113,0.135c-0.113,0.079-0.034,0.417-0.034,0.417l-0.09,0.09v0.158l-0.112,0.079v0.214
					c-0.191-0.09-0.418-0.056-0.474,0c-0.169-0.112-0.53-0.078-0.53,0.023c0.112,0.147-0.135,0.191-0.135,0.191l-0.136,0.146
					c0.091,0.192-0.09,0.214-0.09,0.214v0.361l-0.225,0.214l0.022,0.496c0,0.136,0.281,0.147,0.339,0.079
					c0.056-0.079,0.281,0.158,0.281,0.158h0.169l0.034-0.338l-0.113-0.057v-0.552l0.191-0.214c0.226-0.079,0.147,0.496,0.147,0.552
					c0.021,0.214,0.112,0.191,0.202,0.146c0.192-0.078,0.034,0.214-0.112,0.192s-0.056,0.191-0.056,0.191l0.09,0.034l-0.169,0.135
					l-0.147,0.169l-0.191-0.056l-0.226-0.022l-0.078-0.135l-0.136-0.021l-0.023,0.271l-0.089,0.112l-0.227,0.226
					c0.305,0-0.033,0.214-0.112,0.214c0.17,0.056-0.022,0.225-0.45,0.09v0.135l-0.147,0.022l0.136,0.147l0.146,0.023l-0.057,0.327
					c0,0.248-0.619,0.079-0.677,0.023l-0.021,0.338l-0.113,0.023l0.023,0.225l-0.023,0.327l0.203-0.034v0.135l0.507,0.022
					l0.733-0.778l0.428-0.09c0.034-0.191,0.226,0.034,0.226,0.034c0.191-0.023,0.226,0.113,0.226,0.113l0.248,0.034
					c0.203,0.056,0.079,0.079,0.09,0.158c0.022,0.112,0.113,0.079,0.113,0.079l0.033-0.248l0.113,0.023l-0.113-0.136l-0.202-0.09
					l-0.226-0.09c-0.147-0.215,0.033-0.169,0.191-0.147h0.247c0,0,0.282,0.383,0.282,0.474c0,0.09,0.136,0.112,0.136,0.112
					l0.168-0.022l0.056,0.135h0.17l0.057,0.113h0.338l0.023-0.169l-0.316-0.057l-0.022-0.191l-0.226-0.056
					c-0.079-0.327,0.056-0.417,0.147-0.271l0.112,0.022l-0.033-0.282l0.135-0.034l-0.034-0.395l-0.111-0.034V33.07l0.473,0.022
					c-0.033-0.248,0.022-0.361,0.022-0.361h0.136l0.022,0.09l0.574,0.057l0.407-0.462c-0.023-0.034,0.045-0.057,0-0.102
					c-0.058-0.056-0.136,0-0.227-0.056c-0.09-0.057,0-0.383-0.022-0.451c-0.022-0.079,0.315-0.191,0.26-0.022
					c-0.057,0.169,0,0.248,0,0.248c0.247-0.226,0.451,0.022,0.429,0.079c-0.023,0.057,0.135,0.112,0.226,0.057
					c0.09-0.057,0.202,0.168,0.168,0.282c-0.034,0.113-0.372,0.089-0.394-0.023c-0.023-0.113-0.079-0.079-0.113-0.022
					c-0.034,0.056-0.203,0.09-0.305,0.033c-0.021-0.011-0.021-0.022-0.034-0.033l-0.404,0.461h0.021
					c0.226,0.136,0.113,0.304,0.034,0.338s-0.203,0.034-0.203,0.034l-0.034,0.079l-0.483,0.034l-0.034,0.191
					c-0.248-0.034-0.339,0.226-0.281,0.361c0.055,0.135,0,0.248,0,0.248l0.202,0.091l0.259-0.079
					c0.034-0.191,0.204-0.225,0.362-0.338c0.146-0.113,0.394,0.214,0.315,0.361c-0.079,0.146-0.079,0.214-0.079,0.214l0.021,0.168
					l-0.191,0.079l-0.146,0.079l-0.022,0.09h-0.507l-0.09,0.09l-0.249,0.022l-0.079,0.113l-0.168,0.022c0,0-0.282,0.135-0.169,0.282
					c0.113,0.158-0.473,0.135-0.598-0.08c-0.033,0.192-0.247,0.023-0.247,0.023l-0.203-0.057l-0.022-0.282
					c-0.034-0.191-0.395-0.191-0.372-0.056s-0.677,0.056-0.677,0.056l-0.225,0.113l-0.204,0.124l-0.022,0.09l-0.338,0.034
					l-0.147,0.079l-0.056-0.113h-0.147l-0.146,0.214c-0.395,0.023-0.767,0.248-0.733,0.338c0.034,0.09-0.146,0.192-0.146,0.192
					l-0.169,0.056l-0.112,0.168l-0.225,0.08l-0.036,0.395L95.525,36.8v0.169l-0.135,0.034v0.089l-0.192,0.022l0.113,0.282
					l0.146,0.079c0.26,0.034,0.147,0.361,0.147,0.361l0.146,0.023l0.079,0.214l0.147,0.304c0.057,0.226,0.226,0.169,0.304,0.158
					c0.079-0.023,0.147,0.225,0.147,0.225l0.743,0.022c0,0-0.032,0.079,0.091,0.112c0.135,0.034,0.992,0.079,1.025,0.023
					c-0.033-0.169,0.474-0.214,0.676-0.057c0.203,0.147,0.485,0.057,0.485,0.057l0.281,0.338l0.192,0.417l0.315,0.09l0.226,0.056
					l0.079,0.326l0.168,0.023l0.058,0.213c0.202,0.147-0.058,0.474-0.058,0.474v0.417l0.147,0.08l-0.023,0.157l0.248,0.248
					l0.282,0.023l0.71,0.755l0.564,0.169l0.09,0.304l0.146-0.023l0.112-0.09l0.451-0.022l0.226-0.215l0.248-0.034l2.085-1.77
					l-0.191-0.113v-0.417c0.339-0.248,0.361-0.688,0.033-0.722c-0.237-0.033-0.135-0.282,0.09-0.327l0.135-0.056v-0.17l0.429-0.395
					v-0.304l-0.936-0.778c-0.416-0.146,0-1.06,0.282-1.047c0.283,0.022-0.022-1.41-0.022-1.41l-0.146-0.078l0.033-0.463h-0.202
					l-0.339,0.441l-0.09,0.304c-0.034,0.395-1.195,0.327-1.251,0.271c-0.057-0.056-0.451-0.225-0.451-0.225
					s-0.304-0.249-0.361-0.169c-0.056,0.08-0.315-0.09-0.315-0.033c0,0.056-0.247-0.135-0.247-0.135l-0.373-0.135l0.282-0.057
					l-0.057-0.225l0.484,0.248c0.058,0.079,0.305,0.056,0.305,0.056l0.079,0.09c0,0,0.146-0.022,0.247,0.09
					c0.091,0.112,0.587,0.022,0.587,0.022l0.135,0.113l0.203,0.079l0.586,0.023l0.023-0.361l0.112-0.113l-0.022-0.225l0.135-0.113
					v-0.191l0.113-0.034l0.021-0.417l0.09-0.022v-0.914l-0.281-0.27c-0.021,0.09-0.315,0.09-0.315,0.09s-0.079,0.135-0.135,0.135
					c-0.057,0,0.078,0.169,0.033,0.282c-0.033,0.112-0.192,0.112-0.192,0.112l-0.281,0.079l-0.079,0.09h-0.305l-0.032-0.248
					l0.337-0.09l0.192-0.089l0.091-0.192c0.021-0.191,0.247-0.168,0.247-0.168s0.429-0.362,0.45-0.53
					c0.023-0.169,0.17-0.643,0.429-0.643h0.484c0.192-0.079,0.136-0.327,0.136-0.327l0.248-0.034l0.032,0.136
					c0,0,0.339,0.034,0.373-0.022c0.034-0.056,0.112-0.191,0.203-0.135c0.09,0.056,0.396-0.135,0.396-0.135
					c0.021-0.135,0.484-0.079,0.484-0.079l0.056-0.169c0,0-0.316-0.439-0.372-0.439c-0.057,0-0.36-0.271-0.395-0.169
					c-0.304-0.079-0.282-0.496-0.282-0.496l-0.112-0.271c0-0.158-0.282-0.473-0.338-0.439c-0.282-0.214-0.079-0.451,0-0.474
					c0.078-0.023,0.259-0.282,0.259-0.282l0.091-0.271l0.315-0.09l0.033-0.249L107,27.534c0,0,0.19-0.338,0.281-0.338
					c0.09,0,0.711,0,0.767-0.034c0.057-0.034,0.169-0.339,0.169-0.395c0-0.056,0.146-0.079,0.203-0.09
					c0.056-0.023,0.191-0.169,0.226-0.248C108.749,26.238,108.625,25.763,108.546,25.842L108.546,25.842z"/>
				<path id="path245_9_" fill="#808080" d="M98.164,32.697c0.021-0.022,0.056,0.09,0.112,0.068
					c0.057-0.011,0.079,0.102,0.022,0.102c-0.056,0-0.056,0.067-0.056,0.101s0,0.102-0.045,0.147
					c-0.047,0.045-0.079,0.011-0.137-0.011c-0.057-0.034-0.078-0.034-0.157-0.034c-0.068,0-0.012,0.113-0.012,0.113
					s-0.293-0.012-0.236-0.057c0.057-0.045,0.112-0.056,0.067-0.09c-0.045-0.034,0-0.057,0-0.113s0.136-0.034,0.102-0.068
					c-0.045-0.045,0-0.203,0.068-0.112l0.045-0.101c-0.045-0.045-0.011-0.057-0.102-0.09c-0.078-0.034-0.012-0.204-0.012-0.204
					l0.012-0.112c0.022-0.147,0.304-0.158,0.327-0.034c0.011,0.125,0,0.214,0,0.214l0.079,0.034c0,0-0.011,0.09-0.079,0.09
					s0,0.045-0.045,0.09L98.164,32.697L98.164,32.697z"/>
				<path id="path247_9_" fill="#808080" d="M97.239,32.843c0.045-0.09,0.136-0.451,0.248-0.338c0.112,0.113,0.181,0,0.181,0
					s0.056,0.057,0.022,0.169c-0.022,0.112-0.057,0.225-0.124,0.248c-0.068,0.011-0.124,0.057-0.215,0.068
					C97.284,33.001,97.239,32.843,97.239,32.843L97.239,32.843z"/>
			</g>
		</g>
	</g>
</g>
</svg>
