<?xml version="1.0" encoding="utf-8"?>
<!-- Generator: Adobe Illustrator 16.0.0, SVG Export Plug-In . SVG Version: 6.00 Build 0)  -->
<!DOCTYPE svg PUBLIC "-//W3C//DTD SVG 1.1//EN" "http://www.w3.org/Graphics/SVG/1.1/DTD/svg11.dtd">
<svg version="1.1" id="Layer_1" xmlns="http://www.w3.org/2000/svg" xmlns:xlink="http://www.w3.org/1999/xlink" x="0px" y="0px"
	 width="135.548px" height="44.619px" viewBox="32.741 7.33 135.548 44.619" enable-background="new 32.741 7.33 135.548 44.619"
	 xml:space="preserve">
<path fill="#747474" d="M90.748,30.811c0,6.419-5.022,11.149-11.185,11.149s-11.185-4.73-11.185-11.149
	c0-6.464,5.022-11.15,11.185-11.15S90.748,24.346,90.748,30.811z M85.852,30.811c0-4.012-2.911-6.756-6.289-6.756
	c-3.378,0-6.289,2.745-6.289,6.756c0,3.971,2.91,6.756,6.289,6.756S85.852,34.777,85.852,30.811z"/>
<path fill="#BBBBBB" d="M114.877,30.811c0,6.419-5.021,11.149-11.185,11.149s-11.185-4.73-11.185-11.149
	c0-6.459,5.022-11.15,11.185-11.15C109.855,19.661,114.877,24.346,114.877,30.811z M109.981,30.811c0-4.012-2.911-6.756-6.289-6.756
	s-6.289,2.745-6.289,6.756c0,3.971,2.911,6.756,6.289,6.756S109.981,34.777,109.981,30.811z"/>
<path fill="#7D7D7D" d="M138.002,20.334v20.018c0,8.234-4.856,11.597-10.597,11.597c-5.405,0-8.657-3.614-9.883-6.57l4.263-1.774
	c0.758,1.815,2.619,3.956,5.615,3.956c3.674,0,5.952-2.266,5.952-6.535v-1.603h-0.17c-1.096,1.353-3.208,2.534-5.872,2.534
	c-5.575,0-10.682-4.856-10.682-11.104c0-6.294,5.107-11.19,10.682-11.19c2.66,0,4.77,1.182,5.872,2.494h0.17v-1.815h4.65
	L138.002,20.334L138.002,20.334z M133.699,30.851c0-3.926-2.619-6.796-5.953-6.796c-3.378,0-6.208,2.87-6.208,6.796
	c0,3.886,2.83,6.716,6.208,6.716C131.08,37.567,133.699,34.737,133.699,30.851z"/>
<path fill="#7C7C7C" d="M145.668,8.602v32.675h-4.775V8.602H145.668z"/>
<path fill="#747474" d="M164.277,34.48l3.801,2.534c-1.227,1.815-4.184,4.942-9.29,4.942c-6.334,0-11.064-4.897-11.064-11.15
	c0-6.631,4.771-11.15,10.517-11.15c5.786,0,8.615,4.604,9.54,7.093l0.509,1.267l-14.905,6.173c1.142,2.237,2.916,3.377,5.404,3.377
	C161.281,37.567,163.011,36.34,164.277,34.48z M152.58,30.469l9.963-4.137c-0.548-1.393-2.196-2.363-4.138-2.363
	C155.918,23.969,152.454,26.166,152.58,30.469z"/>
<path fill="#7D7D7D" d="M50.301,27.91v-4.73h15.941c0.156,0.824,0.236,1.8,0.236,2.855c0,3.549-0.97,7.938-4.097,11.064
	c-3.041,3.167-6.927,4.856-12.075,4.856c-9.541,0-17.564-7.772-17.564-17.313S40.765,7.33,50.306,7.33
	c5.278,0,9.039,2.071,11.864,4.77l-3.338,3.338c-2.025-1.901-4.771-3.378-8.531-3.378c-6.967,0-12.417,5.615-12.417,12.583
	c0,6.967,5.45,12.583,12.417,12.583c4.52,0,7.093-1.814,8.742-3.463c1.337-1.337,2.217-3.248,2.563-5.856L50.301,27.91z"/>
</svg>
