<?xml version="1.0" encoding="utf-8"?>
<!-- Generator: Adobe Illustrator 16.0.0, SVG Export Plug-In . SVG Version: 6.00 Build 0)  -->
<!DOCTYPE svg PUBLIC "-//W3C//DTD SVG 1.1//EN" "http://www.w3.org/Graphics/SVG/1.1/DTD/svg11.dtd">
<svg version="1.1" id="Layer_1" xmlns="http://www.w3.org/2000/svg" xmlns:xlink="http://www.w3.org/1999/xlink" x="0px" y="0px"
	 width="170.751px" height="26.38px" viewBox="96.461 14.991 170.751 26.38" enable-background="new 96.461 14.991 170.751 26.38"
	 xml:space="preserve">
<g>
	<rect x="96.461" y="14.991" fill="none" width="170.742" height="26.377"/>
	<path id="path22" fill="#9D9D9D" d="M101.426,25.436c-0.018,0.068-0.146,0.223-0.191,0.246c0,0.106-0.065,0.207-0.164,0.272
		c0,0.167-0.282,0.241-0.317,0.418c-0.032,0.161-0.103,0.315-0.227,0.399c0,0.15-0.246,0.207-0.246,0.354
		c-0.073,0.038-0.141,0.273-0.19,0.273c0,0.102-0.112,0.172-0.137,0.299c-0.058,0.03-0.137,0.164-0.137,0.245
		c-0.128,0.064-0.088,0.234-0.217,0.299c0,0.092-0.109,0.205-0.109,0.3c-0.048,0-0.164,0.5-0.164,0.572
		c-0.106,0-0.066,0.912-0.027,1.061c0.082,0.312,0.101,0.648,0.3,0.847c0.051,0.052,0.083,0.144,0.109,0.219
		c0.04,0.019,0.184,0.161,0.218,0.204c0.079,0.099,0.6,0.225,0.6,0.259c0.262,0.038,0.404,0.191,0.626,0.191
		c0-0.002,0.742,0.231,0.817,0.244c0,0.107,0.355,0.071,0.355,0.164c0.233,0.023,0.466,0.047,0.7,0.069
		c0.235,0.024,0.474,0.168,0.716,0.229c0,0.091,0.505,0.129,0.631,0.113c0.301-0.035,0.54,0.05,0.793,0.05
		c0.407,0,0.782,0.109,1.192,0.109c0,0.139,0.957-0.027,1.035-0.027c0-0.09,1.006-0.195,1.136-0.216
		c0.202-0.032,0.402-0.063,0.604-0.097c0.196-0.032,0.267-0.17,0.476-0.232c0.268-0.081,0.38-0.187,0.618-0.245
		c0,0.004,0.502-0.245,0.544-0.245c0.074-0.111,0.21-0.144,0.287-0.245c0.074-0.099,0.241-0.236,0.354-0.326
		c0.128-0.104,0.259-0.452,0.259-0.6c0.111,0,0.079-0.559,0-0.654c-0.15-0.05-0.201-0.112-0.363-0.1
		c-0.239,0.019-0.44,0.058-0.699,0.072c0,0.078-0.572,0.112-0.572,0.19c-0.167,0-0.333,0.027-0.463,0.027
		c0,0.066-0.298,0.082-0.381,0.082c0,0.086-0.79,0.064-0.79,0.137c-0.057,0-0.327,0.043-0.327,0.082
		c-0.098,0.005-0.573,0.008-0.573,0.081c-0.191-0.012-0.696,0.082-0.734,0.082c0,0.059-1.771,0.351-1.912,0.387
		c-0.178,0.048-0.249-0.026-0.428-0.016c-0.155,0.01-0.2-0.071-0.303-0.071c-0.043-0.088-0.066-0.021-0.109-0.108
		c-0.086,0-0.109-0.083-0.177-0.137c-0.112-0.089-0.113-0.208-0.205-0.3c-0.055-0.056-0.135-0.408-0.246-0.408
		c-0.041-0.125-0.281-0.764-0.354-0.764c0-0.135-0.041-0.171-0.001-0.313c0.036-0.127,0.056-0.28,0.056-0.381
		c0-0.046,0.051-0.287,0.082-0.287c0.009-0.187,0.055-0.424,0.055-0.572c0.097,0,0.099-0.572,0.245-0.572
		c0-0.08,0.032-0.179,0.109-0.217c0.043-0.17,0.131-0.247,0.232-0.382c0.103-0.137,0.381-0.194,0.54-0.258
		c0.073-0.03,0.508-0.039,0.508-0.068c0.109,0,0.791-0.079,0.791-0.163c0.169,0,0.377-0.038,0.581-0.046
		c0.171-0.007,0.248-0.063,0.373-0.063c0-0.164,0.777-0.198,0.953-0.218c0-0.032,0.225-0.082,0.272-0.082
		c0-0.065,0.371-0.067,0.452-0.071c0.309-0.015,0.496-0.147,0.774-0.147c0.27,0,0.456-0.105,0.753-0.121
		c0.236-0.012,0.472-0.024,0.708-0.036c0.151-0.008,0.235-0.061,0.391-0.061c0-0.009,0.813-0.109,0.899-0.109
		c0,0,0.372-0.087,0.438-0.11c0.196-0.068,0.448-0.108,0.625-0.108c0-0.002,0.206-0.089,0.247-0.107
		c0.17-0.072,0.255-0.03,0.39-0.018c0.152,0.015,0.313-0.014,0.459-0.052c0.125-0.032,0.28-0.098,0.399-0.056
		c0.075,0.027,0.493-0.013,0.493,0.042c0.15,0,0.187,0.054,0.327,0.054c0,0.015,0.548,0.137,0.599,0.137
		c0,0.06,0.198,0.049,0.246,0.055c0.088,0.062,0.177,0.123,0.265,0.184c0.111,0.077,0.194,0.208,0.225,0.343
		c0.044,0.19,0.122,0.288,0.165,0.454c0.114,0.057,0.123,0.24,0.244,0.299c0.082,0.244,0.191,0.381,0.191,0.627
		c0.074,0,0.09,0.572,0.163,0.572c0,0.083,0.152,0.545,0.191,0.545c0.017,0.198,0.05,0.357,0.101,0.546
		c0.064,0.237-0.046,0.499-0.101,0.73c-0.023,0.098-0.094,0.282-0.191,0.332c0,0.069-0.061,0.196-0.109,0.244
		c-0.053,0.053-0.164,0.199-0.164,0.272c-0.028,0-0.136,0.227-0.136,0.272c-0.072,0-0.084,0.354-0.164,0.354
		c-0.018,0.07-0.104,0.301-0.164,0.301c0,0.19-0.163,0.409-0.163,0.654c-0.003,0-0.243,0.491-0.236,0.562
		c0.03,0.325-0.104,0.444-0.146,0.772c-0.021,0.168-0.082,0.272-0.082,0.409c-0.033,0-0.082,0.173-0.082,0.218
		c-0.096,0,0.014,0.49-0.081,0.49c-0.037,0.177-0.086,0.228-0.109,0.436c-0.012,0.104-0.115,0.681-0.164,0.681
		c0,0.054-0.046,0.301-0.082,0.301c0,0.247,0.022,0.406,0.007,0.654c-0.01,0.168-0.061,0.255-0.061,0.453
		c0,0.063-0.03,0.31-0.081,0.31c0,0.133-0.049,0.246-0.008,0.417c0.049,0.205,0.062,0.361,0.062,0.563
		c0.102,0,0.055,0.875,0.055,0.995c0,0.33-0.107,0.581-0.129,0.938c-0.021,0.344-0.253,0.521-0.306,0.791
		c-0.147,0.073-1.552,0.841-1.869,0.75c-0.075-0.021-0.032-0.068-0.12-0.068c0-0.06-0.152-0.084-0.199-0.101
		c-0.094-0.033-0.252-0.12-0.291-0.199c-0.048,0-0.6-0.212-0.6-0.19c-0.057,0-0.218-0.055-0.218-0.109
		c-0.053,0-0.146-0.038-0.191-0.081c-0.136-0.136-0.438-0.201-0.416-0.458c0.012-0.146,0.058-0.235-0.02-0.388
		c-0.056-0.049-0.074-0.299-0.109-0.299c0.017-0.434,0.082-0.765,0.082-1.155c0-0.41-0.027-0.844-0.027-1.215
		c-0.015,0,0.145-0.856,0.109-0.981c-0.045-0.161-0.05-0.48-0.162-0.584c-0.127-0.119-0.207-0.088-0.383-0.069
		c0,0.031-0.426,0.199-0.518,0.218c0,0.057-0.309,0.101-0.368,0.108c-0.159,0.022-0.265,0.108-0.395,0.108
		c0,0.112-0.681,0.041-0.681,0.191c-0.256,0-0.451,0.122-0.691,0.146c-0.292,0.029-0.396,0.154-0.689,0.154
		c-0.241,0-0.468,0.086-0.746,0.072c-0.246-0.01-0.419-0.11-0.662-0.04c-0.265,0.077-0.444-0.032-0.672-0.032
		c-0.167-0.036-0.46,0.055-0.708,0.055c0,0.087-1.824-0.19-1.989-0.19c0-0.058-0.681-0.11-0.681-0.218
		c-0.349-0.044-0.536-0.188-0.926-0.219c-0.166-0.072-0.377-0.218-0.559-0.218c-0.054,0-0.232-0.03-0.232-0.082
		c-0.088,0-0.518-0.121-0.518-0.218c-0.208,0-0.412-0.271-0.626-0.271c0-0.029-0.359-0.246-0.435-0.246
		c-0.107-0.115-0.325-0.271-0.382-0.382c-0.105,0-0.258-0.189-0.326-0.272c-0.069,0-0.217-0.134-0.246-0.19
		c-0.121-0.098-0.191-0.17-0.191-0.3c-0.01,0-0.146-0.223-0.163-0.271c-0.035,0-0.147-0.223-0.164-0.272
		c-0.072-0.219-0.133-0.462-0.169-0.666c-0.021-0.124-0.058-0.245-0.092-0.364c-0.012-0.046-0.093-0.168-0.095-0.185
		c-0.006-0.053-0.037-0.584-0.052-0.584c0-0.319-0.116-3.378-0.082-3.378c0-0.085,0.052-0.626,0.136-0.626
		c0-0.042,0.136-0.632,0.154-0.845c0.008-0.095,0.118-0.736,0.227-0.736c0-0.219,0.24-0.412,0.299-0.653
		c0.203-0.102,0.235-0.431,0.409-0.519c0-0.146,0.245-0.204,0.245-0.354c0.137-0.091,0.149-0.265,0.272-0.327
		c0-0.091,0.163-0.138,0.163-0.245c0.145-0.124,0.242-0.231,0.354-0.381c0.104-0.053,0.126-0.205,0.245-0.246
		c0.033-0.101,0.082-0.126,0.164-0.191c0-0.048,0.045-0.127,0.081-0.164c0.088-0.087,0.439-0.681,0.518-0.681
		c0.045-0.181,0.155-0.347,0.309-0.481c0.078-0.068,0.142-0.255,0.264-0.255c0.031-0.063,0.082-0.037,0.082-0.082
		c0.094,0,0.053-0.067,0.136-0.108c0-0.103,0.252-0.327,0.354-0.327c0.087-0.116,0.166-0.153,0.292-0.227
		c0.201-0.118,1.018-1.116,1.207-1.163c0.035-0.069,0.179-0.109,0.245-0.109c0-0.021,0.27-0.19,0.327-0.19
		c0.039-0.077,1.072-0.892,1.335-1.199c0.08,0,0.226-0.123,0.272-0.191c0.109-0.035,0.146-0.104,0.218-0.19
		c0.06,0,0.138-0.059,0.177-0.109c0.058-0.077,0.132-0.135,0.204-0.2c0.094-0.083,0.046-0.09,0.109-0.154
		c0.134-0.134,0.355-0.166,0.49-0.299c0.071-0.071,0.147-0.273,0.272-0.273c0.114-0.138,0.209-0.224,0.354-0.272
		c0.138-0.208,0.439-0.222,0.572-0.354c0.05-0.051,0.231-0.191,0.3-0.191c0.043-0.086,0.243-0.141,0.354-0.163
		c0-0.06,0.272-0.071,0.272-0.137c0.059-0.015,0.245-0.067,0.245-0.109c0.187-0.062,0.274-0.082,0.49-0.082
		c0-0.071,0.384-0.078,0.466-0.076c0.249,0.006,0.497,0.012,0.744,0.019c0.139,0.003,0.247-0.052,0.414-0.031
		c0.321,0.041,0.534,0.17,0.818,0.17c0.053,0,0.309,0.046,0.309,0.082c0.139,0.034,0.337,0.081,0.473,0.169
		c0.376,0.244,0.648,0.516,0.979,0.83c0.205,0.195,0.446,0.442,0.509,0.69c0.121,0.061,0.229,0.49,0.272,0.49
		c0,0.3,0.134,0.597,0.164,0.926c0.103,0,0.246,0.549,0.246,0.626c0.046,0,0.055,0.545,0.163,0.545c0,0.178,0.058,0.278,0.036,0.459
		c-0.022,0.176-0.118,0.347-0.118,0.521c-0.028,0-0.109,0.174-0.109,0.218c-0.132,0.1-0.224,0.229-0.346,0.339
		c-0.127,0.115-0.798,0.221-0.798,0.315c-0.237,0-0.427,0.117-0.699,0.094c-0.127-0.011-0.266-0.03-0.386-0.079
		c-0.107-0.043-0.134-0.162-0.222-0.206c0-0.129-0.19-0.171-0.19-0.3c-0.091-0.044-0.165-0.239-0.165-0.327
		c-0.107,0-0.122-0.471-0.272-0.545c0-0.037-0.205-0.491-0.245-0.491c0-0.175-0.294-0.417-0.422-0.572
		c-0.103-0.123-0.282-0.1-0.34-0.218c-0.176-0.035-0.306-0.101-0.409,0.054c-0.092,0-0.191,0.104-0.286,0.123
		c-0.151,0.03-0.238,0.164-0.381,0.205c-0.047,0.014-0.259,0.128-0.259,0.137c-0.096,0-0.179,0.068-0.3,0.108
		c0,0.074-0.291,0.127-0.354,0.191c-0.111,0.111-0.273,0.169-0.409,0.245c-0.091,0-0.246,0.138-0.3,0.218
		c-0.161,0.039-0.25,0.163-0.408,0.163c0,0.022-0.203,0.109-0.245,0.109c-0.097,0.107-0.305,0.253-0.354,0.354
		c-0.323,0.107-0.611,0.397-0.817,0.654c-0.178,0.044-0.299,0.196-0.431,0.338c-0.138,0.148-0.273,0.239-0.414,0.397
		c-0.094,0.106-0.225,0.3-0.354,0.3c-0.095,0.115-0.436,0.354-0.436,0.49c-0.111,0.086-0.299,0.196-0.299,0.327
		c-0.087,0.077-0.275,0.327-0.382,0.327c-0.031,0.063-0.082,0.038-0.082,0.082c-0.099,0.066-0.068,0.142-0.163,0.19
		c0,0.148-0.161,0.178-0.231,0.273c-0.098,0.128-0.368,0.284-0.368,0.435c-0.036,0-0.092,0.171-0.137,0.205
		c-0.105,0.079-0.208,0.248-0.245,0.396C101.715,25.145,101.575,25.436,101.426,25.436"/>
	<path id="path24_1_" fill="#9D9D9D" d="M140.629,23.284c-0.031,0.115-0.17,0.248-0.273,0.299c-0.063,0.189-0.117,0.276-0.136,0.491
		c-0.102,0.35-0.22,0.69,0.109,0.954c0,0.058,0.215,0.14,0.281,0.145c0.195,0.015,0.308,0.045,0.508,0.045
		c0,0.04,1.008,0.012,1.008-0.054c0.048,0,0.272-0.049,0.272-0.082c0.191-0.027,0.308-0.054,0.518-0.054
		c0.06,0,0.654-0.05,0.654-0.109c0.222-0.026,0.981-0.164,1.089-0.19c0.107-0.211,0.547-0.246,0.781-0.246
		c0.27,0,0.538-0.077,0.813-0.071c0.183,0.005,0.559,0.102,0.559,0.316c0.093,0.062,0.182,0.19,0.217,0.3
		c0.049,0.144,0.14,0.226,0.19,0.382c0.029,0,0.25,0.514,0.26,0.572c0.042,0.253,0.172,0.32,0.195,0.617
		c0.012,0.165,0.069,0.251,0.091,0.445c0.008,0,0.117,0.573,0.137,0.653c0.076,0,0.23,0.695,0.233,0.83
		c0.005,0.232-0.22,0.423-0.397,0.423c-0.103,0.153-0.282,0.158-0.463,0.191c0,0.028-0.179,0.111-0.231,0.122
		c-0.155,0.03-0.34,0.057-0.531,0.068c-0.202,0.06-0.423,0.137-0.634,0.137c-0.358,0-0.664,0.082-0.988,0.082
		c-0.141,0-0.324,0.001-0.504-0.018c-0.169-0.017-0.327,0.044-0.544,0.044c-0.121,0-1.09,0.046-1.09,0.082
		c-0.382,0.027-0.557,0.137-0.898,0.137c0,0.047-0.554,0.146-0.654,0.154c-0.148,0.012-0.303,0.063-0.449,0.063
		c-0.192,0-0.404-0.007-0.595,0.013c-0.115,0.013-0.194,0.068-0.318,0.068c-0.162,0-0.263,0.055-0.382,0.055
		c0,0.082-0.245,0.041-0.245,0.136c-0.101,0-0.223,0.086-0.3,0.164c0,0.089-0.168,0.276-0.245,0.327
		c-0.101,0.115-0.055,0.243-0.09,0.376c-0.095,0.358,0.02,0.484,0.227,0.741c0.098,0,0.194,0.136,0.299,0.136
		c0,0.022,0.204,0.109,0.246,0.109c0,0.089,0.462,0.218,0.599,0.245c0,0.062,0.763,0.065,0.763,0.19
		c0.142,0,0.232,0.055,0.409,0.055c0,0.153,0.448-0.007,0.518-0.028c0.279-0.016,0.538-0.082,0.763-0.082
		c0-0.064,0.396-0.125,0.491-0.136c0-0.098,0.392-0.249,0.463-0.354c0.091,0,0.153-0.082,0.259-0.082
		c0.132,0,0.225-0.027,0.331-0.018c0.161,0.014,0.184,0.032,0.304,0.121c0.05,0.038,0.195,0.178,0.195,0.196
		c0.114,0.104,0.447,0.638,0.531,0.709c0.111,0.095,0.456,0.707,0.478,0.98c-0.01,0,0.119,0.584,0.123,0.67
		c0.003,0.059-0.036,0.257-0.068,0.257c0,0.126-0.028,0.277-0.028,0.436c-0.045,0-0.082,0.519-0.082,0.599
		c-0.054,0-0.136,0.543-0.136,0.627c-0.136,0.067-0.057,0.232-0.19,0.3c0,0.314-0.714,0.766-0.714,0.643
		c0.356,0-1.956,0.689-1.956,0.558c-0.147,0.046-0.299-0.039-0.436-0.082c-0.185-0.019-0.296-0.058-0.472-0.073
		c-0.236-0.021-0.518-0.2-0.753-0.2c0-0.01-0.49-0.145-0.545-0.163c-0.219-0.073-0.421-0.19-0.654-0.19
		c0-0.076-0.218-0.03-0.218-0.109c-0.179-0.029-0.32-0.078-0.517-0.108c0-0.158-0.709-0.064-0.709-0.245
		c-0.063,0-0.544-0.185-0.544-0.245c-0.125-0.03-0.259-0.114-0.328-0.218c-0.143,0-0.211-0.218-0.354-0.218
		c-0.03-0.06-0.236-0.19-0.299-0.19c-0.048-0.07-0.219-0.219-0.3-0.219c-0.086-0.103-0.135-0.133-0.135-0.272
		c-0.017,0-0.056-0.101-0.109-0.136c0-0.01-0.239-0.096-0.272-0.164c-0.069-0.057-0.164-0.096-0.164-0.19
		c-0.088-0.044-0.021-0.065-0.109-0.108c0-0.15-0.244-0.207-0.244-0.354c-0.069-0.033-0.109-0.132-0.124-0.204
		c-0.03-0.15-0.041,0.026-0.041-0.178c-0.006,0-0.082-0.152-0.082-0.189c-0.128-0.068-0.178-0.519-0.244-0.519
		c0-0.214-0.164-0.444-0.164-0.654c-0.104,0-0.005-1.034-0.137-1.034c0-0.149-0.054-0.198-0.054-0.382
		c-0.05,0-0.028-0.587-0.028-0.674c0-0.107,0.124-0.743,0.082-0.743c0-0.19,0.028-0.407,0.028-0.559
		c0-0.113,0.082-0.185,0.082-0.313c0-0.542,0.25-0.922,0.344-1.399c0.054-0.268,0.228-0.445,0.228-0.727
		c0.063-0.031,0.137-0.177,0.137-0.245c0.025,0,0.108-0.159,0.108-0.218c0.054-0.027,0.097-0.19,0.136-0.19
		c0-0.047,0.12-0.299,0.164-0.299c0.071-0.282,0.225-0.449,0.272-0.736c0.076,0,0.069-0.626,0.163-0.626
		c0.099-0.328-0.122-0.671-0.354-0.845c0-0.04-0.047-0.163-0.082-0.163c0-0.16-0.141-0.12-0.191-0.244
		c-0.05-0.128-0.244-0.244-0.244-0.356c-0.061,0-0.028-0.173-0.028-0.218c-0.113-0.089-0.171-0.166-0.245-0.291
		c-0.145-0.239-0.109-0.715-0.109-0.953c0-0.283-0.048-0.558,0.009-0.878c0.031-0.176,0.045-0.372,0.045-0.521
		c0.01,0,0.164-0.307,0.164-0.354c0.116-0.077,0.216-0.381,0.382-0.381c0.034-0.069,0.125-0.12,0.19-0.164
		c0-0.089,0.109-0.136,0.171-0.199c0.167-0.167,0.339-0.321,0.564-0.4c0.225-0.079,0.482-0.024,0.715-0.036
		c0.354-0.017,0.546-0.266,0.866-0.372c0.334-0.112,0.488-0.217,0.926-0.273c0-0.044,0.283-0.109,0.345-0.109
		c0.215,0,0.273,0.003,0.513,0.02c0.155,0.011,0.236-0.069,0.377-0.084c0.197-0.02,1.908-0.427,1.952-0.427
		c0-0.108,0.723-0.205,0.845-0.245c0.147-0.049,0.157-0.082,0.354-0.082c0.132,0,0.239-0.054,0.368-0.054
		c0.207,0,0.642-0.168,0.695-0.177c0.134-0.022,0.175-0.07,0.354-0.079c0.228-0.012,0.35-0.049,0.563-0.098
		c0.048-0.011,0.337-0.097,0.337-0.109c0.301,0,0.531-0.082,0.817-0.082c0,0.045,0.874-0.056,1.009-0.069
		c0.098-0.01,0.789-0.069,0.789,0.069c0.168,0.042,0.209,0.176,0.382,0.218c0.109,0.136,0.197,0.296,0.326,0.381
		c0.034,0.135,0.163,0.308,0.273,0.382c0,0.045,0.122,0.246,0.164,0.246c0.014,0.057,0.103,0.245,0.136,0.245
		c0.037,0.175,0.136,0.431,0.136,0.573c0.123,0,0.199,0.49,0.3,0.49c0.037,0.157,0.136,0.391,0.136,0.518
		c0.038,0,0.153,0.256,0.164,0.3c0.124,0.063,0.104,0.247,0.096,0.367c-0.009,0.131,0.017,0.183-0.096,0.259
		c-0.045,0.132-0.108,0.054-0.108,0.2c0,0.221-0.056,0.264-0.246,0.386c-0.143,0.092-0.311,0.176-0.436,0.176
		c0,0.08-0.455,0.123-0.558,0.13c-0.181,0.013-0.289,0.116-0.49,0.116c-0.097,0-0.804,0.124-0.804,0.136
		c-0.181,0-0.35,0.137-0.563,0.137c-0.202,0-0.328,0.082-0.486,0.082c-0.237,0-0.516,0.082-0.749,0.082
		c-0.231,0-0.355,0.082-0.563,0.082c-0.246,0-0.348,0.109-0.554,0.109c-0.159,0-0.268,0.109-0.409,0.109
		c0,0.141-0.506,0.151-0.631,0.158c-0.087,0.004-0.539,0.086-0.539,0.141c-0.21,0-0.292,0.109-0.491,0.109
		c0,0.085-0.3,0.062-0.3,0.137c-0.063,0.005-0.382,0-0.382,0.055c-0.084,0-0.123,0.054-0.218,0.054c0,0.086-0.433,0.101-0.544,0.109
		C141.146,22.987,140.72,23.258,140.629,23.284"/>
	<path id="path26_1_" fill="#9D9D9D" d="M153.487,30.584c-0.053,0.196-0.248,0.229-0.319,0.392
		c-0.079,0.181-0.092,0.422-0.064,0.613c0.032,0.217,0.208,0.277,0.302,0.467c0.092,0.03,0.491,0.171,0.491,0.218
		c0.069,0,0.517,0.073,0.517,0.136c0.171,0,0.404,0.108,0.545,0.108c0,0.163,1.634,0.155,1.634,0.056
		c0.034-0.002,0.206,0.036,0.272,0.041c0.044,0.002,0.245,0.047,0.245-0.014c0.159,0,0.014-0.027,0.137-0.027
		c0-0.126,0.543-0.136,0.654-0.136c0-0.113,0.424-0.06,0.49-0.191c0.092,0,0.243-0.168,0.3-0.245c0.128,0,0.17-0.19,0.3-0.19
		c0.031-0.063,0.212-0.164,0.272-0.164c0-0.002,0.251-0.084,0.304-0.094c0.29-0.052,0.344,0.202,0.596,0.284
		c0,0.065,0.058,0.177,0.105,0.247c0.075,0.112,0.186,0.185,0.28,0.279c0.077,0.075,0.078,0.099,0.078,0.21
		c0,0.151,0.065,0.113,0.109,0.245c0.038,0.115,0.144,0.212,0.151,0.311c0.008,0.1,0.229,0.348,0.229,0.506
		c0.176,0.088,0.218,0.92,0.218,1.09c0.04,0.229-0.044,0.384-0.068,0.572c-0.022,0.175-0.056,0.364-0.069,0.571
		c-0.016,0-0.089,0.232-0.1,0.283c-0.043,0.216-0.156,0.537-0.39,0.617c-0.094,0.278-0.359,0.36-0.637,0.419
		c-0.081,0.017-0.588,0.153-0.588,0.234c-0.147,0.036-0.256,0.103-0.435,0.111c-0.19,0.01-1.571,0.211-1.731,0.229
		c-0.196,0.021-1.027,0.225-1.13,0.096c-0.091,0-0.045-0.055-0.137-0.055c0-0.052-0.27-0.01-0.326-0.006
		c-0.149,0.009-0.2,0.042-0.37-0.034c-0.149-0.065-0.197-0.068-0.351-0.021c-0.16,0.052-0.549-0.08-0.615-0.212
		c-0.089,0-0.158-0.059-0.29-0.072c-0.13-0.012-0.263-0.056-0.391-0.077c-0.044-0.007-0.272-0.122-0.272-0.149
		c-0.098-0.006-0.573-0.009-0.573-0.082c-0.11-0.016-0.599-0.122-0.599-0.19c-0.144-0.033-0.376-0.043-0.436-0.163
		c-0.117,0-0.214-0.233-0.355-0.273c-0.032-0.132-0.136-0.135-0.136-0.271c-0.032,0-0.082-0.173-0.082-0.218
		c-0.011,0-0.189-0.226-0.245-0.273c0-0.119-0.108-0.2-0.108-0.326c-0.13,0-0.224-0.545-0.327-0.545
		c-0.029-0.114-0.114-0.25-0.191-0.327c-0.083-0.083-0.354-0.143-0.354-0.3c-0.061-0.046-0.108-0.056-0.108-0.136
		c-0.107-0.071-0.041-0.115-0.136-0.163c0-0.047-0.107-0.219-0.137-0.219c0-0.094-0.169-0.709-0.218-0.709
		c0-0.077-0.1-0.844-0.109-0.844c-0.064-0.211-0.063-0.515-0.032-0.732c0.042-0.3,0.088-0.573,0.102-0.903
		c0.018-0.482,0.219-0.909,0.258-1.39c0.011-0.13,0.071-0.653,0.164-0.653c0-0.11,0.081-0.708,0.164-0.708
		c0-0.112,0.027-0.285,0.027-0.436c0.027,0,0.082-0.225,0.082-0.273c0.029,0,0.137-0.604,0.137-0.69c0-0.111,0.05-0.808,0.135-0.808
		c0.026-0.101,0.186-0.653,0.218-0.653c0-0.235,0.218-0.466,0.3-0.709c0.045,0,0.101-0.31,0.19-0.354c0-0.114,0.088-0.2,0.109-0.326
		c0.064,0,0.115-0.264,0.19-0.301c0-0.098,0.124-0.236,0.164-0.354c0.037,0,0.217-0.546,0.217-0.6c0.02,0,0.164-0.36,0.164-0.409
		c0.055,0,0.245-0.691,0.245-0.763c0.034,0,0.074-0.892,0.069-1.004c-0.006-0.196-0.006-0.377,0.026-0.535
		c0.019-0.092,0.068-0.064,0.068-0.15c0.084-0.067,0.104-0.131,0.164-0.19c0.088-0.088,0.209-0.126,0.299-0.231
		c0.096-0.112,0.223-0.188,0.354-0.231c0.195-0.065,0.954-0.406,0.954-0.436c0.177,0-0.021-0.027,0.191-0.027
		c0-0.084,0.097,0.006,0.136,0c0-0.055,0.272-0.042,0.272-0.137c0.068,0,0.409-0.058,0.409-0.108c0.291,0,0.61-0.088,0.913-0.122
		c0.181-0.021,0.244-0.068,0.448-0.051c0.167,0.014,0.317-0.063,0.519-0.1c0-0.081,0.734-0.016,0.734-0.137
		c0.12,0,0.791-0.035,0.791-0.136c0.283-0.041,0.598-0.072,0.871-0.163c0.049-0.017,0.191-0.078,0.191-0.109
		c0.084-0.01,0.409-0.055,0.409-0.109c0.115,0,0.816,0.04,0.816-0.109c0.126,0,0.184-0.055,0.354-0.055
		c0-0.01,0.313-0.082,0.355-0.082c0.138,0,0.224-0.055,0.395-0.055c0.202,0,0.384-0.039,0.581-0.086
		c0.137-0.032,1.259,0.012,1.259,0.059c0.226,0,0.399,0.164,0.655,0.164c0,0.067,0.054-0.012,0.054,0.055
		c0.123,0,0.175,0.079,0.268,0.156c0.087,0.072,0.445,0.443,0.495,0.443c0.078,0.321,0.195,0.675,0.491,0.872
		c0,0.06,0.09,0.2,0.135,0.245c0.05,0.049,0.061,0.125,0.082,0.191c0.054,0.026,0.109,0.104,0.109,0.164
		c0.021,0,0.247,0.453,0.256,0.505c0.063,0.352-0.126,1.282-0.339,1.456c-0.094,0.055-0.184,0.104-0.296,0.115
		c-0.352,0.035-0.616,0.112-1.011,0.063c-0.174-0.021-1.395,0.232-1.485,0.232c-0.119,0-0.272,0.054-0.395,0.054
		c0,0.029-0.179,0.082-0.218,0.082c0,0.069-0.33,0.055-0.408,0.055c0-0.046-0.266,0.055-0.341,0.055
		c-0.673,0-1.289,0.136-1.947,0.136c-0.354,0-1.717,0.196-1.717,0.245c-0.063,0-0.3,0.085-0.3,0.136
		c-0.113,0-0.176,0.063-0.317,0.091c-0.125,0.025-0.194,0.182-0.309,0.182c-0.038,0.077-0.226,0.191-0.299,0.191
		c-0.04,0.078-0.097,0.065-0.15,0.136c-0.065,0.086-0.154,0.136-0.231,0.245c-0.091,0.073-0.181,0.146-0.272,0.218
		c-0.039,0.12-0.077,0.24-0.115,0.359c-0.051,0.163-0.124,0.389-0.267,0.485c0,0.065-0.134,0.243-0.19,0.285
		c-0.178,0.134-0.137,0.323-0.137,0.478c0.167,0.082,0.193,0.231,0.403,0.253c0.182,0.02,0.277-0.035,0.441-0.035
		c0-0.055,0.817-0.035,0.817-0.137c0.162,0,1.417-0.198,1.417-0.272c0.243,0,0.473-0.105,0.709-0.164
		c0-0.082,0.462-0.144,0.462-0.218c0.174-0.016,0.344,0.002,0.437-0.136c0.059,0,0.247-0.114,0.272-0.164
		c0.077-0.026,0.491-0.123,0.491-0.191c0.085,0,0.233-0.101,0.36-0.112c0.121-0.01,0.181,0.058,0.293,0.058
		c0,0.009,0.205,0.137,0.245,0.137c0.044,0.089,0.135,0.083,0.227,0.108c0.14,0.039,0.064,0.026,0.168,0.109
		c0.088,0.071,0.099,0.139,0.19,0.218c0.062,0.052,0.177,0.168,0.177,0.245c0.159,0.106,0.354,0.506,0.354,0.682
		c0.138,0,0.228,0.544,0.3,0.544c0,0.078,0.056,0.206,0.136,0.245c0,0.038,0.096,0.245,0.109,0.245c0,0.131,0.054,0.255,0.054,0.381
		c0,0.147,0,0.264,0,0.436c-0.12,0,0.052,0.844-0.054,0.844c0,0.135-0.122,0.414-0.272,0.491c0,0.184-0.408,0.299-0.545,0.299
		c0,0.076-0.219,0.03-0.219,0.108c-0.18,0.046-0.303,0.11-0.503,0.123c-0.293,0.021-0.404,0.184-0.695,0.231
		c0,0.012-0.317,0.071-0.382,0.083c0,0.084-0.245,0.079-0.245,0.136c-0.227,0.018-0.877,0.136-0.926,0.136
		c0,0.107-2.242,0.327-2.343,0.327c0,0.046-0.217,0.082-0.272,0.082c0-0.002-0.926,0.143-0.926,0.027
		c-0.049,0-0.076,0.058-0.16,0.072c-0.104,0.019-0.208,0.036-0.313,0.055c-0.229,0.04-0.44,0.022-0.672,0.009
		c0,0.103-0.709,0.084-0.709,0.191c-0.133,0-0.219,0.054-0.354,0.054c-0.108,0-0.218,0-0.327,0
		C153.677,30.486,153.545,30.568,153.487,30.584"/>
	<path id="path28_1_" fill="#9D9D9D" d="M194.841,22.576c0,0.037-0.232,0.191-0.271,0.191c-0.045,0.092-0.255,0.192-0.354,0.217
		c-0.027,0.055-0.156,0.137-0.218,0.137c-0.038,0.077-0.138,0.109-0.217,0.109c0,0.039-0.273,0.15-0.328,0.164
		c-0.111,0.171-0.345,0.23-0.545,0.293c-0.222,0.069-0.419,0.17-0.653,0.17c0,0.092-0.386,0.084-0.459,0.086
		c-0.19,0.002-0.336,0-0.495-0.113c-0.054-0.079-0.081-0.062-0.081-0.136c-0.108-0.072-0.041-0.115-0.137-0.164
		c-0.019-0.1-0.065-0.545-0.136-0.545c0-0.098-0.102-0.708-0.164-0.708c0-0.065-0.02-0.382-0.055-0.382
		c0.007-0.123,0.014-0.245,0.021-0.367c0.006-0.128-0.05-0.186-0.048-0.331c0.006-0.208,0.016-0.443,0.256-0.486
		c0.209-0.039,0.401-0.042,0.615-0.042c0.16-0.027,0.218,0,0.382,0c0,0.065,0.3,0.044,0.3,0.109c0.202,0,0.326,0.027,0.517,0.027
		c0.128,0,0.235,0.054,0.355,0.054c0.157,0,0.377,0.044,0.572,0.055c0,0.001,0.271,0.089,0.313,0.095
		c0.204,0.03,0.354,0.15,0.532,0.15c0,0.136,0.557,0.123,0.675,0.307c0.05,0.078,0.154,0.483,0.005,0.483
		C195.14,22.197,195.071,22.387,194.841,22.576 M216.363,18.408c0.161,0,0.325,1.307,0.245,1.307c0,0.049,0.009,0.559-0.004,0.736
		c-0.012,0.187-0.054,0.386-0.16,0.544c-0.054,0.044-0.326,0.254-0.326,0.245c-0.065,0-0.463,0.228-0.463,0.246
		c-0.247,0-0.488,0.164-0.762,0.164c0,0.01-0.74,0.083-0.835,0.114c-0.429,0.143-0.868,0.197-1.291,0.239
		c0,0.106-0.681,0.041-0.681,0.137c-0.281,0-0.544,0.157-0.886,0.177c-0.119,0.007-0.722,0.099-0.722,0.177
		c-0.171,0.011-0.354,0.055-0.49,0.055c0,0.058-0.3,0.089-0.382,0.096c-0.317,0.022-0.465,0.122-0.817,0.177
		c0,0.052-0.571,0.163-0.654,0.163c0,0.122-0.794,0.183-0.944,0.203c-0.134,0.018-0.237,0.125-0.362,0.125
		c0,0.062-0.355,0.082-0.437,0.082c0,0.045-0.627,0.118-0.627,0.218c-0.054,0-0.272,0.039-0.272,0.082
		c-0.109,0-0.158,0.136-0.272,0.136c-0.063,0.128-0.244,0.192-0.244,0.327c-0.094,0.062-0.182,0.191-0.219,0.299
		c-0.018,0.052-0.111,0.218-0.136,0.218c-0.038,0.117-0.077,0.086-0.109,0.218c-0.053,0.027-0.136,0.127-0.136,0.19
		c-0.077,0.051-0.245,0.238-0.245,0.328c-0.076,0.038-0.134,0.299-0.163,0.299c0.009,0.1,0.018,0.2,0.027,0.3
		c0.083,0.027,0.163,0.054,0.244,0.081c0.096,0.118,0.203,0.218,0.328,0.218c0,0.125,0.783-0.001,0.908,0
		c0.421,0.008,0.811-0.027,1.22-0.118c0.202-0.045,0.389-0.046,0.597-0.046c0-0.068,0.33-0.055,0.408-0.055
		c0-0.033,0.845-0.049,0.845-0.163c0.086-0.013,0.436-0.044,0.436-0.109c0.155-0.039,0.305-0.136,0.463-0.136
		c0-0.019,0.467-0.246,0.56-0.259c0.096-0.014,0.242-0.065,0.285-0.15c0.05,0,0.18-0.071,0.217-0.109
		c0.067-0.067,0.2-0.138,0.301-0.164c0.056-0.084,0.327-0.186,0.327-0.245c0.257,0,0.441,0.096,0.676,0.196
		c0.126,0.054,0.387,0.218,0.387,0.376c0.086,0,0.104,0.327,0.19,0.327c0.085,0.254,0.189,0.462,0.245,0.681
		c0.035,0,0.19,0.495,0.204,0.573c0.009,0.058,0.202,0.544,0.205,0.544c0,0.095,0.112,1.063,0,1.063
		c0,0.081-0.103,0.381-0.164,0.381c0,0.042-0.086,0.245-0.109,0.245c0,0.121-0.069,0.239-0.163,0.363
		c-0.062,0.081-0.437,0.243-0.437,0.291c-0.033,0-0.244,0.115-0.244,0.136c-0.129,0-0.212,0.082-0.342,0.082
		c-0.043,0-0.341,0.068-0.341,0.108c-0.202,0-0.382,0.027-0.583,0.05c-0.455,0.053-1.748,0.291-1.969,0.284
		c-0.242-0.008-4.517,0.646-4.851,0.646c-0.375,0-0.579,0.084-0.981,0.103c-0.251,0.013-0.409,0.159-0.633,0.233
		c-0.094,0.031-0.198,0.034-0.246,0.127c-0.095,0-0.066,0.082-0.162,0.082c-0.089,0.103-0.18,0.245-0.272,0.326
		c-0.019,0.165,0,0.278,0,0.437c0.054,0,0.205,0.317,0.272,0.367c0.075,0.056,0.188,0.176,0.244,0.259
		c0.118,0,0.288,0.119,0.354,0.219c0.08,0,0.253,0.147,0.3,0.218c0.117,0,0.146,0.108,0.271,0.108c0,0.064,0.689,0.136,0.82,0.143
		c0.413,0.025,0.838-0.05,1.232-0.173c0.071-0.022,0.454-0.053,0.454-0.105c0.055-0.014,0.301-0.086,0.301-0.137
		c0.168-0.04,0.19-0.108,0.381-0.136c0-0.068,0.245-0.04,0.245-0.108c0.05,0,0.245-0.044,0.245-0.081
		c0.195-0.022,0.269-0.015,0.382-0.164c0.172,0,0.333-0.19,0.518-0.19c0-0.012,0.45-0.19,0.518-0.19c0-0.043,0.66-0.146,0.764-0.155
		c0.207-0.018,0.377,0.222,0.531,0.346c0.091,0.073,0.131,0.223,0.23,0.271c0.021,0.083,0.107,0.408,0.164,0.408
		c0.057,0.256,0.19,0.392,0.19,0.6c0.119,0,0.081,1.008,0.081,1.172c0.095,0,0,0.771,0,0.816c-0.037,0-0.063,0.518-0.09,0.6
		c-0.05,0.149-0.137,0.401-0.264,0.463c0,0.146-0.336,0.361-0.436,0.477c-0.059,0.068-0.221,0.178-0.301,0.178
		c0,0.021-0.154,0.081-0.19,0.081c-0.049,0.102-0.273,0.192-0.382,0.219c-0.069,0.141-0.446,0.245-0.57,0.245
		c0,0.088-0.521,0.139-0.601,0.3c-0.126,0-0.374,0.139-0.526,0.19c-0.233,0.081-0.427,0.082-0.672,0.082
		c0,0.071-0.218-0.001-0.218,0.081c-0.167,0.052-0.968-0.052-1.117-0.059c-0.22-0.009-0.44-0.015-0.66-0.025
		c-0.2-0.009-0.395-0.079-0.593-0.079c-0.074,0-0.464,0.011-0.464-0.055c-0.222,0-0.433-0.12-0.639-0.149
		c-0.119-0.017-0.696-0.086-0.696-0.177c-0.094,0-0.171-0.062-0.3-0.082c0-0.021-0.21-0.137-0.244-0.137
		c-0.056-0.111-0.409-0.133-0.409-0.218c-0.046,0-0.299-0.146-0.299-0.164c-0.134-0.032-0.277-0.102-0.355-0.217
		c-0.137,0-0.186-0.219-0.326-0.219c-0.107-0.128-0.32-0.228-0.382-0.354c-0.261,0-0.378-0.443-0.537-0.581
		c-0.126-0.111-0.184-0.31-0.308-0.372c0-0.083-0.057-0.089-0.082-0.192c-0.099-0.051-0.035-0.14-0.136-0.189
		c-0.029-0.115-0.136-0.183-0.136-0.3c-0.029,0-0.137-0.196-0.137-0.245c-0.11,0-0.218-0.828-0.218-0.94
		c0-0.222-0.086-0.535-0.13-0.817c-0.028-0.182-0.047-0.376-0.007-0.558c-0.033-0.258-0.044-0.52,0.005-0.777
		c0.038-0.199,0.022-0.408,0.022-0.611c0.035,0,0.054-0.317,0.054-0.382c0.048,0,0.146-0.599,0.15-0.695
		c0.016-0.273,0.178-0.508,0.178-0.749c-0.019,0,0.218-0.665,0.218-0.709c0.107,0,0.12-0.544,0.19-0.544c0-0.05,0.049-0.3,0.082-0.3
		c0-0.12,0.007-0.302,0.109-0.354c0.025-0.128,0.081-0.161,0.081-0.272c0.022,0,0.108-0.203,0.108-0.245
		c0.104,0,0.155-0.49,0.244-0.49c0.043-0.251,0.118-0.376,0.191-0.6c0.03-0.094,0.109-0.183,0.109-0.272
		c0.063,0,0.121-0.566,0.136-0.654c-0.101,0-0.145-0.007-0.19,0.164c-0.127,0.03-0.217,0.136-0.326,0.136
		c0,0.026-0.219,0.113-0.272,0.123c-0.133,0.022-2.433,1.844-2.494,1.893c-0.106,0.086-0.148,0.137-0.284,0.137
		c0,0.064-0.395,0.19-0.464,0.19c0,0.077-0.272,0.029-0.272,0.109c-0.091,0.009-0.182,0.018-0.272,0.028
		c-0.024,0.047-0.079,0.089-0.13,0.114c-0.072,0.038-0.173,0.136-0.225,0.213c-0.026,0-0.299,0.124-0.299,0.136
		c-0.092,0-0.6,0.122-0.6,0.19c-0.062,0.009-0.382,0.063-0.382,0.109c-0.11,0.028-0.226,0.109-0.326,0.109
		c0,0.08-0.409,0.13-0.409,0.217c-0.349,0.088-0.751,0.212-1.145,0.261c-0.142,0.018-0.155,0.068-0.245,0.176
		c-0.062,0-0.037,0.1-0.108,0.137c-0.045,0.177-0.132,0.263-0.146,0.444c-0.027,0.343-0.085,0.612-0.127,0.944
		c-0.104,0-0.137,0.509-0.137,0.627c-0.033,0-0.025,1.063-0.137,1.063c0,0.107-0.058,0.708-0.163,0.708
		c0,0.116-0.034,1.145-0.055,1.145c0,0.105-0.123,0.98-0.055,0.98c0.035,0.128,0.01,0.29-0.016,0.419
		c-0.025,0.128-0.011,0.212-0.011,0.391c0,0.056-0.164,1.155-0.157,1.294c0.009,0.126-0.034,0.2-0.034,0.295
		c-0.018,0-0.093,0.142-0.136,0.178c-0.095,0.079-0.206,0.133-0.271,0.23c-0.09,0-0.182,0.108-0.273,0.108
		c0,0.072-0.242,0.083-0.299,0.083c0,0.077-0.822,0.108-0.961,0.108c-0.146,0-0.22-0.058-0.376-0.108
		c0-0.03-0.171-0.137-0.216-0.137c-0.046-0.089-0.179-0.123-0.246-0.19c-0.08-0.08-0.236-0.064-0.3-0.191
		c-0.131,0-0.571-0.437-0.571-0.572c-0.099-0.048-0.087-0.664-0.218-0.707c-0.02-0.137-0.037-0.273-0.056-0.409
		c-0.098,0,0.048-1.165,0.028-1.226c-0.066-0.203,0.081-0.869,0.081-1.056c0-0.13-0.057-0.22-0.045-0.343
		c0.013-0.141,0.073-0.201,0.073-0.305c0-0.134-0.052-1.239,0.08-1.239c0-0.135,0.056-0.208,0.056-0.381
		c0.018,0,0.088-0.982,0.054-1.117c-0.055-0.033-0.437-0.214-0.437-0.219c-0.111,0-0.203-0.163-0.326-0.163
		c-0.086-0.128-0.242-0.183-0.341-0.301c-0.079-0.094-0.313-0.195-0.313-0.326c-0.029,0-0.147-0.24-0.19-0.3
		c-0.11,0-0.239-0.17-0.272-0.272c-0.142-0.07-0.245-0.376-0.245-0.518c-0.007,0-0.163-0.45-0.163-0.49
		c-0.038,0,0.354-2.069,0.354-2.152c0.07,0,0.099-0.437,0.189-0.437c0-0.195,0.4-0.433,0.573-0.49
		c0.163-0.055,0.255-0.063,0.455-0.041c0.082,0.009,0.389-0.045,0.389-0.096c0.141,0,0.294-0.073,0.437-0.109
		c0.073-0.086,0.134-0.173,0.23-0.231c0.095-0.057,0.034-0.079,0.123-0.123c0.05-0.145,0.144-0.31,0.207-0.474
		c0.079-0.205,0.011-0.485,0.019-0.705c0.018-0.479,0.044-0.958,0.074-1.436c0.012,0-0.228-0.291-0.245-0.327
		c-0.076-0.011-0.354-0.06-0.354-0.109c-0.149,0-0.224-0.035-0.4,0.037c-0.176,0.07-0.365,0.054-0.553,0.061
		c-0.081,0.002-0.435,0-0.435,0.066c-0.128,0-0.193,0.082-0.315,0.082c-0.186,0-0.377,0.245-0.586,0.245
		c0,0.039-0.218,0.164-0.272,0.164c-0.086,0.13-0.198,0.165-0.354,0.191c0,0.094-0.599,0.152-0.734,0.164
		c0,0.081-0.803-0.082-0.858-0.082c-0.187,0-0.401-0.164-0.559-0.164c-0.148-0.137-0.322-0.268-0.436-0.436
		c-0.213-0.019-0.32-0.046-0.457,0.063c-0.12,0.094-0.124,0.278-0.124,0.415c0,0.16-0.068,0.28-0.112,0.43
		c-0.095,0.324,0.265,0.443,0.252,0.727c-0.016,0.318,0.032,0.546,0.013,0.868c-0.006,0.107-0.006,0.227-0.035,0.331
		c-0.055,0.195,0.028,0.405-0.027,0.6c0.01,0.414,0.068,0.852-0.015,1.256c-0.032,0.158,0.015,0.241,0.015,0.405
		c0,0.226,0.009,0.445,0.01,0.669c0.003,0.178-0.077,0.37-0.095,0.549c-0.022,0.21-0.024,0.423-0.024,0.634
		c0.003,0.076,0.049,0.546,0,0.546c0,0.216-0.055,0.395-0.055,0.585c0,0.265-0.112,0.425-0.09,0.714
		c0.026,0.341-0.013,0.761-0.054,1.18c-0.038,0.383-0.091,0.723-0.066,1.076c0.009,0.132,0.068,0.668,0.156,0.668
		c0,0.338,0.054,0.818,0.054,1.158c0,0.109,0.055,0.196,0.055,0.3c0,0.174,0.001,0.422-0.006,0.638
		c-0.003,0.125-0.077,1.064-0.13,1.064c0,0.09-0.102,0.654-0.163,0.654c0,0.046-0.188,0.49-0.191,0.49
		c0,0.049-0.044,0.245-0.082,0.245c0,0.121-0.191,0.225-0.191,0.354c-0.038,0.033-0.354,0.247-0.354,0.219
		c-0.125,0-0.217,0.089-0.369,0.089c-0.044,0.001-1.297-0.008-1.416-0.008c-0.296,0-0.473-0.067-0.748-0.137
		c-0.117-0.146-0.198-0.246-0.341-0.367c-0.143-0.121-0.228-0.304-0.368-0.408c-0.068-0.051-0.136-0.16-0.136-0.232
		c-0.097,0-0.061-0.408-0.165-0.408c0-0.062-0.147-0.436-0.19-0.436c-0.013-0.079-0.06-0.437-0.108-0.437c0-0.263,0-0.526,0-0.79
		c-0.074,0-0.093-0.599-0.164-0.599c0-0.068-0.127-0.545-0.19-0.545c-0.023-0.068-0.137-0.409-0.164-0.409
		c-0.04-0.155-0.135-0.244-0.191-0.408c-0.081-0.054-0.218-0.208-0.218-0.3c-0.12-0.06-0.13-0.437-0.245-0.437
		c0-0.133-0.182-0.203-0.219-0.354c-0.115-0.087-0.132-0.243-0.245-0.3c0-0.056-0.166-0.302-0.218-0.327
		c0-0.15-0.124-0.167-0.218-0.285c-0.034-0.043-0.214-0.286-0.218-0.286c0-0.041-0.048-0.164-0.082-0.164
		c0-0.084-0.078-0.215-0.164-0.285c-0.171-0.145-0.141-0.287-0.245-0.457c-0.071-0.116-0.19-0.266-0.19-0.375
		c-0.058,0-0.05-0.229-0.136-0.272c0-0.159-0.272-0.225-0.272-0.382c-0.118-0.06-0.277-0.291-0.381-0.408
		c-0.081,0-0.083-0.059-0.152-0.107c-0.091-0.063-0.135-0.066-0.249-0.048c-0.047,0.007-0.144,0.015-0.144,0.073
		c-0.121,0-0.084,0.082-0.19,0.082c0,0.073-0.082,0.049-0.082,0.136c-0.09,0.046-0.054,0.125-0.054,0.219
		c0,0.062-0.022,0.463-0.082,0.463c0,0.115-0.223,1.063-0.245,1.063c0,0.26-0.19,0.614-0.19,0.898c-0.027,0-0.164,0.349-0.164,0.409
		c-0.117,0-0.024,0.708-0.137,0.708c0,0.065,0.076,0.681,0.028,0.681c0,0.434-0.083,0.653-0.083,1.056c0,0.221,0,0.44,0,0.66
		c0,0.205-0.099,0.407-0.163,0.6c-0.008,0.075-0.025,0.519-0.082,0.519c0,0.125-0.082,0.167-0.082,0.299
		c-0.028,0-0.164,0.385-0.164,0.438c-0.236,0.111-0.228,0.508-0.615,0.411c-0.087-0.021-0.937-0.112-1.082-0.112
		c-0.188,0-0.36-0.027-0.539-0.027c0-0.06-0.697-0.033-0.79-0.219c-0.134-0.029-0.222-0.019-0.299-0.136
		c-0.081,0-0.095-0.092-0.165-0.149c-0.174-0.146-0.167-0.371-0.202-0.607c-0.03-0.211-0.161-0.311-0.167-0.53
		c-0.004-0.138,0.014-0.277,0.036-0.414c0.031-0.2-0.039-0.37-0.059-0.564c-0.015-0.143,0.052-0.279,0.08-0.417
		c0.035-0.168-0.018-0.253-0.028-0.423c-0.007-0.106,0.106-0.735,0.068-0.735c0.004-0.075,0-0.518,0.054-0.518
		c0-0.061,0.025-0.245,0.082-0.245c0.089-0.395,0.137-0.754,0.173-1.208c0.041-0.54,0.263-0.792,0.263-1.353
		c0.1,0,0.056-0.654,0.164-0.654c0-0.244,0.163-0.507,0.163-0.763c0.049,0,0.179-0.798,0.218-0.927c0-0.306,0.084-0.654,0.167-1.006
		c0.051-0.221,0.099-0.442,0.156-0.662c0.06-0.231,0.048-0.431,0.037-0.669c-0.011-0.225,0.002-0.451,0.051-0.671
		c0.046-0.206,0.02-0.393,0.04-0.6c0.02-0.211,0.012-0.425,0.012-0.638c0-0.139,0.077-0.312,0.059-0.441
		c-0.057-0.424-0.085-0.815-0.114-1.225c-0.045,0-0.163-0.366-0.163-0.436c-0.088,0-0.119-0.926-0.028-0.926
		c0-0.103,0.059-0.193,0.073-0.336c0.013-0.146,0.006-0.163-0.004-0.359c-0.021-0.365,0.095-0.658,0.095-1.008
		c0-0.216,0.108-0.448,0.108-0.694c-0.017,0,0.327-0.56,0.327-0.626c0.092,0,0.14-0.164,0.245-0.164c0.06-0.075,0.3-0.207,0.3-0.245
		c0.112,0,0.167-0.065,0.3-0.109c0-0.03,0.261-0.098,0.327-0.109c0-0.179,0.849-0.029,0.988-0.02
		c0.216,0.012,0.323,0.039,0.511,0.102c0.184,0.061,0.298,0.224,0.49,0.272c0,0.106,0.436,0.142,0.436,0.218
		c0.089,0,0.23,0.054,0.272,0.136c0.099,0,0.244,0.279,0.244,0.354c0.195,0,0.153,0.872,0.157,1.029
		c0.001,0.065-0.004,0.388,0.061,0.388c0,0.284,0.006,0.562,0.028,0.845c0.007,0.093,0.058,0.899,0.055,0.899
		c-0.099,0.293,0,0.641,0,0.899c0.044,0,0.163,0.388,0.163,0.463c0.081,0,0.008,0.264,0.001,0.321
		c-0.014,0.11,0.19,0.226,0.19,0.333c0.102,0.052,0.163,0.251,0.163,0.354c0.011,0,0.164,0.247,0.164,0.273
		c0.124,0.061,0.123,0.208,0.246,0.299c0,0.117,0.171,0.24,0.218,0.381c0.096,0.292,0.572,0.472,0.572,0.763
		c0.022,0,0.109,0.148,0.109,0.191c0.132,0.066,0.235,0.295,0.354,0.395c0.065,0.054,0.19,0.207,0.19,0.286
		c0.107,0.101,0.437,0.318,0.437,0.463c0.093,0.046,0.19,0.217,0.218,0.327c0.094,0.08,0.409,0.34,0.409,0.463
		c0.202,0.134,0.266,0.538,0.571,0.547c0.121,0.003,0.148,0.021,0.219-0.083c0.067,0-0.012-0.055,0.054-0.055
		c0.043-0.186,0.123-0.34,0.15-0.477c0.011-0.059,0.099-0.204,0.041-0.204c-0.011-0.201,0-0.41,0-0.573
		c0.056,0,0.127-0.863,0.136-1.008c0.109,0,0.004-0.345-0.013-0.407c-0.05-0.181,0.013-0.289,0.013-0.438
		c0.015,0,0.082-1.083,0.082-1.199c0-0.131,0.013-0.981,0.082-0.981c0-0.118,0.048-0.927,0.109-0.927
		c0-0.128,0.032-0.653,0.137-0.653c0.023-0.189,0.091-0.277-0.001-0.459c-0.038-0.076-0.026-0.631,0.029-0.631
		c-0.024-0.424,0.027-0.702,0.027-1.117c0.09,0-0.037-0.436,0.054-0.436c0.028-0.23,0.085-0.315,0.231-0.491
		c0.176-0.21,0.441-0.333,0.722-0.436c0.06,0,0.408-0.053,0.408,0c0.113,0,0.35,0.046,0.409,0.163c0.299,0,0.592,0.165,0.79,0.396
		c0.057,0.066,0.163,0.12,0.163,0.205c0.053,0,0.048,0.078,0.109,0.108c0,0.102,0.119,0.156,0.191,0.218
		c0,0.074,0.072,0.148,0.136,0.19c0,0.036,0.06,0.191,0.082,0.191c0,0.137,0.054,0.293,0.054,0.422c0,0.162,0.225,0.543,0.454,0.516
		c0.155-0.02,0.174-0.149,0.282-0.229c0-0.046,0.113-0.218,0.137-0.218c0-0.119,0.123-0.239,0.202-0.327
		c0.121-0.134,0.267-0.38,0.441-0.44c0.301-0.104,1.011-0.188,1.154-0.295c0.024-0.098,0.177-0.354,0.3-0.354
		c0.051-0.106,0.708-0.24,0.708-0.246c0.229,0.02,0.794-0.165,0.954-0.218c0.289-0.096,3.65-0.457,3.65-0.3
		c0.142,0,1.684,0.004,1.835,0.011c0.192,0.009,2.306,0.096,2.306,0.125c0.081,0,0.137,0.058,0.223,0.049
		c0.127-0.013,1.161,0.169,1.351,0.169c0.299,0,0.44,0.086,0.75,0.095c0.117,0.004,1.3,0.218,1.3,0.259
		c0.1,0,0.236,0.124,0.354,0.163c0,0.013,0.479,0.093,0.545,0.109c0,0.052,0.401,0.218,0.462,0.218c0,0.073,0.273,0.167,0.273,0.299
		c0.105,0.051,0.326,0.237,0.326,0.355c0.215,0.105,0.209,0.437,0.409,0.572c0,0.105,0.082,0.07,0.082,0.191
		c0.053,0,0.009,0.072,0.082,0.109c0.025,0.127,0.11,0.329,0.217,0.381c0,0.092,0.083,0.109,0.109,0.218
		c0.06,0,0.063,0.162,0.073,0.208c0.031,0.147,0.118,0.358,0.118,0.472c0.106,0,0.19,0.395,0.19,0.49
		c0,0.271,0.108,0.544,0.108,0.791c0,0.131,0.054,0.256,0.054,0.381c0,0.144,0,0.328,0,0.518c-0.087,0-0.087,0.731-0.134,0.869
		c-0.083,0.244-0.243,0.928,0.228,0.734c0.086-0.035,0.234-0.151,0.234-0.24c0.105-0.093,0.326-0.251,0.326-0.382
		c0.115-0.058,0.096-0.24,0.218-0.3c0-0.126,0.109-0.154,0.109-0.272c0.121-0.08,0.12-0.266,0.244-0.327
		c0-0.053,0.125-0.272,0.164-0.272c0-0.08,0.179-0.49,0.218-0.49c0-0.069,0.132-0.545,0.164-0.545
		c0.041-0.288,0.196-0.394,0.245-0.682c0.05,0,0.082-0.163,0.082-0.218c0.09-0.045,0.076-0.132,0.163-0.205
		c0.106-0.087,0.092-0.139,0.109-0.271c0.02-0.143,0.107-0.263,0.107-0.368c0.111-0.056,0.089-0.171,0.165-0.245
		c0.092-0.092,0.116-0.193,0.244-0.3c0-0.051,0.037-0.191,0.082-0.191c0-0.252,0.358-0.401,0.545-0.463
		c0-0.051,0.603-0.136,0.681-0.136c0-0.017,0.642-0.164,0.708-0.164c0.134,0,0.928-0.053,0.928-0.109c0.242,0,1.288-0.3,1.334-0.3
		c0-0.083,3.825-1.008,3.979-1.008c0-0.074,1.634-0.428,1.634-0.463c0.075-0.007,0.463-0.031,0.463-0.109
		c0.133,0,0.194-0.082,0.327-0.082c0,0.006,0.927-0.217,0.927-0.137c0.084,0,0.327,0.005,0.327,0.082
		c0.128,0,0.204,0.163,0.326,0.163c0.121,0.139,0.243,0.273,0.409,0.273c0,0.023,0.097,0.048,0.136,0.095
		c0.064,0.08,0.418,0.92,0.446,1.109C216.146,17.797,216.346,18.345,216.363,18.408"/>
	<path id="path30" fill="#9D9D9D" d="M253.577,31.757c0.106,0,0.616,0.08,0.75,0.08c0.051,0,0.204-0.096,0.204,0
		c0.176,0.059,0.282,0.137,0.438,0.137c0.166,0,0.262,0.074,0.391,0.062c0.124-0.012,0.233-0.051,0.359,0.027
		c0.092,0.058,0.15,0.196,0.148,0.291c-0.003,0.088-0.005,0.197-0.055,0.274c-0.05,0.04-2.229,0.326-2.316,0.326
		c0,0.137-2.352,0.259-2.619,0.283c-0.073,0.007-0.296-0.005-0.296-0.064c-0.165-0.011-0.502,0.042-0.544-0.082
		c-0.073,0-0.049-0.082-0.137-0.082c0-0.058-0.135-0.054-0.182-0.063c-0.05-0.01-0.308-0.153-0.308-0.182
		c-0.183-0.045-0.679-0.326-0.615-0.566c0.044-0.162,0.174-0.297,0.308-0.393c0.182-0.129,0.337-0.093,0.552-0.076
		c0-0.083,0.403,0.035,0.463,0.046c0.048,0.008,0.218,0.004,0.218,0.063c0.107-0.01,1.645-0.108,2.016-0.108
		C252.351,31.826,253.315,31.624,253.577,31.757 M223.284,22.467c0.2,0.055,0.206,0.403,0.23,0.566
		c0.017,0.12,0.077,1.042,0.124,1.042c-0.007,0.11,0.005,0.981-0.056,0.981c0,0.289-0.081,0.495-0.081,0.735
		c-0.108,0.054-0.028,0.136-0.136,0.191c0,0.078-0.183,0.266-0.246,0.313c-0.185,0.139-0.337,0.163-0.583,0.122
		c-0.21-0.035-0.419,0.111-0.631,0.137c-0.104,0.012-0.502,0.005-0.502-0.108c-0.29-0.233-0.095-0.522-0.027-0.79
		c0.035,0,0.082-0.184,0.082-0.218c0.081,0,0.093-0.272,0.164-0.272c0-0.084,0.141-0.384,0.244-0.436
		c0-0.145,0.136-0.276,0.136-0.436c0.092,0,0.086-0.356,0.191-0.409c0-0.119,0.149-0.206,0.189-0.326
		c0.051-0.151,0.104-0.189,0.137-0.328c0.013,0,0.228-0.392,0.245-0.463c0.084,0-0.002-0.164,0.082-0.164
		C222.847,22.435,223.164,22.342,223.284,22.467 M224.891,17.126c0.13,0,0.2,0.222,0.3,0.273c0.012,0.048,0.624,0.918,0.753,1.035
		c0.077,0.069,0.2,0.209,0.2,0.3c0.07,0.035,0.219,0.282,0.219,0.354c0.082,0.042,0.114,0.162,0.136,0.259
		c0.033,0.15,0.217,0.234,0.217,0.368c0.074,0.037,0.137,0.218,0.137,0.3c0.05,0,0.109,0.185,0.109,0.245
		c0.091,0,0.138,1.101,0.149,1.199c0.034,0.275,0.178,0.487,0.178,0.736c0.101,0,0.112,0.626,0.189,0.626
		c0,0.064,0.167,0.763,0.192,0.763c0,0.119,0.06,0.708,0.137,0.708c0.005,0.055,0.041,0.381,0.08,0.381
		c0,0.133,0.054,0.177,0.054,0.286c0,0.172,0.031,0.627,0.32,0.662c0.16,0.02,0.307-0.276,0.307-0.376
		c0.041,0,0.095-0.163,0.109-0.218c0.146-0.075,0.129-0.339,0.272-0.409c0.055-0.167,0.167-0.255,0.218-0.409
		c0.05-0.151,0.095-0.234,0.218-0.327c0-0.064,0.107-0.218,0.164-0.245c0.025-0.101,0.082-0.109,0.082-0.19
		c0.041-0.028,0.163-0.147,0.163-0.191c0.171,0,0.21-0.299,0.382-0.299c0.046-0.093,0.376-0.368,0.417-0.481
		c0.042-0.114,0.035-0.188,0.155-0.228c0-0.009,0.197-0.163,0.245-0.163c0-0.042,0.247-0.202,0.3-0.218
		c0.131-0.043,0.272-0.069,0.272-0.136c0.1,0,0.589-0.36,0.627-0.436c0.139,0,0.189-0.218,0.326-0.218
		c0.041-0.063,0.327-0.187,0.327-0.218c0.138-0.033,0.152-0.08,0.299-0.108c0.038-0.079,0.327-0.17,0.327-0.218
		c0.04,0,0.163-0.047,0.163-0.082c0.106-0.026,0.332-0.122,0.383-0.218c0.205,0,0.451-0.255,0.667-0.287
		c0.211-0.03,0.374-0.15,0.586-0.204c0-0.03,0.329-0.124,0.381-0.137c0-0.014,0.458-0.102,0.537-0.117
		c0.118-0.023,0.194-0.062,0.309-0.101c0.057-0.019,0.244-0.109,0.244-0.136c0.414-0.069,1.285-0.327,1.336-0.327
		c0-0.031,0.289-0.054,0.354-0.054c0-0.032,0.224-0.082,0.271-0.082c0-0.03,0.444-0.055,0.519-0.055
		c0-0.122,1.313-0.199,1.424-0.199c0.134,0,0.227,0.008,0.334,0.008c0.149,0,0.239-0.055,0.421-0.055
		c0.146,0,0.387,0.028,0.539,0.109c0.102,0.055,0.203,0.109,0.306,0.164c0.035,0.071,0.164,0.055,0.164,0.109
		c0.173,0.044,0.296,0.224,0.398,0.373c0.098,0.138,0.234,0.18,0.355,0.318c0.1,0.114,0.17,0.243,0.281,0.318
		c0,0.101,0.055,0.043,0.055,0.163c0,0.137,0.144,0.202,0.244,0.286c0.171,0.143,0.163,0.437,0.354,0.531
		c0.08,0.131,0.093,0.317,0.11,0.464c0.081,0,0.168,0.387,0.188,0.463c0.094,0,0.131,0.618,0.149,0.75
		c0.036,0.272-0.013,0.548-0.013,0.776c0,0.142,0.032,0.899-0.081,0.899c0,0.057-0.014,0.326-0.056,0.326
		c0,0.122-0.081,0.19-0.081,0.3c-0.059,0-0.174,0.642-0.272,0.708c0,0.081-0.048,0.09-0.108,0.137
		c-0.066,0.199-0.211,0.277-0.272,0.481c-0.037,0.123-0.075,0.095-0.109,0.227c-0.074,0.066-0.218,0.142-0.218,0.245
		c-0.062,0.03-0.163,0.178-0.163,0.245c-0.153,0.076-0.21,0.272-0.382,0.272c0,0.036-0.82,0.054-0.898,0.054
		c0,0.088-0.358-0.042-0.408-0.054c-0.062-0.119-0.116-0.082-0.205-0.082c-0.111,0-0.668,0.031-0.668-0.109
		c-0.122,0-0.188-0.156-0.327-0.191c-0.034-0.073-0.203-0.136-0.271-0.136c0-0.013-0.155-0.122-0.201-0.146
		c-0.063-0.034-0.132-0.063-0.187-0.111c-0.037-0.033-0.063-0.075-0.075-0.124c-0.056-0.011-0.1-0.04-0.132-0.087
		c-0.119-0.183-0.161-0.502-0.125-0.713c0.008-0.042,0.038-0.496,0.038-0.671c0.04,0,0.002-0.272-0.027-0.272
		c0-0.118,0.078-0.741,0.169-0.913c0.088-0.168,0.077-0.324,0.077-0.518c0-0.12-0.081-0.394-0.192-0.45
		c0-0.102-0.21-0.19-0.299-0.19c-0.146,0-0.407-0.018-0.545,0.026c0,0.031-0.228,0.114-0.286,0.123
		c-0.138,0.02-0.288,0.068-0.421,0.068c0,0.023-0.198,0.097-0.246,0.109c0,0.045-0.303,0.083-0.382,0.108
		c-0.168,0.056-0.209,0.202-0.382,0.245c0,0.095-0.271,0.081-0.271,0.136c-0.155,0.031-0.186,0.102-0.327,0.137
		c-0.128,0.16-0.245,0.191-0.382,0.354c-0.208,0.069-0.268,0.13-0.437,0.272c0,0.121-0.202,0.206-0.271,0.286
		c-0.115,0.136-0.237,0.167-0.354,0.313c-0.084,0-0.382,0.297-0.382,0.381c-0.125,0.083-0.146,0.205-0.272,0.3
		c0,0.119-0.19,0.177-0.19,0.3c-0.142,0.123-0.244,0.222-0.3,0.382c-0.069,0.035-0.245,0.246-0.245,0.327
		c-0.101,0.051-0.19,0.246-0.219,0.354c-0.105,0.086-0.139,0.192-0.244,0.245c0,0.095-0.081,0.137-0.081,0.217
		c-0.024,0-0.22,0.251-0.232,0.313c-0.013,0.068-0.134,0.45-0.176,0.45c0,0.207-0.181,0.375-0.2,0.663
		c-0.013,0.184,0.029,0.361,0.015,0.549c-0.003,0.045-0.065,0.204,0.021,0.204c0,0.157,0.193,0.21,0.272,0.327
		c0.173,0.044,0.214,0.156,0.366,0.228c0.073,0.033,0.116,0.063,0.165,0.127c0.06,0.079,0.132,0.048,0.177,0.136
		c0.128,0,0.188,0.219,0.3,0.219c0.062,0.12,0.242,0.125,0.34,0.245c0.089,0.105,0.668,0.389,0.668,0.518
		c0.093,0,0.246,0.137,0.3,0.218c0.094,0,0.035,0.109,0.164,0.109c0.042,0,0.19,0.017,0.19,0.054c0.076,0,0.208,0.088,0.244,0.164
		c0.111,0,0.204,0.159,0.328,0.19c0,0.114,0.49,0.163,0.49,0.245c0.16,0,0.312,0.163,0.463,0.163c0,0.09,0.49,0.126,0.49,0.218
		c0.232,0.015,0.433,0.026,0.654,0.1c0.219,0.074,0.405,0.146,0.636,0.146c0.141,0,0.754,0.026,0.754-0.027
		c0.107,0,0.871,0.01,0.871-0.055c0.149,0,0.213-0.054,0.354-0.054c0-0.075,0.371-0.076,0.464-0.083
		c0-0.041,0.371-0.218,0.437-0.218c0.031-0.062,0.109-0.056,0.109-0.108c0.128,0,0.164-0.098,0.244-0.191
		c0.086,0,0.366-0.17,0.421-0.244c0.089-0.116,0.271-0.3,0.423-0.3c0.029-0.059,0.203-0.136,0.271-0.136
		c0-0.08,0.271-0.049,0.328-0.028c0,0.067,0.054-0.011,0.054,0.055c0.128,0,0.153,0.116,0.218,0.218
		c0.107,0.036,0.154,0.024,0.191,0.136c0.063,0.031,0.037,0.083,0.082,0.083c0,0.084,0.163,0.147,0.163,0.189
		c0.229,0.177,0.572-0.105,0.572-0.299c0.214,0,0.008-1.716,0.108-1.716c0-0.209,0.164-0.455,0.164-0.682
		c0.087,0,0.081-0.627,0.189-0.627c0-0.21,0.117-0.371,0.191-0.599c0.075,0,0.078-0.572,0.19-0.572c0-0.086,0.195-0.709,0.245-0.709
		c0-0.071,0.206-0.708,0.245-0.708c0-0.039,0.052-0.218,0.083-0.218c0-0.037,0.104-0.272,0.136-0.272
		c0.018-0.113,0.205-0.599,0.271-0.599c0-0.167,0.172-0.337,0.205-0.505c0.019-0.094,0.122-0.194,0.122-0.286
		c0.047,0,0.129-0.268,0.217-0.327c0-0.085,0.025-0.044,0.056-0.164c0.036,0,0.046-0.163,0.057-0.209
		c0.051-0.207,0.056-0.43-0.003-0.635c0-0.162-0.041-0.287-0.056-0.442c-0.01-0.11,0.056-0.251,0.056-0.402
		c0.034,0,0.112-0.49,0.192-0.49c0-0.103,0.179-0.545,0.271-0.545c0.035-0.137,0.084-0.422,0.204-0.518
		c0.092-0.073,0.181-0.3,0.313-0.3c0.085-0.126,0.204-0.152,0.313-0.286c0.123-0.15,0.197-0.205,0.367-0.205
		c0-0.084,0.561-0.132,0.682-0.171c0.219-0.069,0.436-0.14,0.653-0.21c0.245,0,0.402-0.03,0.641-0.047
		c0.273-0.02,2.356-0.404,2.356-0.361c0.246,0,2.055-0.377,2.474-0.402c0.381-0.022,0.782-0.221,1.204-0.243
		c0.137-0.007,1.035-0.034,1.035-0.118c0.369,0,0.623-0.027,0.927-0.027c0-0.074,0.637-0.109,0.749-0.109
		c0.3,0,1.711-0.269,1.812-0.286c0.129-0.021,0.468-0.031,0.607-0.094c0.135-0.062,1.302-0.292,1.437-0.3
		c0-0.091,0.489-0.156,0.489-0.245c0.102,0,0.791-0.06,0.791-0.109c0.219-0.032,0.367-0.06,0.577,0.011
		c0.099,0.032,0.196,0.065,0.295,0.098c0.073,0.083,0.186,0.272,0.3,0.272c0.053,0.07,0.19,0.178,0.19,0.245
		c0.145,0.12,0.274,0.292,0.409,0.381c0,0.093,0.108,0.139,0.108,0.245c0.07,0,0.152,0.282,0.245,0.327
		c0.058,0.173,0.196,0.272,0.245,0.463c0.029,0,0.163,0.317,0.163,0.381c0.034,0,0.102,0.381,0.164,0.381
		c-0.009,0.108,0.156,2.235,0,2.235c0,0.158-0.013,0.27-0.163,0.367c-0.138,0.088-0.33,0.183-0.478,0.136
		c-0.148-0.047-0.146-0.013-0.285-0.013c-0.241,0-0.442-0.027-0.676-0.083c-0.271-0.063-1.342-0.136-1.695-0.136
		c-0.191,0.054-0.394,0.054-0.591,0.054c-0.187,0-0.305,0.055-0.472,0.055c-0.169,0-0.303,0.03-0.466,0.057
		c-0.169,0.026-0.257-0.023-0.393-0.043c-0.045-0.006-0.259,0.029-0.259,0.068c-0.21,0-0.504-0.052-0.703,0.016
		c-0.144,0.049-1.064,0.042-1.211,0.08c-0.102,0.026-0.264,0.078-0.348,0.068c-0.187-0.023-0.298-0.034-0.479,0.023
		c-0.185,0.058-0.318,0.004-0.461,0.004c-0.158,0-0.36,0.022-0.559,0.055c0,0.056-0.57,0.054-0.656,0.056
		c-0.118,0.003-1.06,0.11-1.06,0.108c-0.138,0.012-1.253,0.08-1.253,0.082c-0.333,0.032-0.451,0.132-0.78,0.146
		c-0.131,0.004-2.053,0.245-2.053,0.318c-0.186,0.046-0.157,0.112-0.3,0.231c-0.195,0.163-0.318,0.246-0.518,0.395
		c0,0.096-0.149,0.233-0.19,0.354c-0.064,0-0.045,0.164-0.109,0.164c0,0.148-0.407,0.696-0.418,0.827
		c-0.021,0.281,0.008,0.435,0.228,0.617c0.306,0,0.571,0.082,0.898,0.082c0,0.058,0.377,0.044,0.436,0.041
		c0.229-0.013,0.41,0.024,0.655,0.041c0.315,0,0.603,0.033,0.933,0.082c0.165,0.025,0.268-0.028,0.401-0.028
		c0-0.044,0.453-0.048,0.514-0.047c0.081,0.003,0.832-0.116,0.958-0.116c0,0.027,0.634-0.152,0.708-0.164
		c0.183-0.274,0.47-0.265,0.762-0.19c0-0.002,0.239,0.109,0.273,0.109c0.037,0.049,0.244,0.172,0.244,0.191
		c0.05,0,0.219,0.058,0.219,0.109c0.133,0,0.181,0.198,0.272,0.245c0,0.063,0.898,1.439,0.898,1.552
		c0.131,0.068,0.136,0.313,0.136,0.437c0,0.17,0.056,0.249,0.056,0.394c0,0.203,0.002,0.404,0.003,0.606
		c0,0.153-0.023,0.879-0.167,0.879c0,0.104-0.044,0.183-0.136,0.259c-0.12,0.1-0.408,0.406-0.408,0.586
		c-0.058,0.136-0.573,0.44-0.573,0.49c-0.226,0-0.412,0.074-0.625,0.146c-0.144,0.048-0.271,0.154-0.383,0.154
		c0,0.055-0.212,0.128-0.258,0.19c-0.189,0.251,0.146,0.571,0.34,0.75c0.104,0.095,0.211,0.184,0.245,0.313
		c0.19,0.038,0.325,0.205,0.381,0.382c0,0.372-0.063,2.152-0.136,2.152c0,0.098-0.324,1.128-0.553,1.218
		c-0.118,0.047-1.194,0.58-1.408,0.58c0,0.224-4.197,0.632-4.713,0.63c-0.076,0-0.846,0.044-0.846-0.058
		c-0.262,0-0.579-0.085-0.816-0.164c-0.109-0.035-1.328-0.307-1.445-0.544c-0.071,0-0.248-0.142-0.299-0.204
		c-0.05-0.064-0.283-0.205-0.354-0.205c-0.042-0.082-0.107-0.081-0.192-0.108c-0.051-0.066-0.075-0.137-0.162-0.137
		c-0.084-0.128-0.262-0.25-0.382-0.382c-0.048,0-0.219-0.106-0.219-0.136c-0.098-0.066-0.048-0.093-0.136-0.137
		c0-0.143-0.129-0.153-0.19-0.272c-0.114,0-0.28-0.213-0.354-0.3c-0.06-0.031-0.19-0.212-0.19-0.271
		c-0.12-0.097-0.131-0.186-0.218-0.272c-0.043-0.043-0.272-0.142-0.272-0.109c-0.214,0-0.322,0.49-0.409,0.49
		c0,0.096-0.104,0.198-0.122,0.301c-0.009,0.048-0.091,0.325-0.149,0.325c0,0.085-0.156,0.421-0.245,0.463
		c0,0.053-0.259,0.465-0.272,0.465c0,0.077-0.111,0.219-0.177,0.271c-0.132,0.106-0.124,0.264-0.26,0.354
		c-0.141,0.164-0.273,0.217-0.407,0.359c-0.152,0.162-0.324,0.402-0.531,0.444c-0.205,0.041-0.333,0.177-0.546,0.177
		c-0.118,0-0.207,0.059-0.367,0.068c-0.242,0.015-0.455,0.051-0.72,0.063c-0.323,0.015-0.726-0.064-1.084-0.082
		c-0.186-0.009-0.39-0.049-0.539-0.049c-0.133,0-0.194-0.082-0.326-0.082c-0.045,0-0.355,0.063-0.355-0.026
		c-0.146-0.025-0.18-0.076-0.299-0.096c-0.214-0.036-0.361-0.165-0.582-0.187c-0.174-0.018-0.243-0.092-0.398-0.118
		c-0.065-0.01-0.382-0.063-0.382-0.145c-0.059-0.008-0.354-0.042-0.354-0.109c-0.123,0-0.193-0.103-0.327-0.137
		c0-0.07-0.546-0.189-0.546-0.218c-0.049,0-0.271-0.048-0.271-0.109c-0.144,0-0.246-0.218-0.408-0.218
		c0-0.047-0.32-0.189-0.382-0.189c0-0.03-0.197-0.137-0.245-0.137c-0.071-0.143-0.257-0.102-0.326-0.245
		c-0.067,0-0.216-0.102-0.245-0.163c-0.053,0-0.146-0.038-0.191-0.083c-0.059-0.059-0.185-0.133-0.271-0.163
		c-0.119-0.143-0.221-0.193-0.354-0.272c-0.104,0-0.283-0.146-0.354-0.231c-0.09-0.104-0.184-0.166-0.301-0.204
		c-0.05-0.1-0.198-0.14-0.273-0.232c-0.115-0.145-0.28-0.163-0.38-0.313c-0.23-0.162-0.412-0.431-0.655-0.49
		c-0.198-0.251-0.438-0.347-0.645-0.582c-0.086-0.098-0.14-0.103-0.172-0.235c-0.065-0.052-0.136-0.075-0.136-0.164
		c-0.055-0.066-0.119-0.021-0.164-0.108c-0.081,0-0.463-0.498-0.463-0.627c-0.215-0.16-0.242-0.449-0.463-0.599
		c0-0.092-0.055-0.045-0.055-0.136c-0.107-0.071-0.097-0.15-0.184-0.245c-0.075-0.082-0.15-0.164-0.225-0.245
		c-0.083,0-0.165,0-0.246,0c0.009,0.063-0.011,0.09-0.054,0.082c0,0.084-0.175,0.653-0.219,0.653c-0.02,0.441-0.112,0.878-0.1,1.32
		c0.013,0.384,0.155,0.765,0.155,1.141c0,0.471,0.054,0.912,0.054,1.354c-0.087,0-0.047,0.696-0.063,0.824
		c-0.016,0.12-0.043,0.301-0.155,0.375c0,0.081-0.105,0.313-0.127,0.419c-0.041,0.207-0.158,0.358-0.3,0.543
		c-0.081,0.107-0.214,0.193-0.336,0.264c0,0.071-0.218,0.092-0.218,0.137c-0.066,0-0.436,0.024-0.436-0.027
		c-0.159,0-0.014-0.027-0.136-0.027c0-0.063-0.177,0.003-0.219,0.009c-0.137,0.023-0.212-0.029-0.346-0.055
		c-0.085-0.015-0.444-0.126-0.444-0.199c-0.169,0-0.479-0.102-0.585-0.245c-0.071-0.095-0.231-0.285-0.314-0.326
		c-0.036-0.114-0.19-0.213-0.19-0.327c-0.257-0.132-0.23-0.632-0.244-0.899c-0.133-0.467-0.086-0.994-0.102-1.475
		c-0.01-0.323-0.016-0.679,0.037-0.969c0.066-0.356,0.036-0.707,0.036-1.09c0-0.228-0.246-0.547-0.49-0.608
		c0-0.15-0.953-0.114-0.953-0.054c-0.408-0.01-0.876,0-1.239,0c-0.05,0-0.531,0.145-0.531,0.163c-0.223,0-0.402,0.109-0.6,0.109
		c0,0.008-0.713,0.178-0.817,0.19c0,0.052-0.572,0.059-0.572,0.164c-0.046,0-0.189,0.068-0.189,0.108
		c-0.132,0.031-0.212,0.108-0.327,0.108c-0.144,0.167-0.307,0.305-0.454,0.466c-0.054,0.057-0.192,0.406-0.228,0.406
		c-0.021,0.062-0.133,0.272-0.164,0.272c0,0.101-0.108,0.163-0.108,0.272c-0.102,0.066-0.094,0.197-0.189,0.244
		c0,0.034-0.111,0.273-0.11,0.273c-0.021,0.152-0.082,0.23-0.082,0.354c-0.068,0-0.358,0.926-0.436,0.926
		c-0.032,0.139-0.073,0.108-0.108,0.245c-0.1,0.066-0.067,0.144-0.164,0.191c-0.081,0.226-0.197,0.374-0.271,0.6
		c-0.062,0.029-0.038,0.081-0.081,0.081c0,0.097-0.098,0.143-0.164,0.205c-0.157,0.144-0.289,0.229-0.437,0.395
		c-0.162,0.054-0.37,0.35-0.563,0.182c-0.12-0.105-1.484-0.795-1.644-0.836c-0.073-0.099-0.244-0.161-0.244-0.272
		c-0.154-0.074-0.244-0.653-0.3-0.653c-0.04-0.28-0.138-0.569-0.15-0.88c-0.004-0.068,0.016-0.264,0.068-0.264
		c0-0.098-0.031-0.518,0.054-0.518c0.068-0.268,0.164-0.468,0.245-0.813c0.056-0.233,0.327-0.437,0.327-0.687
		c0.04,0,0.108-0.144,0.108-0.191c0.121-0.079,0.122-0.179,0.245-0.272c0-0.058,0.083-0.244,0.137-0.271
		c0-0.077,0.226-0.354,0.272-0.354c0-0.116,0.186-0.434,0.299-0.49c0.075-0.229,0.3-0.452,0.3-0.682
		c0.117,0,0.131-0.462,0.219-0.462c0-0.1,0.088-0.199,0.108-0.326c0.06,0,0.109-0.238,0.109-0.301c0.152,0,0.166-0.654,0.271-0.654
		c0-0.107,0.056-0.184,0.056-0.336c0-0.146-0.045-0.283-0.013-0.468c0.03-0.16,0.052-0.314,0.066-0.477
		c0.075-0.144,0.247-0.244,0.354-0.363c0.096-0.106,0.133-0.174,0.273-0.209c0.064-0.1,0.143-0.068,0.189-0.164
		c0.125,0,0.262-0.199,0.373-0.299c0.143-0.128,0.239-0.28,0.303-0.474c0.03-0.087,0.101-0.397,0.168-0.397
		c0-0.093,0.208-0.458,0.273-0.49c0-0.146,0.16-0.265,0.218-0.436c0.068-0.206,0.185-0.279,0.245-0.518
		c0.073-0.037,0.137-0.217,0.137-0.299c0.03,0,0.135-0.236,0.189-0.273c0-0.119,0.158-0.18,0.178-0.313
		c0.007-0.049,0.127-0.368,0.177-0.368c0-0.106,0.092-0.196,0.136-0.327c0.089-0.045,0.064-0.245,0.137-0.245
		c0-0.124,0.104-0.229,0.136-0.354c0.074-0.037,0.132-0.245,0.191-0.245c0-0.143,0.217-0.287,0.217-0.437
		c0.074,0,0.08-0.231,0.165-0.273c0.08-0.326,0.463-0.478,0.463-0.817c0.06-0.03,0.163-0.154,0.163-0.218
		c0.091-0.062,0.135-0.135,0.165-0.245c0.167-0.085,0.196-0.384,0.353-0.463c0-0.058,0.183-0.354,0.219-0.354
		c0.07-0.209,0.517-0.417,0.517-0.626c0.036,0,0.109-0.123,0.109-0.164c0.102-0.094,0.204-0.188,0.305-0.284
		c0.106-0.099,0.203-0.208,0.301-0.316c0.106-0.115,0.27-0.148,0.321-0.299c0.121-0.097,0.344-0.227,0.408-0.354
		c0.097,0,0.167-0.166,0.246-0.232c0.117-0.098,0.147-0.166,0.299-0.205c0.17-0.333,0.779-0.127,1.035-0.095
		c0.041,0.005,0.19,0.031,0.19,0.068c0.086,0,0.251,0.012,0.362,0.046C224.524,16.845,224.838,16.925,224.891,17.126"/>
	<path id="path32_1_" fill="#9D9D9D" d="M127.497,22.085c-0.02,0.181-0.082,0.264-0.082,0.409c-0.028,0-0.164,0.261-0.164,0.3
		c-0.06,0.029-0.19,0.235-0.19,0.299c-0.059,0.045-0.165,0.219-0.191,0.219c-0.051,0.158-0.193,0.266-0.326,0.388
		c-0.101,0.091-0.253,0.401-0.382,0.401c-0.031,0.061-0.109,0.057-0.109,0.109c-0.101,0-0.155,0.118-0.217,0.191
		c-0.069,0-0.272,0.163-0.313,0.218c-0.051,0.069-0.141,0.108-0.218,0.123c-0.136,0.027-0.282,0.06-0.455,0.032
		c-0.133-0.021-0.13-0.181-0.13-0.292c-0.083,0,0.057-0.862,0.072-0.953c0.025-0.153,0.091-0.237,0.091-0.354
		c0.095,0-0.014-0.49,0.082-0.49c0-0.173,0.054-0.218,0.054-0.381c0.051,0,0.027-0.443,0.027-0.518
		c0.075-0.259,0.003-0.466-0.014-0.733c-0.009-0.13,0.068-0.684,0.123-0.684c0-0.136,0.194-0.38,0.326-0.49
		c0.3,0.004,0.441,0.163,0.709,0.163c0,0.033,0.443,0.211,0.544,0.245c0.108,0.143,0.287,0.21,0.382,0.354
		c0.118,0,0.162,0.163,0.245,0.218c0,0.045,0.091,0.245,0.109,0.245c0.061,0.183,0.089,0.281,0.102,0.491
		C127.575,21.655,127.612,22.085,127.497,22.085z M133.655,33.173c-0.011,0-0.116-0.321-0.136-0.382
		c-0.081-0.065-0.208-0.145-0.245-0.218c-0.14-0.048-0.12-0.272-0.272-0.272c-0.083-0.073-0.141-0.176-0.219-0.272
		c-0.284-0.071-0.329-0.428-0.598-0.518c-0.138-0.047-0.19-0.13-0.328-0.164c-0.024-0.049-0.213-0.163-0.272-0.163
		c-0.081-0.121-0.179-0.122-0.273-0.245c-0.047,0-0.299-0.159-0.299-0.191c-0.153-0.037-0.182-0.081-0.354-0.081
		c-0.089-0.104-0.274-0.409-0.409-0.409c-0.027-0.052-0.242-0.189-0.3-0.189c-0.11-0.134-0.211-0.188-0.327-0.314
		c-0.123-0.135-0.17-0.273-0.299-0.382c-0.108-0.089-0.328-0.236-0.328-0.366c-0.087,0-0.068-0.288-0.04-0.347
		c0.047-0.101,0.134-0.166,0.214-0.239c0.093-0.083,0.153-0.191,0.153-0.287c0.075,0,0.507-0.454,0.57-0.559
		c0.08-0.134,0.154-0.21,0.274-0.313c0.028-0.084,0.027-0.149,0.108-0.191c0.012-0.061,0.076-0.3,0.137-0.3
		c0-0.123,0.205-0.235,0.231-0.368c0.037-0.186,0.231-0.313,0.231-0.504c0.058,0,0.191-0.527,0.191-0.599
		c0.095,0-0.015-0.491,0.081-0.491c0-0.048,0.054-0.273,0.081-0.273c0.037-0.147,0.11-0.199,0.11-0.341
		c0-0.137,0.074-0.258,0.108-0.395c0.02,0,0.083-0.208,0.083-0.245c0.075,0,0.054-0.307,0.054-0.39c0-0.187-0.014-0.42-0.004-0.646
		c0.006-0.144-0.049-0.192-0.049-0.354c-0.011,0,0.064-0.545-0.083-0.545c0-0.248-0.108-0.428-0.108-0.654
		c-0.038,0-0.164-0.395-0.164-0.463c-0.055,0-0.099-0.303-0.108-0.381c-0.039,0-0.11-0.189-0.11-0.245
		c-0.141,0-0.112-0.627-0.272-0.627c0-0.14-0.218-0.219-0.218-0.354c-0.053,0-0.48-0.725-0.518-0.926
		c-0.039,0-0.127-0.212-0.178-0.273c-0.082-0.098-0.367-0.325-0.367-0.435c-0.099-0.067-0.188-0.3-0.327-0.3
		c-0.161-0.187-0.222-0.219-0.454-0.291c-0.237-0.073-0.147-0.19-0.295-0.309c-0.16-0.128-0.208-0.164-0.422-0.191
		c0-0.104-0.599-0.072-0.599-0.163c-0.313,0-0.605-0.164-0.9-0.164c0-0.042-0.244-0.139-0.292-0.143
		c-0.103-0.007-0.205-0.014-0.307-0.02c-0.039-0.078-0.082-0.066-0.163-0.082c0-0.094-0.5-0.19-0.6-0.19
		c0-0.001-0.706-0.109-0.776-0.109c-0.164,0-0.967,0.039-0.967,0.19c-0.119,0-0.133,0.055-0.273,0.055
		c0,0.022-0.358,0.054-0.408,0.054c0,0.092-0.49,0.104-0.49,0.191c-0.157,0-0.365,0.122-0.518,0.272
		c-0.056,0.083-0.234,0.247-0.328,0.247c-0.064,0.131-0.272,0.214-0.272,0.354c-0.318,0.216-0.332,0.689-0.531,1.021
		c-0.174,0.29-0.236,0.507-0.221,0.831c0.016,0.315-0.034,0.554,0.059,0.883c0.039,0.137,0.067,0.283,0.067,0.397
		c0.033,0,0.108,0.218,0.108,0.272c0.031,0,0.136,0.236,0.19,0.273c0,0.064,0.098,0.212,0.164,0.245
		c0,0.055,0.228,0.359,0.272,0.382c0.052,0.077,0.217,0.193,0.234,0.283c0.011,0.057,0.098,0.371,0.011,0.371
		c0,0.113-0.059,0.16-0.082,0.3c-0.113,0-0.218,0.536-0.218,0.626c-0.075,0-0.097,0.572-0.19,0.572c0,0.411-0.31,0.669-0.368,1.076
		c-0.024,0.169-0.096,0.299-0.096,0.422c-0.034,0-0.082,0.123-0.082,0.164c-0.04,0-0.082,0.164-0.136,0.191
		c0,0.115-0.147,0.194-0.218,0.3c-0.068,0-0.151,0.041-0.246,0.054c0,0.06-0.2,0.027-0.245,0.027c0,0.049-0.271,0.055-0.327,0.055
		c0-0.002-0.241,0.171-0.273,0.254c-0.063,0.159-0.027,0.294-0.196,0.394c-0.151,0.09-0.225,0.12-0.252,0.277
		c-0.026,0.162-0.057,0.349-0.068,0.545c-0.047,0.168-0.013,0.354-0.014,0.528c-0.001,0.193-0.049,0.378-0.032,0.573
		c0.018,0.196,0.083,0.379,0.155,0.561c0.021,0.122,0.083,0.186,0.083,0.272c0.1,0.05,0.181,0.273,0.217,0.381
		c0.119,0.095,0.182,0.179,0.272,0.3c0.039,0,0.129,0.219,0.191,0.219c0,0.188,0.017,0.311,0,0.518
		c-0.042,0-0.063,0.981-0.071,1.101c-0.028,0.386-0.147,0.745-0.147,1.079c0,0.072-0.106,0.79-0.136,0.79
		c0,0.295-0.005,0.688-0.041,1.018c-0.005,0.045-0.107,0.372-0.013,0.372c0.009,0.236,0.018,0.473,0.027,0.708
		c0.029,0,0.169,0.54,0.19,0.627c0.021,0,0.082,0.202,0.082,0.245c0.01,0,0.163,0.222,0.163,0.272
		c0.131,0.086,0.112,0.232,0.246,0.299c0,0.091,0.159,0.188,0.231,0.246c0.256,0.205,0.406,0.527,0.75,0.593
		c0.256,0.048,0.817,0.043,0.817,0.115c0.103,0.011,0.227,0.01,0.299,0c0.259,0.018,0.384,0.044,0.599-0.109
		c0-0.084,0.144-0.315,0.218-0.354c0-0.11,0.136-0.14,0.136-0.245c0.092-0.046,0.068-0.3,0.136-0.3c0-0.106,0.108-0.204,0.108-0.326
		c0.045,0-0.027-0.825-0.027-0.927c-0.109,0-0.069-0.705-0.075-0.804c-0.01-0.173-0.062-0.391-0.062-0.559
		c0-0.142-0.082-0.297-0.082-0.446c0-0.197,0.016-0.396-0.029-0.587c-0.034-0.146-0.069-0.318-0.026-0.465
		c0.038,0,0.164-0.671,0.164-0.735c0.079,0,0.3-0.529,0.3-0.599c0.103-0.051,0.152-0.238,0.284-0.262
		c0.187-0.034,0.206-0.04,0.37,0.107c0.101,0.089,0.233,0.371,0.381,0.371c0.052,0.105,0.265,0.252,0.365,0.36
		c0.107,0.114,0.214,0.084,0.316,0.186c0.054,0.055,0.185,0.114,0.272,0.136c0.107,0.217,0.438,0.263,0.572,0.464
		c0.09,0,0.304,0.196,0.367,0.272c0.094,0.111,0.235,0.199,0.368,0.244c0.051,0.104,0.204,0.143,0.272,0.246
		c0.146,0.107,0.239,0.191,0.366,0.303c0.094,0.082,0.231,0.295,0.343,0.295c0.094,0.108,0.223,0.304,0.327,0.355
		c0.076,0.101,0.204,0.162,0.244,0.244c0.132,0.099,0.154,0.213,0.273,0.319c0.094,0.083,0.253,0.362,0.381,0.362
		c0,0.111,0.229,0.228,0.273,0.354c0.145,0.13,0.286,0.256,0.409,0.408c0.123,0,0.266,0.2,0.354,0.3
		c0.157,0,0.225,0.273,0.382,0.273c0,0.038,0.223,0.122,0.286,0.135c0.252,0.056,0.384,0.192,0.692,0.182
		c0.1-0.005,0.683,0.043,0.683-0.072c0.149,0,0.547-0.207,0.6-0.408c0.087-0.025,0.173-0.082,0.245-0.082
		c0.057-0.119,0.218-0.196,0.218-0.326c0.027-0.046,0.086-0.164,0.109-0.164c0.033-0.133,0.218-0.214,0.218-0.326
		c0.086-0.075,0.3-0.241,0.3-0.354c0.07-0.062,0.164-0.052,0.164-0.164c0.2-0.133,0.245-0.405,0.245-0.627
		C133.681,34,133.655,33.539,133.655,33.173"/>
</g>
</svg>
