<?xml version="1.0" encoding="utf-8"?>
<!-- Generator: Adobe Illustrator 16.0.0, SVG Export Plug-In . SVG Version: 6.00 Build 0)  -->
<!DOCTYPE svg PUBLIC "-//W3C//DTD SVG 1.1//EN" "http://www.w3.org/Graphics/SVG/1.1/DTD/svg11.dtd">
<svg version="1.1" id="Layer_1" xmlns="http://www.w3.org/2000/svg" xmlns:xlink="http://www.w3.org/1999/xlink" x="0px" y="0px"
	 width="47.5px" height="47.5px" viewBox="0 0 47.5 47.5" enable-background="new 0 0 47.5 47.5" xml:space="preserve">
<g>
	<rect x="0" y="0" fill="#272A31" width="4.318" height="4.318"/>
	<rect x="4.318" y="4.318" fill="#272A31" width="4.318" height="4.318"/>
	<rect x="8.636" y="0" fill="#272A31" width="4.318" height="4.318"/>
	<rect x="12.955" y="4.318" fill="#272A31" width="4.318" height="4.318"/>
	<rect y="8.637" fill="#272A31" width="4.318" height="4.318"/>
	<rect x="4.318" y="12.955" fill="#272A31" width="4.317" height="4.318"/>
	<rect x="8.635" y="8.637" fill="#272A31" width="4.318" height="4.318"/>
	<rect x="12.954" y="12.955" fill="#272A31" width="4.318" height="4.318"/>
	<rect x="17.272" y="0" fill="#272A31" width="4.318" height="4.318"/>
	<rect x="21.59" y="4.318" fill="#272A31" width="4.318" height="4.318"/>
	<rect x="25.908" y="0" fill="#272A31" width="4.318" height="4.318"/>
	<rect x="30.228" y="4.318" fill="#272A31" width="4.317" height="4.318"/>
	<rect x="17.272" y="8.637" fill="#272A31" width="4.318" height="4.318"/>
	<rect x="21.59" y="12.955" fill="#272A31" width="4.317" height="4.318"/>
	<rect x="25.907" y="8.637" fill="#272A31" width="4.318" height="4.318"/>
	<rect x="30.227" y="12.955" fill="#272A31" width="4.317" height="4.318"/>
	<rect x="0.001" y="17.273" fill="#272A31" width="4.318" height="4.318"/>
	<rect x="4.319" y="21.591" fill="#272A31" width="4.318" height="4.318"/>
	<rect x="8.637" y="17.273" fill="#272A31" width="4.318" height="4.318"/>
	<rect x="12.955" y="21.591" fill="#272A31" width="4.318" height="4.318"/>
	<rect x="0" y="25.909" fill="#272A31" width="4.318" height="4.318"/>
	<rect x="4.318" y="30.228" fill="#272A31" width="4.318" height="4.317"/>
	<rect x="8.636" y="25.909" fill="#272A31" width="4.318" height="4.318"/>
	<rect x="12.955" y="30.228" fill="#272A31" width="4.318" height="4.317"/>
	<rect x="17.273" y="17.273" fill="#272A31" width="4.318" height="4.318"/>
	<rect x="21.591" y="21.591" fill="#272A31" width="4.318" height="4.318"/>
	<rect x="25.909" y="17.273" fill="#272A31" width="4.318" height="4.318"/>
	<rect x="30.228" y="21.591" fill="#272A31" width="4.317" height="4.318"/>
	<rect x="17.272" y="25.909" fill="#272A31" width="4.318" height="4.318"/>
	<rect x="21.59" y="30.228" fill="#272A31" width="4.318" height="4.317"/>
	<rect x="25.908" y="25.909" fill="#272A31" width="4.318" height="4.318"/>
	<rect x="30.228" y="30.228" fill="#272A31" width="4.317" height="4.317"/>
	<rect x="0.001" y="34.545" fill="#272A31" width="4.318" height="4.318"/>
	<rect x="4.319" y="38.863" fill="#272A31" width="4.318" height="4.318"/>
	<rect x="8.637" y="34.545" fill="#272A31" width="4.318" height="4.318"/>
	<rect x="12.955" y="38.863" fill="#272A31" width="4.318" height="4.318"/>
	<rect x="0" y="43.182" fill="#272A31" width="4.318" height="4.318"/>
	<rect x="8.636" y="43.182" fill="#272A31" width="4.318" height="4.318"/>
	<rect x="17.273" y="34.545" fill="#272A31" width="4.318" height="4.318"/>
	<rect x="21.591" y="38.863" fill="#272A31" width="4.318" height="4.318"/>
	<rect x="25.909" y="34.545" fill="#272A31" width="4.318" height="4.318"/>
	<rect x="30.228" y="38.863" fill="#272A31" width="4.317" height="4.318"/>
	<rect x="17.272" y="43.182" fill="#272A31" width="4.318" height="4.318"/>
	<rect x="25.908" y="43.182" fill="#272A31" width="4.318" height="4.318"/>
	<rect x="34.545" y="0" fill="#272A31" width="4.318" height="4.318"/>
	<rect x="38.863" y="4.318" fill="#272A31" width="4.318" height="4.318"/>
	<rect x="43.182" y="0" fill="#272A31" width="4.318" height="4.318"/>
	<rect x="34.545" y="8.637" fill="#272A31" width="4.318" height="4.318"/>
	<rect x="38.863" y="12.955" fill="#272A31" width="4.317" height="4.318"/>
	<rect x="43.181" y="8.637" fill="#272A31" width="4.318" height="4.318"/>
	<rect x="34.547" y="17.273" fill="#272A31" width="4.317" height="4.318"/>
	<rect x="38.864" y="21.591" fill="#272A31" width="4.317" height="4.318"/>
	<rect x="43.182" y="17.273" fill="#272A31" width="4.318" height="4.318"/>
	<rect x="34.545" y="25.909" fill="#272A31" width="4.318" height="4.318"/>
	<rect x="38.863" y="30.228" fill="#272A31" width="4.318" height="4.317"/>
	<rect x="43.182" y="25.909" fill="#272A31" width="4.318" height="4.318"/>
	<rect x="34.547" y="34.545" fill="#272A31" width="4.317" height="4.318"/>
	<rect x="38.864" y="38.863" fill="#272A31" width="4.317" height="4.318"/>
	<rect x="43.182" y="34.545" fill="#272A31" width="4.318" height="4.318"/>
	<rect x="34.545" y="43.182" fill="#272A31" width="4.318" height="4.318"/>
	<rect x="43.182" y="43.182" fill="#272A31" width="4.318" height="4.318"/>
</g>
</svg>
